<svg width="current" height="current" viewBox="0 0 669 500" fill="none" xmlns="https://www.w3.org/2000/svg">
<circle cx="176" cy="176" r="176" fill="black"/>
<path d="M259.25 167.794V175.499C259.24 193.559 253.392 211.132 242.578 225.597C231.765 240.062 216.565 250.643 199.246 255.764C181.927 260.885 163.417 260.27 146.476 254.011C129.535 247.752 115.071 236.185 105.242 221.034C95.4121 205.884 90.7433 187.961 91.9315 169.94C93.1198 151.92 100.102 134.766 111.836 121.037C123.57 107.308 139.427 97.7402 157.043 93.7601C174.659 89.78 193.09 91.6009 209.586 98.9514M259.25 108.5L175.5 192.334L150.375 167.209" stroke="white" stroke-width="20" stroke-linecap="round" stroke-linejoin="round"/>
</svg>
