<svg width="141" height="75" viewBox="0 0 141 75" fill="none" xmlns="http://www.w3.org/2000/svg">
<rect x="11.3789" y="13.5244" width="127.322" height="58.9811" rx="6.04015" fill="#004E98" stroke="black" stroke-width="4"/>
<rect x="2" y="2" width="127.322" height="58.9811" rx="6.04015" fill="#A6A6A6" stroke="black" stroke-width="4"/>
<path d="M29.105 36.0018C29.4819 36.0018 29.8352 35.9586 30.165 35.8723C30.4948 35.7781 30.801 35.6603 31.0837 35.519C31.3663 35.3776 31.6215 35.2167 31.8492 35.0361C32.0847 34.8555 32.2889 34.6749 32.4616 34.4943H34.4285V40.5244H20.0599V35.413L21.5674 35.1185V27.84L20.0599 27.5455V22.4341H30.6126V27.5455L29.105 27.84V36.0018ZM45.4763 40.7364C44.5184 40.7364 43.5919 40.6775 42.6968 40.5597C41.8096 40.442 40.9734 40.2221 40.1882 39.9002C39.4109 39.5783 38.7003 39.1661 38.0564 38.6636C37.4126 38.1532 36.8591 37.5447 36.3958 36.838C35.9326 36.1235 35.5714 35.307 35.3123 34.3883C35.061 33.4618 34.9354 32.4215 34.9354 31.2673C34.9354 30.1837 35.061 29.2062 35.3123 28.3346C35.5635 27.4631 35.9169 26.6897 36.3723 26.0145C36.8277 25.3392 37.3733 24.7582 38.0093 24.2714C38.6532 23.7846 39.3638 23.3881 40.1411 23.0819C40.9262 22.7678 41.7664 22.5362 42.6615 22.387C43.5644 22.2378 44.5027 22.1632 45.4763 22.1632C46.4499 22.1632 47.3882 22.2378 48.2911 22.387C49.1941 22.5362 50.0381 22.7678 50.8233 23.0819C51.6085 23.3959 52.3191 23.7964 52.9551 24.2832C53.5989 24.77 54.1485 25.351 54.6039 26.0262C55.0593 26.7015 55.4126 27.4749 55.6639 28.3464C55.9151 29.2101 56.0408 30.1837 56.0408 31.2673C56.0408 32.9632 55.762 34.4197 55.2046 35.6367C54.6549 36.8459 53.9012 37.8352 52.9433 38.6047C51.9854 39.3741 50.8665 39.9238 49.5867 40.2535C48.3068 40.5755 46.9367 40.7364 45.4763 40.7364ZM45.4763 27.5455C44.9738 27.5455 44.5498 27.6123 44.2043 27.7458C43.8667 27.8714 43.584 28.0402 43.3563 28.2522C43.1365 28.4642 42.9677 28.7037 42.8499 28.9706C42.7321 29.2376 42.6418 29.5085 42.579 29.7833C42.5241 30.0581 42.4927 30.325 42.4848 30.5842C42.477 30.8433 42.473 31.071 42.473 31.2673C42.473 31.4635 42.477 31.6912 42.4848 31.9504C42.4927 32.2095 42.5241 32.4803 42.579 32.763C42.6418 33.0378 42.7321 33.3126 42.8499 33.5874C42.9677 33.8622 43.1365 34.1096 43.3563 34.3294C43.584 34.5414 43.8667 34.7142 44.2043 34.8476C44.5498 34.9811 44.9738 35.0478 45.4763 35.0478C45.9788 35.0478 46.3989 34.9811 46.7365 34.8476C47.082 34.7142 47.3686 34.5414 47.5963 34.3294C47.824 34.1096 47.9967 33.8622 48.1145 33.5874C48.2401 33.3126 48.3304 33.0378 48.3854 32.763C48.4403 32.4803 48.4717 32.2095 48.4796 31.9504C48.4953 31.6912 48.5031 31.4635 48.5031 31.2673C48.5031 31.071 48.4953 30.8433 48.4796 30.5842C48.4717 30.325 48.4403 30.0581 48.3854 29.7833C48.3304 29.5085 48.2401 29.2376 48.1145 28.9706C47.9967 28.7037 47.824 28.4642 47.5963 28.2522C47.3686 28.0402 47.082 27.8714 46.7365 27.7458C46.3989 27.6123 45.9788 27.5455 45.4763 27.5455ZM57.0777 31.2673C57.0777 29.6262 57.3132 28.2404 57.7843 27.1098C58.2633 25.9791 58.9424 25.0526 59.8218 24.3303C60.662 23.6393 61.6474 23.1054 62.778 22.7285C63.9087 22.3516 65.2081 22.1632 66.6764 22.1632C67.6892 22.1632 68.5883 22.2064 69.3734 22.2928C70.1586 22.3791 70.8574 22.493 71.4698 22.6343C72.0901 22.7756 72.6397 22.9366 73.1187 23.1172C73.6055 23.2978 74.057 23.4862 74.4731 23.6825V29.0648H70.9281C70.5276 28.4995 70.0801 28.0834 69.5854 27.8164C69.0986 27.5495 68.5961 27.416 68.0779 27.416C67.6382 27.416 67.2103 27.5024 66.7942 27.6751C66.3859 27.8478 66.0208 28.0991 65.6988 28.4289C65.3769 28.7586 65.1178 29.163 64.9215 29.642C64.7252 30.1131 64.6271 30.6548 64.6271 31.2673C64.6271 32.6256 64.9333 33.6188 65.5457 34.247C66.166 34.8751 67.0454 35.1892 68.1839 35.1892C68.4666 35.1892 68.7492 35.1735 69.0319 35.1421C69.3224 35.1107 69.6129 35.0636 69.9034 35.0007V33.5757H67.6421V30.3486H74.9678V38.9462C74.3475 39.2053 73.688 39.4527 72.9891 39.6882C72.2982 39.9159 71.6033 40.1161 70.9045 40.2889C70.2136 40.4537 69.5344 40.5676 68.867 40.6304C68.1996 40.7011 67.5832 40.7364 67.0179 40.7364C66.0914 40.7364 65.2042 40.6697 64.3562 40.5362C63.5082 40.4027 62.7152 40.1632 61.9771 39.8178C61.2469 39.4723 60.5795 39.0404 59.9749 38.5222C59.3704 37.9962 58.8522 37.3798 58.4203 36.6732C57.9963 35.9586 57.6665 35.1538 57.431 34.2588C57.1954 33.3558 57.0777 32.3586 57.0777 31.2673ZM76.3462 22.4341H86.8989V27.5455L85.3914 27.84V35.1185L86.8989 35.413V40.5244H76.3462V35.413L77.8538 35.1185V27.84L76.3462 27.5455V22.4341ZM94.8492 31.703V35.1185L96.3568 35.4012V40.5244H88.8191V35.413L90.3267 35.1185V27.84L88.8191 27.5455V22.4341H97.8643L103.894 31.703V27.8635L102.387 27.5455V22.4341H109.925V27.5455L108.417 27.84V35.1185L109.925 35.413V40.5244H100.868L94.8492 31.703Z" fill="white"/>
<path d="M29.105 36.0018H28.305C28.305 36.4437 28.6632 36.8018 29.105 36.8018V36.0018ZM30.165 35.8723L30.3677 36.6462C30.3734 36.6447 30.3791 36.6431 30.3848 36.6415L30.165 35.8723ZM31.8492 35.0361L31.3624 34.4011L31.3521 34.4093L31.8492 35.0361ZM32.4616 34.4943V33.6943C32.2433 33.6943 32.0344 33.7835 31.8835 33.9413L32.4616 34.4943ZM34.4285 34.4943H35.2285C35.2285 34.0525 34.8703 33.6943 34.4285 33.6943V34.4943ZM34.4285 40.5244V41.3244C34.8703 41.3244 35.2285 40.9662 35.2285 40.5244H34.4285ZM20.0599 40.5244H19.2599C19.2599 40.9662 19.618 41.3244 20.0599 41.3244V40.5244ZM20.0599 35.413L19.9065 34.6278C19.5309 34.7011 19.2599 35.0303 19.2599 35.413H20.0599ZM21.5674 35.1185L21.7207 35.9037C22.0963 35.8303 22.3674 35.5012 22.3674 35.1185H21.5674ZM21.5674 27.84H22.3674C22.3674 27.4573 22.0963 27.1282 21.7207 27.0548L21.5674 27.84ZM20.0599 27.5455H19.2599C19.2599 27.9282 19.5309 28.2573 19.9065 28.3307L20.0599 27.5455ZM20.0599 22.4341V21.6341C19.618 21.6341 19.2599 21.9923 19.2599 22.4341H20.0599ZM30.6126 22.4341H31.4126C31.4126 21.9923 31.0544 21.6341 30.6126 21.6341V22.4341ZM30.6126 27.5455L30.7659 28.3307C31.1415 28.2573 31.4126 27.9282 31.4126 27.5455H30.6126ZM29.105 27.84L28.9517 27.0548C28.5761 27.1282 28.305 27.4573 28.305 27.84H29.105ZM29.105 36.8018C29.5432 36.8018 29.9652 36.7516 30.3677 36.6462L29.9623 35.0984C29.7053 35.1657 29.4206 35.2018 29.105 35.2018V36.8018ZM30.3848 36.6415C30.7581 36.5348 31.111 36.3997 31.4414 36.2345L30.7259 34.8034C30.491 34.9208 30.2314 35.0213 29.9452 35.1031L30.3848 36.6415ZM31.4414 36.2345C31.7692 36.0706 32.0718 35.8806 32.3463 35.6629L31.3521 34.4093C31.1712 34.5527 30.9634 34.6846 30.7259 34.8034L31.4414 36.2345ZM32.3359 35.671C32.5982 35.4699 32.834 35.2624 33.0397 35.0473L31.8835 33.9413C31.7438 34.0874 31.5713 34.241 31.3625 34.4012L32.3359 35.671ZM32.4616 35.2943H34.4285V33.6943H32.4616V35.2943ZM33.6285 34.4943V40.5244H35.2285V34.4943H33.6285ZM34.4285 39.7244H20.0599V41.3244H34.4285V39.7244ZM20.8599 40.5244V35.413H19.2599V40.5244H20.8599ZM20.2132 36.1981L21.7207 35.9037L21.414 34.3334L19.9065 34.6278L20.2132 36.1981ZM22.3674 35.1185V27.84H20.7674V35.1185H22.3674ZM21.7207 27.0548L20.2132 26.7604L19.9065 28.3307L21.414 28.6251L21.7207 27.0548ZM20.8599 27.5455V22.4341H19.2599V27.5455H20.8599ZM20.0599 23.2341H30.6126V21.6341H20.0599V23.2341ZM29.8126 22.4341V27.5455H31.4126V22.4341H29.8126ZM30.4592 26.7604L28.9517 27.0548L29.2584 28.6251L30.7659 28.3307L30.4592 26.7604ZM28.305 27.84V36.0018H29.905V27.84H28.305ZM42.6968 40.5597L42.5915 41.3528L42.5924 41.3529L42.6968 40.5597ZM40.1882 39.9002L39.8821 40.6393L39.8847 40.6404L40.1882 39.9002ZM38.0564 38.6636L37.5595 39.2905L37.5642 39.2942L38.0564 38.6636ZM36.3958 36.838L35.7245 37.2733L35.7268 37.2766L36.3958 36.838ZM35.3123 34.3883L34.5401 34.5977L34.5423 34.6055L35.3123 34.3883ZM38.0093 24.2714L37.5268 23.6332L37.5231 23.6361L38.0093 24.2714ZM40.1411 23.0819L40.4343 23.8262L40.4382 23.8246L40.1411 23.0819ZM42.6615 22.387L42.5311 21.5977L42.5299 21.5979L42.6615 22.387ZM52.9551 24.2832L52.4688 24.9184L52.4726 24.9213L52.9551 24.2832ZM55.6639 28.3464L54.8952 28.568L54.8957 28.5699L55.6639 28.3464ZM55.2046 35.6367L54.4772 35.3036L54.4763 35.3057L55.2046 35.6367ZM49.5867 40.2535L49.7818 41.0294L49.7863 41.0282L49.5867 40.2535ZM44.2043 27.7458L44.4833 28.4956L44.4926 28.492L44.2043 27.7458ZM43.3563 28.2522L42.8111 27.6666L42.801 27.6763L43.3563 28.2522ZM42.579 29.7833L41.7991 29.605C41.7975 29.6121 41.796 29.6192 41.7946 29.6264L42.579 29.7833ZM42.579 32.763L41.7937 32.9157C41.7954 32.9242 41.7972 32.9328 41.7991 32.9413L42.579 32.763ZM43.3563 34.3294L42.7907 34.8951C42.7974 34.9018 42.8042 34.9084 42.8112 34.9149L43.3563 34.3294ZM44.2043 34.8476L43.9102 35.5916L43.916 35.5939L44.2043 34.8476ZM46.7365 34.8476L46.4482 34.1014L46.4424 34.1037L46.7365 34.8476ZM47.5963 34.3294L48.1414 34.9149C48.1449 34.9116 48.1485 34.9083 48.1519 34.9049L47.5963 34.3294ZM48.1145 33.5874L47.3869 33.2548C47.3842 33.2606 47.3817 33.2664 47.3792 33.2723L48.1145 33.5874ZM48.3854 32.763L49.1698 32.9199L49.1707 32.9157L48.3854 32.763ZM48.4796 31.9504L47.681 31.902C47.6806 31.91 47.6802 31.9181 47.6799 31.9261L48.4796 31.9504ZM48.4796 30.5842L47.6799 30.6084C47.6802 30.6164 47.6806 30.6245 47.681 30.6326L48.4796 30.5842ZM48.1145 28.9706L47.3825 29.2935C47.3852 29.2995 47.3879 29.3054 47.3906 29.3113L48.1145 28.9706ZM46.7365 27.7458L46.4424 28.4897C46.4492 28.4924 46.4562 28.4951 46.4631 28.4976L46.7365 27.7458ZM45.4763 39.9364C44.5512 39.9364 43.6596 39.8795 42.8012 39.7666L42.5924 41.3529C43.5242 41.4755 44.4856 41.5364 45.4763 41.5364V39.9364ZM42.8021 39.7667C41.9792 39.6575 41.2099 39.4545 40.4917 39.16L39.8847 40.6404C40.7368 40.9898 41.6399 41.2265 42.5915 41.3528L42.8021 39.7667ZM40.4943 39.1611C39.7816 38.8659 39.1339 38.4897 38.5487 38.0329L37.5642 39.2942C38.2666 39.8424 39.0401 40.2906 39.8821 40.6393L40.4943 39.1611ZM38.5534 38.0366C37.9785 37.5809 37.4825 37.0366 37.0649 36.3994L35.7268 37.2766C36.2356 38.0528 36.8467 38.7255 37.5595 39.2905L38.5534 38.0366ZM37.0671 36.4028C36.6524 35.7632 36.3222 35.0218 36.0822 34.1711L34.5423 34.6055C34.8206 35.5921 35.2127 36.4838 35.7245 37.2733L37.0671 36.4028ZM36.0844 34.1789C35.8549 33.3328 35.7354 32.3645 35.7354 31.2673H34.1354C34.1354 32.4784 34.2671 33.5908 34.5402 34.5977L36.0844 34.1789ZM35.7354 31.2673C35.7354 30.2446 35.854 29.3434 36.081 28.5562L34.5436 28.113C34.268 29.069 34.1354 30.1228 34.1354 31.2673H35.7354ZM36.081 28.5562C36.3117 27.756 36.6318 27.0604 37.0355 26.4618L35.709 25.5671C35.2019 26.319 34.8154 27.1702 34.5436 28.113L36.081 28.5562ZM37.0355 26.4618C37.4433 25.8571 37.9296 25.3399 38.4956 24.9066L37.5231 23.6361C36.8171 24.1765 36.212 24.8213 35.709 25.5671L37.0355 26.4618ZM38.4918 24.9095C39.0757 24.4681 39.7222 24.1067 40.4343 23.8262L39.8479 22.3375C39.0053 22.6694 38.2307 23.1011 37.5268 23.6333L38.4918 24.9095ZM40.4382 23.8246C41.1663 23.5334 41.9505 23.3165 42.793 23.1761L42.5299 21.5979C41.5823 21.7558 40.6862 22.0022 39.844 22.3391L40.4382 23.8246ZM42.7919 23.1763C43.6491 23.0346 44.5436 22.9632 45.4763 22.9632V21.3632C44.4618 21.3632 43.4797 21.4409 42.5311 21.5977L42.7919 23.1763ZM45.4763 22.9632C46.409 22.9632 47.3035 23.0346 48.1607 23.1763L48.4215 21.5977C47.4729 21.4409 46.4908 21.3632 45.4763 21.3632V22.9632ZM48.1607 23.1763C49.0112 23.3168 49.799 23.5337 50.5262 23.8246L51.1204 22.3391C50.2773 22.0018 49.3769 21.7555 48.4215 21.5977L48.1607 23.1763ZM50.5262 23.8246C51.2475 24.1132 51.8938 24.4783 52.4688 24.9184L53.4413 23.6479C52.7443 23.1144 51.9695 22.6787 51.1204 22.3391L50.5262 23.8246ZM52.4726 24.9213C53.0454 25.3544 53.5341 25.8708 53.9407 26.4736L55.2672 25.5789C54.7629 24.8312 54.1524 24.1855 53.4375 23.645L52.4726 24.9213ZM53.9407 26.4736C54.3444 27.0721 54.6645 27.7677 54.8952 28.568L56.4326 28.1248C56.1608 27.182 55.7743 26.3308 55.2672 25.5789L53.9407 26.4736ZM54.8957 28.5699C55.1221 29.3479 55.2408 30.2444 55.2408 31.2673H56.8408C56.8408 30.123 56.7082 29.0723 56.432 28.123L54.8957 28.5699ZM55.2408 31.2673C55.2408 32.8779 54.9758 34.2151 54.4772 35.3036L55.9319 35.9699C56.5482 34.6243 56.8408 33.0485 56.8408 31.2673H55.2408ZM54.4763 35.3057C53.9742 36.4103 53.2948 37.2962 52.4423 37.981L53.4443 39.2284C54.5076 38.3742 55.3357 37.2815 55.9329 35.9678L54.4763 35.3057ZM52.4423 37.981C51.5795 38.674 50.5653 39.1752 49.3871 39.4788L49.7863 41.0282C51.1677 40.6723 52.3912 40.0743 53.4443 39.2284L52.4423 37.981ZM49.3915 39.4777C48.1819 39.782 46.8778 39.9364 45.4763 39.9364V41.5364C46.9956 41.5364 48.4318 41.3689 49.7818 41.0294L49.3915 39.4777ZM45.4763 26.7455C44.9081 26.7455 44.3799 26.8203 43.916 26.9995L44.4926 28.492C44.7198 28.4043 45.0395 28.3455 45.4763 28.3455V26.7455ZM43.9253 26.996C43.5045 27.1526 43.1271 27.3725 42.8112 27.6667L43.9015 28.8377C44.0409 28.7079 44.2289 28.5902 44.4833 28.4955L43.9253 26.996ZM42.801 27.6763C42.51 27.957 42.2796 28.2814 42.118 28.6477L43.5818 29.2935C43.6558 29.126 43.763 28.9714 43.9117 28.8281L42.801 27.6763ZM42.118 28.6477C41.9804 28.9596 41.8737 29.2789 41.7991 29.605L43.3589 29.9615C43.41 29.7381 43.4839 29.5155 43.5818 29.2935L42.118 28.6477ZM41.7946 29.6264C41.7316 29.9414 41.6945 30.2528 41.6852 30.5599L43.2844 30.6084C43.2908 30.3973 43.3166 30.1748 43.3635 29.9402L41.7946 29.6264ZM41.6852 30.5599C41.6771 30.8247 41.673 31.0608 41.673 31.2673H43.273C43.273 31.0811 43.2768 30.8618 43.2844 30.6084L41.6852 30.5599ZM41.673 31.2673C41.673 31.4737 41.6771 31.7098 41.6852 31.9746L43.2844 31.9261C43.2768 31.6727 43.273 31.4534 43.273 31.2673H41.673ZM41.6852 31.9746C41.6945 32.2813 41.7314 32.5953 41.7937 32.9157L43.3643 32.6103C43.3167 32.3654 43.2908 32.1377 43.2844 31.9261L41.6852 31.9746ZM41.7991 32.9413C41.8733 33.2657 41.979 33.5862 42.1146 33.9026L43.5852 33.2723C43.4853 33.039 43.4104 32.8099 43.3589 32.5847L41.7991 32.9413ZM42.1146 33.9026C42.2741 34.2746 42.5018 34.6062 42.7907 34.8951L43.922 33.7637C43.7712 33.6129 43.6613 33.4498 43.5852 33.2723L42.1146 33.9026ZM42.8112 34.9149C43.1231 35.2053 43.495 35.4275 43.9102 35.5916L44.4985 34.1037C44.2384 34.0009 44.045 33.8775 43.9015 33.7439L42.8112 34.9149ZM43.916 35.5939C44.3799 35.7731 44.9081 35.8478 45.4763 35.8478V34.2478C45.0395 34.2478 44.7198 34.1891 44.4926 34.1014L43.916 35.5939ZM45.4763 35.8478C46.0435 35.8478 46.5709 35.7734 47.0306 35.5916L46.4424 34.1037C46.2269 34.1889 45.9141 34.2478 45.4763 34.2478V35.8478ZM47.0248 35.5939C47.4476 35.4305 47.8264 35.2082 48.1414 34.9149L47.0511 33.7439C46.9108 33.8746 46.7163 33.9978 46.4482 34.1014L47.0248 35.5939ZM48.1519 34.9049C48.4517 34.6155 48.6876 34.2809 48.8498 33.9026L47.3792 33.2723C47.3058 33.4436 47.1962 33.6036 47.0406 33.7539L48.1519 34.9049ZM48.8421 33.92C48.9914 33.5934 49.1018 33.2598 49.1698 32.9199L47.6009 32.6061C47.559 32.8158 47.4888 33.0318 47.3869 33.2548L48.8421 33.92ZM49.1707 32.9157C49.233 32.5953 49.2699 32.2813 49.2792 31.9746L47.6799 31.9261C47.6735 32.1377 47.6477 32.3654 47.6001 32.6103L49.1707 32.9157ZM49.2781 31.9987C49.2945 31.7283 49.3031 31.4839 49.3031 31.2673H47.7031C47.7031 31.4432 47.6961 31.6542 47.681 31.902L49.2781 31.9987ZM49.3031 31.2673C49.3031 31.0506 49.2945 30.8062 49.2781 30.5358L47.681 30.6326C47.6961 30.8803 47.7031 31.0913 47.7031 31.2673H49.3031ZM49.2792 30.5599C49.2699 30.2528 49.2328 29.9414 49.1698 29.6264L47.6009 29.9402C47.6478 30.1748 47.6736 30.3973 47.6799 30.6084L49.2792 30.5599ZM49.1698 29.6264C49.1015 29.2848 48.9901 28.9524 48.8383 28.63L47.3906 29.3113C47.4901 29.5227 47.5593 29.7321 47.6009 29.9402L49.1698 29.6264ZM48.8464 28.6477C48.682 28.275 48.4432 27.9477 48.1414 27.6667L47.0511 28.8377C47.2047 28.9807 47.3114 29.1323 47.3825 29.2935L48.8464 28.6477ZM48.1414 27.6667C47.8223 27.3696 47.4382 27.1497 47.0099 26.9939L46.4631 28.4976C46.7258 28.5931 46.9149 28.7108 47.0511 28.8377L48.1414 27.6667ZM47.0306 27.0018C46.5709 26.82 46.0435 26.7455 45.4763 26.7455V28.3455C45.9141 28.3455 46.2269 28.4045 46.4424 28.4897L47.0306 27.0018ZM57.7843 27.1098L57.0477 26.7977L57.0459 26.8021L57.7843 27.1098ZM59.8218 24.3303L60.3296 24.9485L60.33 24.9481L59.8218 24.3303ZM71.4698 22.6343L71.29 23.4138L71.2921 23.4143L71.4698 22.6343ZM73.1187 23.1172L72.8365 23.8658L72.8405 23.8672L73.1187 23.1172ZM74.4731 23.6825H75.2731C75.2731 23.3729 75.0945 23.0911 74.8144 22.959L74.4731 23.6825ZM74.4731 29.0648V29.8648C74.9149 29.8648 75.2731 29.5067 75.2731 29.0648H74.4731ZM70.9281 29.0648L70.2753 29.5273C70.4252 29.739 70.6686 29.8648 70.9281 29.8648V29.0648ZM69.5854 27.8164L69.2008 28.5179L69.2055 28.5204L69.5854 27.8164ZM66.7942 27.6751L66.4874 26.9362L66.4824 26.9383L66.7942 27.6751ZM64.9215 29.642L65.66 29.9496L65.6618 29.9453L64.9215 29.642ZM65.5457 34.247L64.9729 34.8055L64.9765 34.8091L65.5457 34.247ZM69.0319 35.1421L68.9459 34.3467L68.9435 34.347L69.0319 35.1421ZM69.9034 35.0007L70.0725 35.7827C70.4407 35.7031 70.7034 35.3774 70.7034 35.0007H69.9034ZM69.9034 33.5757H70.7034C70.7034 33.1338 70.3453 32.7757 69.9034 32.7757V33.5757ZM67.6421 33.5757H66.8421C66.8421 34.0175 67.2003 34.3757 67.6421 34.3757V33.5757ZM67.6421 30.3486V29.5486C67.2003 29.5486 66.8421 29.9068 66.8421 30.3486H67.6421ZM74.9678 30.3486H75.7678C75.7678 29.9068 75.4096 29.5486 74.9678 29.5486V30.3486ZM74.9678 38.9462L75.2761 39.6844C75.5739 39.56 75.7678 39.2689 75.7678 38.9462H74.9678ZM72.9891 39.6882L73.2395 40.448L73.2447 40.4463L72.9891 39.6882ZM70.9045 40.2889L71.0902 41.067L71.0965 41.0655L70.9045 40.2889ZM68.867 40.6304L68.792 39.8339L68.7828 39.8349L68.867 40.6304ZM61.9771 39.8178L61.635 40.5409L61.638 40.5423L61.9771 39.8178ZM59.9749 38.5222L59.4498 39.1258L59.4543 39.1296L59.9749 38.5222ZM58.4203 36.6732L57.7323 37.0814L57.7377 37.0903L58.4203 36.6732ZM57.431 34.2588L56.6569 34.4607L56.6573 34.4623L57.431 34.2588ZM57.8777 31.2673C57.8777 29.698 58.1036 28.4236 58.5228 27.4175L57.0459 26.8021C56.5229 28.0573 56.2777 29.5545 56.2777 31.2673H57.8777ZM58.521 27.4218C58.9536 26.4006 59.5579 25.5824 60.3296 24.9485L59.314 23.7121C58.327 24.5229 57.573 25.5577 57.0477 26.7977L58.521 27.4218ZM60.33 24.9481C61.0875 24.3252 61.9844 23.8363 63.031 23.4875L62.525 21.9696C61.3103 22.3745 60.2364 22.9535 59.3137 23.7124L60.33 24.9481ZM63.031 23.4875C64.0637 23.1432 65.2749 22.9632 66.6764 22.9632V21.3632C65.1413 21.3632 63.7536 21.56 62.525 21.9696L63.031 23.4875ZM66.6764 22.9632C67.6677 22.9632 68.5366 23.0055 69.286 23.088L69.4609 21.4976C68.6399 21.4072 67.7108 21.3632 66.6764 21.3632V22.9632ZM69.286 23.088C70.0475 23.1717 70.7146 23.281 71.29 23.4138L71.6497 21.8548C71.0003 21.7049 70.2697 21.5865 69.4609 21.4976L69.286 23.088ZM71.2921 23.4143C71.885 23.5494 72.3986 23.7006 72.8365 23.8657L73.4009 22.3686C72.8809 22.1725 72.2952 22.0019 71.6476 21.8543L71.2921 23.4143ZM72.8405 23.8672C73.3085 24.0409 73.7387 24.2206 74.1318 24.4061L74.8144 22.959C74.3752 22.7518 73.9025 22.5547 73.3969 22.3671L72.8405 23.8672ZM73.6731 23.6825V29.0648H75.2731V23.6825H73.6731ZM74.4731 28.2649H70.9281V29.8648H74.4731V28.2649ZM71.5809 28.6024C71.1255 27.9596 70.5906 27.4498 69.9654 27.1124L69.2055 28.5204C69.5696 28.7169 69.9298 29.0395 70.2753 29.5273L71.5809 28.6024ZM69.9701 27.115C69.3741 26.7881 68.7401 26.616 68.0779 26.616V28.216C68.4521 28.216 68.8232 28.3108 69.2008 28.5179L69.9701 27.115ZM68.0779 26.616C67.5303 26.616 66.9983 26.7242 66.4874 26.9362L67.1009 28.414C67.4222 28.2806 67.7461 28.216 68.0779 28.216V26.616ZM66.4824 26.9383C65.9724 27.1541 65.5195 27.4673 65.1264 27.87L66.2713 28.9877C66.522 28.7309 66.7993 28.5416 67.1059 28.4119L66.4824 26.9383ZM65.1264 27.87C64.7243 28.2819 64.4118 28.7762 64.1813 29.3386L65.6618 29.9453C65.8239 29.5498 66.0295 29.2354 66.2713 28.9877L65.1264 27.87ZM64.1831 29.3343C63.9389 29.9203 63.8271 30.5699 63.8271 31.2673H65.4271C65.4271 30.7398 65.5116 30.3058 65.66 29.9496L64.1831 29.3343ZM63.8271 31.2673C63.8271 32.7231 64.1523 33.9637 64.9729 34.8055L66.1185 33.6885C65.7143 33.2739 65.4271 32.5281 65.4271 31.2673H63.8271ZM64.9765 34.8091C65.7873 35.6301 66.8964 35.9892 68.1839 35.9892V34.3892C67.1944 34.3892 66.5448 34.1201 66.115 33.6849L64.9765 34.8091ZM68.1839 35.9892C68.4963 35.9892 68.8084 35.9718 69.1202 35.9372L68.9435 34.347C68.69 34.3751 68.4369 34.3892 68.1839 34.3892V35.9892ZM69.1179 35.9374C69.4368 35.903 69.755 35.8513 70.0725 35.7827L69.7344 34.2188C69.4708 34.2758 69.208 34.3184 68.9459 34.3467L69.1179 35.9374ZM70.7034 35.0007V33.5757H69.1034V35.0007H70.7034ZM69.9034 32.7757H67.6421V34.3757H69.9034V32.7757ZM68.4421 33.5757V30.3486H66.8421V33.5757H68.4421ZM67.6421 31.1486H74.9678V29.5486H67.6421V31.1486ZM74.1678 30.3486V38.9462H75.7678V30.3486H74.1678ZM74.6594 38.208C74.0581 38.4592 73.4163 38.7 72.7336 38.9301L73.2447 40.4463C73.9596 40.2053 74.6369 39.9514 75.2761 39.6844L74.6594 38.208ZM72.7388 38.9284C72.0669 39.1498 71.3915 39.3444 70.7125 39.5122L71.0965 41.0655C71.8152 40.8878 72.5295 40.682 73.2395 40.448L72.7388 38.9284ZM70.7188 39.5107C70.0622 39.6674 69.42 39.7748 68.792 39.8339L68.942 41.4269C69.6488 41.3604 70.365 41.2401 71.0902 41.067L70.7188 39.5107ZM68.7828 39.8349C68.1384 39.9031 67.5505 39.9364 67.0179 39.9364V41.5364C67.616 41.5364 68.2609 41.4991 68.9512 41.426L68.7828 39.8349ZM67.0179 39.9364C66.1298 39.9364 65.2843 39.8724 64.4806 39.7459L64.2318 41.3265C65.124 41.4669 66.053 41.5364 67.0179 41.5364V39.9364ZM64.4806 39.7459C63.703 39.6235 62.9827 39.4051 62.3163 39.0932L61.638 40.5423C62.4477 40.9213 63.3135 41.1819 64.2318 41.3265L64.4806 39.7459ZM62.3193 39.0946C61.6525 38.7792 61.0453 38.386 60.4956 37.9148L59.4543 39.1296C60.1138 39.6949 60.8413 40.1654 61.635 40.5409L62.3193 39.0946ZM60.5001 37.9187C59.9593 37.4481 59.4936 36.8952 59.1029 36.256L57.7377 37.0903C58.2108 37.8644 58.7815 38.5442 59.4498 39.1257L60.5001 37.9187ZM59.1083 36.2649C58.7263 35.6211 58.4234 34.8865 58.2047 34.0552L56.6573 34.4623C56.9097 35.4212 57.2664 36.2962 57.7323 37.0814L59.1083 36.2649ZM58.2051 34.0568C57.9894 33.2298 57.8777 32.3017 57.8777 31.2673H56.2777C56.2777 32.4156 56.4015 33.4818 56.6569 34.4607L58.2051 34.0568ZM76.3462 22.4341V21.6341C75.9044 21.6341 75.5462 21.9923 75.5462 22.4341H76.3462ZM86.8989 22.4341H87.6989C87.6989 21.9923 87.3407 21.6341 86.8989 21.6341V22.4341ZM86.8989 27.5455L87.0523 28.3307C87.4279 28.2573 87.6989 27.9282 87.6989 27.5455H86.8989ZM85.3914 27.84L85.238 27.0548C84.8624 27.1282 84.5914 27.4573 84.5914 27.84H85.3914ZM85.3914 35.1185H84.5914C84.5914 35.5012 84.8624 35.8303 85.238 35.9037L85.3914 35.1185ZM86.8989 35.413H87.6989C87.6989 35.0303 87.4279 34.7011 87.0523 34.6278L86.8989 35.413ZM86.8989 40.5244V41.3244C87.3407 41.3244 87.6989 40.9662 87.6989 40.5244H86.8989ZM76.3462 40.5244H75.5462C75.5462 40.9662 75.9044 41.3244 76.3462 41.3244V40.5244ZM76.3462 35.413L76.1929 34.6278C75.8173 34.7011 75.5462 35.0303 75.5462 35.413H76.3462ZM77.8538 35.1185L78.0071 35.9037C78.3827 35.8303 78.6538 35.5012 78.6538 35.1185H77.8538ZM77.8538 27.84H78.6538C78.6538 27.4573 78.3827 27.1282 78.0071 27.0548L77.8538 27.84ZM76.3462 27.5455H75.5462C75.5462 27.9282 75.8173 28.2573 76.1929 28.3307L76.3462 27.5455ZM76.3462 23.2341H86.8989V21.6341H76.3462V23.2341ZM86.0989 22.4341V27.5455H87.6989V22.4341H86.0989ZM86.7456 26.7604L85.238 27.0548L85.5447 28.6251L87.0523 28.3307L86.7456 26.7604ZM84.5914 27.84V35.1185H86.1914V27.84H84.5914ZM85.238 35.9037L86.7456 36.1981L87.0523 34.6278L85.5447 34.3334L85.238 35.9037ZM86.0989 35.413V40.5244H87.6989V35.413H86.0989ZM86.8989 39.7244H76.3462V41.3244H86.8989V39.7244ZM77.1462 40.5244V35.413H75.5462V40.5244H77.1462ZM76.4996 36.1981L78.0071 35.9037L77.7004 34.3334L76.1929 34.6278L76.4996 36.1981ZM78.6538 35.1185V27.84H77.0538V35.1185H78.6538ZM78.0071 27.0548L76.4996 26.7604L76.1929 28.3307L77.7004 28.6251L78.0071 27.0548ZM77.1462 27.5455V22.4341H75.5462V27.5455H77.1462ZM94.8492 31.703L95.5101 31.2522C95.3123 30.9623 94.9487 30.8351 94.6133 30.9386C94.278 31.0421 94.0492 31.3521 94.0492 31.703H94.8492ZM94.8492 35.1185H94.0492C94.0492 35.5035 94.3234 35.8339 94.7018 35.9048L94.8492 35.1185ZM96.3568 35.4012H97.1568C97.1568 35.0162 96.8826 34.6858 96.5042 34.6149L96.3568 35.4012ZM96.3568 40.5244V41.3244C96.7986 41.3244 97.1568 40.9662 97.1568 40.5244H96.3568ZM88.8191 40.5244H88.0191C88.0191 40.9662 88.3773 41.3244 88.8191 41.3244V40.5244ZM88.8191 35.413L88.6658 34.6278C88.2902 34.7011 88.0191 35.0303 88.0191 35.413H88.8191ZM90.3267 35.1185L90.48 35.9037C90.8556 35.8303 91.1267 35.5012 91.1267 35.1185H90.3267ZM90.3267 27.84H91.1267C91.1267 27.4573 90.8556 27.1282 90.48 27.0548L90.3267 27.84ZM88.8191 27.5455H88.0191C88.0191 27.9282 88.2902 28.2573 88.6658 28.3307L88.8191 27.5455ZM88.8191 22.4341V21.6341C88.3773 21.6341 88.0191 21.9923 88.0191 22.4341H88.8191ZM97.8643 22.4341L98.5349 21.9978C98.3873 21.7709 98.135 21.6341 97.8643 21.6341V22.4341ZM103.894 31.703L103.224 32.1393C103.417 32.4362 103.782 32.5707 104.122 32.47C104.462 32.3692 104.694 32.0572 104.694 31.703H103.894ZM103.894 27.8635H104.694C104.694 27.4853 104.43 27.1588 104.06 27.0808L103.894 27.8635ZM102.387 27.5455H101.587C101.587 27.9237 101.852 28.2503 102.222 28.3283L102.387 27.5455ZM102.387 22.4341V21.6341C101.945 21.6341 101.587 21.9923 101.587 22.4341H102.387ZM109.925 22.4341H110.725C110.725 21.9923 110.366 21.6341 109.925 21.6341V22.4341ZM109.925 27.5455L110.078 28.3307C110.453 28.2573 110.725 27.9282 110.725 27.5455H109.925ZM108.417 27.84L108.264 27.0548C107.888 27.1282 107.617 27.4573 107.617 27.84H108.417ZM108.417 35.1185H107.617C107.617 35.5012 107.888 35.8303 108.264 35.9037L108.417 35.1185ZM109.925 35.413H110.725C110.725 35.0303 110.453 34.7011 110.078 34.6278L109.925 35.413ZM109.925 40.5244V41.3244C110.366 41.3244 110.725 40.9662 110.725 40.5244H109.925ZM100.868 40.5244L100.207 40.9753C100.356 41.1937 100.603 41.3244 100.868 41.3244V40.5244ZM94.0492 31.703V35.1185H95.6492V31.703H94.0492ZM94.7018 35.9048L96.2093 36.1875L96.5042 34.6149L94.9967 34.3322L94.7018 35.9048ZM95.5568 35.4012V40.5244H97.1568V35.4012H95.5568ZM96.3568 39.7244H88.8191V41.3244H96.3568V39.7244ZM89.6191 40.5244V35.413H88.0191V40.5244H89.6191ZM88.9725 36.1981L90.48 35.9037L90.1733 34.3334L88.6658 34.6278L88.9725 36.1981ZM91.1267 35.1185V27.84H89.5267V35.1185H91.1267ZM90.48 27.0548L88.9725 26.7604L88.6658 28.3307L90.1733 28.6251L90.48 27.0548ZM89.6191 27.5455V22.4341H88.0191V27.5455H89.6191ZM88.8191 23.2341H97.8643V21.6341H88.8191V23.2341ZM97.1937 22.8703L103.224 32.1393L104.565 31.2668L98.5349 21.9978L97.1937 22.8703ZM104.694 31.703V27.8635H103.094V31.703H104.694ZM104.06 27.0808L102.552 26.7628L102.222 28.3283L103.729 28.6463L104.06 27.0808ZM103.187 27.5455V22.4341H101.587V27.5455H103.187ZM102.387 23.2341H109.925V21.6341H102.387V23.2341ZM109.125 22.4341V27.5455H110.725V22.4341H109.125ZM109.771 26.7604L108.264 27.0548L108.57 28.6251L110.078 28.3307L109.771 26.7604ZM107.617 27.84V35.1185H109.217V27.84H107.617ZM108.264 35.9037L109.771 36.1981L110.078 34.6278L108.57 34.3334L108.264 35.9037ZM109.125 35.413V40.5244H110.725V35.413H109.125ZM109.925 39.7244H100.868V41.3244H109.925V39.7244ZM101.528 40.0736L95.5101 31.2522L94.1884 32.1539L100.207 40.9753L101.528 40.0736Z" fill="black"/>
</svg>
