<svg width="148" height="78" viewBox="0 0 148 78" fill="none" xmlns="http://www.w3.org/2000/svg">
<rect x="10.2227" y="13.3408" width="134.925" height="62.6274" rx="6.04" fill="#004E98" stroke="black" stroke-width="4"/>
<rect x="2" y="2" width="134.925" height="62.6274" rx="6.04" fill="#EFEFEF" stroke="black" stroke-width="4"/>
<path d="M26.6818 33.7534V41.0117H19.249V36.806L20.4895 36.5637V30.5749L19.249 30.3326V26.1269H26.6818L29.8022 31.8444L32.8935 26.1269H40.3359V30.3326L39.0955 30.5749V36.5637L40.3359 36.806V41.0117H32.8935V33.7534L29.8022 39.1027L26.6818 33.7534ZM45.6565 41.0117V36.8254L46.8969 36.5153L42.6427 30.5652L41.0728 30.3326V26.1269H49.3486V30.3326L48.3795 30.5652L50.3468 33.6081L52.314 30.5652L51.3449 30.3326V26.1269H59.611V30.3326L58.0508 30.5652L53.7966 36.5153L55.037 36.8254V41.0117H45.6565ZM67.8 32.4936L70.4359 31.8637V35.2942L67.8 34.6643V36.5637L69.0404 36.8447V41.0117H60.3576V36.806L61.598 36.5637V30.5943L60.3576 30.352V26.1269H72.3449V31.0885H70.7169C70.5618 30.9464 70.3842 30.801 70.1839 30.6524C69.9901 30.5038 69.7704 30.3714 69.5249 30.2551C69.2859 30.1323 69.021 30.0354 68.7303 29.9644C68.4461 29.8868 68.1359 29.8481 67.8 29.8481V32.4936ZM80.7374 37.2905C81.1767 37.2905 81.5902 37.255 81.9778 37.1839C82.3654 37.1064 82.7208 37.0095 83.0438 36.8932C83.3733 36.7769 83.6705 36.6445 83.9353 36.4959C84.2002 36.3473 84.4328 36.1987 84.6331 36.0501H86.2514V41.0117H73.295V36.806L74.5354 36.5637V30.5943L73.295 30.352V26.1269H86.2514V31.0885H84.6912C84.4845 30.9464 84.2454 30.801 83.9741 30.6524C83.7028 30.5038 83.3991 30.3714 83.0632 30.2551C82.7337 30.1323 82.3751 30.0354 81.9875 29.9644C81.5999 29.8868 81.1832 29.8481 80.7374 29.8481V32.4936L83.6446 31.8637V35.2942L80.7374 34.6643V37.2905ZM94.8183 37.2905C95.2576 37.2905 95.6711 37.255 96.0587 37.1839C96.4464 37.1064 96.8017 37.0095 97.1247 36.8932C97.4542 36.7769 97.7514 36.6445 98.0163 36.4959C98.2811 36.3473 98.5137 36.1987 98.714 36.0501H100.332V41.0117H87.3759V36.806L88.6163 36.5637V30.5943L87.3759 30.352V26.1269H100.332V31.0885H98.7721C98.5654 30.9464 98.3264 30.801 98.055 30.6524C97.7837 30.5038 97.48 30.3714 97.1441 30.2551C96.8146 30.1323 96.4561 30.0354 96.0684 29.9644C95.6808 29.8868 95.2641 29.8481 94.8183 29.8481V32.4936L97.7255 31.8637V35.2942L94.8183 34.6643V37.2905ZM112.717 26.1269C113.654 26.3271 114.497 26.6179 115.247 26.999C115.996 27.3737 116.632 27.855 117.156 28.4429C117.685 29.0308 118.089 29.735 118.367 30.5555C118.651 31.3695 118.793 32.316 118.793 33.3949C118.793 34.8226 118.554 36.0243 118.076 36.9998C117.598 37.9689 116.923 38.7506 116.051 39.3449C115.185 39.9393 114.142 40.3657 112.921 40.6241C111.7 40.8825 110.35 41.0117 108.87 41.0117H101.428V36.806L102.668 36.5637V30.2163L101.428 29.9741V26.1269H112.717ZM109.82 36.5637C110.511 36.5637 111.044 36.4894 111.419 36.3408C111.794 36.1858 112.065 35.9693 112.233 35.6915C112.407 35.4138 112.507 35.081 112.533 34.6934C112.566 34.3058 112.582 33.8729 112.582 33.3949C112.582 32.9168 112.566 32.4839 112.533 32.0963C112.507 31.7022 112.407 31.3663 112.233 31.0885C112.065 30.8107 111.794 30.5975 111.419 30.4489C111.044 30.2939 110.511 30.2163 109.82 30.2163H108.87V36.5637H109.82Z" fill="#004E98"/>
</svg>
