<svg width="148" height="78" viewBox="0 0 148 78" fill="none" xmlns="http://www.w3.org/2000/svg">
<rect x="10.2227" y="13.3408" width="134.925" height="62.6274" rx="6.04" fill="#004E98" stroke="black" stroke-width="4"/>
<rect x="2" y="2" width="134.925" height="62.6274" rx="6.04" fill="#EFEFEF" stroke="black" stroke-width="4"/>
<path d="M25.0912 33.7534V41.0117H17.6585V36.806L18.8989 36.5637V30.5749L17.6585 30.3326V26.1269H25.0912L28.2116 31.8444L31.303 26.1269H38.7454V30.3326L37.505 30.5749V36.5637L38.7454 36.806V41.0117H31.303V33.7534L28.2116 39.1027L25.0912 33.7534ZM44.0659 41.0117V36.8254L45.3063 36.5153L41.0521 30.5652L39.4823 30.3326V26.1269H47.7581V30.3326L46.789 30.5652L48.7562 33.6081L50.7234 30.5652L49.7543 30.3326V26.1269H58.0205V30.3326L56.4603 30.5652L52.2061 36.5153L53.4465 36.8254V41.0117H44.0659ZM58.767 26.1269H67.2076C68.3059 26.1269 69.2588 26.1786 70.0663 26.2819C70.8739 26.3788 71.5619 26.521 72.1305 26.7083C72.699 26.8957 73.1609 27.125 73.5162 27.3963C73.878 27.6677 74.159 27.9713 74.3593 28.3073C74.566 28.6432 74.7049 29.0115 74.776 29.412C74.8535 29.8126 74.8923 30.2389 74.8923 30.6912C74.8923 31.1563 74.8471 31.5924 74.7566 31.9994C74.6726 32.4064 74.5144 32.7811 74.2818 33.1235C74.0492 33.4595 73.7262 33.7631 73.3127 34.0344C72.9057 34.3058 72.3792 34.5351 71.7331 34.7225C71.0936 34.9034 70.3183 35.0455 69.4074 35.1489C68.5029 35.2458 67.437 35.2942 66.2095 35.2942V36.5637L67.4499 36.806V41.0117H58.767V36.806L60.0074 36.5637V30.5749L58.767 30.3326V26.1269ZM66.2095 32.6293C66.5842 32.6293 66.9233 32.6099 67.227 32.5712C67.5371 32.5324 67.7987 32.4516 68.0119 32.3289C68.2316 32.1997 68.3996 32.0156 68.5158 31.7765C68.6321 31.5375 68.6903 31.2145 68.6903 30.8075C68.6903 30.4134 68.6321 30.1 68.5158 29.8675C68.3996 29.6284 68.2316 29.4475 68.0119 29.3248C67.7987 29.202 67.5371 29.1213 67.227 29.0825C66.9233 29.0438 66.5842 29.0244 66.2095 29.0244V32.6293ZM84.7772 41.0117L84.2539 38.5115H80.2032L79.6896 41.0117H74.1756V36.1276L75.3675 35.8854L78.2263 26.1269H86.2308L89.0992 35.8854L90.2911 36.1276V41.0117H84.7772ZM81.0366 35.1876H83.4205L82.2285 29.5767L81.0366 35.1876ZM90.873 33.3949C90.873 32.0446 91.0668 30.9044 91.4544 29.9741C91.8485 29.0438 92.4073 28.2814 93.1309 27.6871C93.8222 27.1185 94.6329 26.6792 95.5632 26.3691C96.4935 26.059 97.5627 25.904 98.7708 25.904C99.6042 25.904 100.344 25.9395 100.99 26.0106C101.636 26.0816 102.211 26.1753 102.715 26.2916C103.225 26.4079 103.678 26.5403 104.072 26.6889C104.472 26.8375 104.844 26.9926 105.186 27.1541V31.5827H102.269C101.94 31.1176 101.571 30.7752 101.164 30.5555C100.764 30.3358 100.35 30.226 99.924 30.226C99.5623 30.226 99.2102 30.2971 98.8678 30.4392C98.5318 30.5813 98.2314 30.7881 97.9665 31.0594C97.7016 31.3308 97.4885 31.6635 97.3269 32.0576C97.1654 32.4452 97.0847 32.8909 97.0847 33.3949C97.0847 34.5125 97.3366 35.3298 97.8405 35.8466C98.3509 36.3634 99.0745 36.6219 100.011 36.6219C100.244 36.6219 100.476 36.6089 100.709 36.5831C100.948 36.5572 101.187 36.5185 101.426 36.4668V35.2942H99.5655V32.639H105.593V39.7132C105.083 39.9264 104.54 40.1299 103.965 40.3237C103.397 40.511 102.825 40.6758 102.25 40.8179C101.681 40.9536 101.122 41.0473 100.573 41.0989C100.024 41.1571 99.517 41.1862 99.0519 41.1862C98.2895 41.1862 97.5595 41.1312 96.8618 41.0214C96.1641 40.9116 95.5116 40.7145 94.9043 40.4303C94.3035 40.146 93.7543 39.7907 93.2569 39.3643C92.7594 38.9315 92.333 38.4243 91.9777 37.8429C91.6288 37.255 91.3575 36.5928 91.1637 35.8563C90.9699 35.1133 90.873 34.2929 90.873 33.3949ZM114.17 37.2905C114.609 37.2905 115.022 37.255 115.41 37.1839C115.798 37.1064 116.153 37.0095 116.476 36.8932C116.806 36.7769 117.103 36.6445 117.368 36.4959C117.632 36.3473 117.865 36.1987 118.065 36.0501H119.684V41.0117H106.727V36.806L107.968 36.5637V30.5943L106.727 30.352V26.1269H119.684V31.0885H118.123C117.917 30.9464 117.678 30.801 117.406 30.6524C117.135 30.5038 116.831 30.3714 116.495 30.2551C116.166 30.1323 115.807 30.0354 115.42 29.9644C115.032 29.8868 114.615 29.8481 114.17 29.8481V32.4936L117.077 31.8637V35.2942L114.17 34.6643V37.2905Z" fill="#004E98"/>
</svg>
