<svg width="141" height="75" viewBox="0 0 141 75" fill="none" xmlns="http://www.w3.org/2000/svg">
<rect x="11.3789" y="13.5244" width="127.322" height="58.9811" rx="6.04015" fill="#004E98" stroke="black" stroke-width="4"/>
<rect x="2" y="2" width="127.322" height="58.9811" rx="6.04015" fill="#A6A6A6" stroke="black" stroke-width="4"/>
<path d="M19.4333 22.4341H29.986V27.5691L28.4785 27.8635V30.0895H34.5086V27.8635L33.001 27.5691V22.4341H43.5537V27.5691L42.0462 27.8635V35.1185L43.5537 35.413V40.5244H33.001V35.413L34.5086 35.1185V32.7512H28.4785V35.1185L29.986 35.413V40.5244H19.4333V35.413L20.9408 35.1185V27.8635L19.4333 27.5691V22.4341ZM55.4024 40.7364C54.4445 40.7364 53.518 40.6775 52.6229 40.5597C51.7357 40.442 50.8995 40.2221 50.1143 39.9002C49.337 39.5783 48.6264 39.1661 47.9826 38.6636C47.3387 38.1532 46.7852 37.5447 46.3219 36.838C45.8587 36.1235 45.4975 35.307 45.2384 34.3883C44.9871 33.4618 44.8615 32.4215 44.8615 31.2673C44.8615 30.1837 44.9871 29.2062 45.2384 28.3346C45.4897 27.4631 45.843 26.6897 46.2984 26.0145C46.7538 25.3392 47.2995 24.7582 47.9355 24.2714C48.5793 23.7846 49.2899 23.3881 50.0672 23.0819C50.8524 22.7678 51.6925 22.5362 52.5876 22.387C53.4905 22.2378 54.4288 22.1632 55.4024 22.1632C56.376 22.1632 57.3143 22.2378 58.2173 22.387C59.1202 22.5362 59.9643 22.7678 60.7494 23.0819C61.5346 23.3959 62.2452 23.7964 62.8812 24.2832C63.525 24.77 64.0746 25.351 64.53 26.0262C64.9854 26.7015 65.3388 27.4749 65.59 28.3464C65.8413 29.2101 65.9669 30.1837 65.9669 31.2673C65.9669 32.9632 65.6882 34.4197 65.1307 35.6367C64.5811 36.8459 63.8273 37.8352 62.8694 38.6047C61.9115 39.3741 60.7926 39.9238 59.5128 40.2535C58.233 40.5755 56.8629 40.7364 55.4024 40.7364ZM55.4024 27.5455C54.8999 27.5455 54.4759 27.6123 54.1305 27.7458C53.7928 27.8714 53.5102 28.0402 53.2825 28.2522C53.0626 28.4642 52.8938 28.7037 52.776 28.9706C52.6583 29.2376 52.568 29.5085 52.5052 29.7833C52.4502 30.0581 52.4188 30.325 52.4109 30.5842C52.4031 30.8433 52.3992 31.071 52.3992 31.2673C52.3992 31.4635 52.4031 31.6912 52.4109 31.9504C52.4188 32.2095 52.4502 32.4803 52.5052 32.763C52.568 33.0378 52.6583 33.3126 52.776 33.5874C52.8938 33.8622 53.0626 34.1096 53.2825 34.3294C53.5102 34.5414 53.7928 34.7142 54.1305 34.8476C54.4759 34.9811 54.8999 35.0478 55.4024 35.0478C55.9049 35.0478 56.325 34.9811 56.6626 34.8476C57.0081 34.7142 57.2947 34.5414 57.5224 34.3294C57.7501 34.1096 57.9228 33.8622 58.0406 33.5874C58.1662 33.3126 58.2565 33.0378 58.3115 32.763C58.3665 32.4803 58.3979 32.2095 58.4057 31.9504C58.4214 31.6912 58.4293 31.4635 58.4293 31.2673C58.4293 31.071 58.4214 30.8433 58.4057 30.5842C58.3979 30.325 58.3665 30.0581 58.3115 29.7833C58.2565 29.5085 58.1662 29.2376 58.0406 28.9706C57.9228 28.7037 57.7501 28.4642 57.5224 28.2522C57.2947 28.0402 57.0081 27.8714 56.6626 27.7458C56.325 27.6123 55.9049 27.5455 55.4024 27.5455ZM76.3081 31.703V40.5244H67.2747V35.413L68.7822 35.1185V27.84L67.2747 27.5455V22.4341H76.3081L80.1004 29.3828L83.8575 22.4341H92.9027V27.5455L91.3951 27.84V35.1185L92.9027 35.413V40.5244H83.8575V31.703L80.1004 38.2042L76.3081 31.703ZM103.868 36.0018C104.402 36.0018 104.904 35.9586 105.376 35.8723C105.847 35.7781 106.279 35.6603 106.671 35.519C107.072 35.3776 107.433 35.2167 107.755 35.0361C108.077 34.8555 108.359 34.6749 108.603 34.4943H110.569V40.5244H94.8229V35.413L96.3304 35.1185V27.8635L94.8229 27.5691V22.4341H110.569V28.4642H108.673C108.422 28.2915 108.132 28.1148 107.802 27.9342C107.472 27.7536 107.103 27.5927 106.695 27.4513C106.294 27.3021 105.858 27.1844 105.387 27.098C104.916 27.0038 104.41 26.9567 103.868 26.9567V30.1719L107.401 29.4064V33.5757L103.868 32.8101V36.0018Z" fill="white"/>
<path d="M19.4333 22.4341V21.6341C18.9915 21.6341 18.6333 21.9923 18.6333 22.4341H19.4333ZM29.986 22.4341H30.786C30.786 21.9923 30.4278 21.6341 29.986 21.6341V22.4341ZM29.986 27.5691L30.1393 28.3543C30.515 28.2809 30.786 27.9518 30.786 27.5691H29.986ZM28.4785 27.8635L28.3251 27.0784C27.9495 27.1517 27.6785 27.4808 27.6785 27.8635H28.4785ZM28.4785 30.0895H27.6785C27.6785 30.5313 28.0366 30.8895 28.4785 30.8895V30.0895ZM34.5086 30.0895V30.8895C34.9504 30.8895 35.3086 30.5313 35.3086 30.0895H34.5086ZM34.5086 27.8635H35.3086C35.3086 27.4808 35.0375 27.1517 34.6619 27.0784L34.5086 27.8635ZM33.001 27.5691H32.201C32.201 27.9518 32.4721 28.2809 32.8477 28.3543L33.001 27.5691ZM33.001 22.4341V21.6341C32.5592 21.6341 32.201 21.9923 32.201 22.4341H33.001ZM43.5537 22.4341H44.3537C44.3537 21.9923 43.9956 21.6341 43.5537 21.6341V22.4341ZM43.5537 27.5691L43.7071 28.3543C44.0827 28.2809 44.3537 27.9518 44.3537 27.5691H43.5537ZM42.0462 27.8635L41.8929 27.0784C41.5173 27.1517 41.2462 27.4808 41.2462 27.8635H42.0462ZM42.0462 35.1185H41.2462C41.2462 35.5012 41.5173 35.8303 41.8929 35.9037L42.0462 35.1185ZM43.5537 35.413H44.3537C44.3537 35.0303 44.0827 34.7011 43.7071 34.6278L43.5537 35.413ZM43.5537 40.5244V41.3244C43.9956 41.3244 44.3537 40.9662 44.3537 40.5244H43.5537ZM33.001 40.5244H32.201C32.201 40.9662 32.5592 41.3244 33.001 41.3244V40.5244ZM33.001 35.413L32.8477 34.6278C32.4721 34.7011 32.201 35.0303 32.201 35.413H33.001ZM34.5086 35.1185L34.6619 35.9037C35.0375 35.8303 35.3086 35.5012 35.3086 35.1185H34.5086ZM34.5086 32.7512H35.3086C35.3086 32.3094 34.9504 31.9512 34.5086 31.9512V32.7512ZM28.4785 32.7512V31.9512C28.0366 31.9512 27.6785 32.3094 27.6785 32.7512H28.4785ZM28.4785 35.1185H27.6785C27.6785 35.5012 27.9495 35.8303 28.3251 35.9037L28.4785 35.1185ZM29.986 35.413H30.786C30.786 35.0303 30.515 34.7011 30.1393 34.6278L29.986 35.413ZM29.986 40.5244V41.3244C30.4278 41.3244 30.786 40.9662 30.786 40.5244H29.986ZM19.4333 40.5244H18.6333C18.6333 40.9662 18.9915 41.3244 19.4333 41.3244V40.5244ZM19.4333 35.413L19.2799 34.6278C18.9043 34.7011 18.6333 35.0303 18.6333 35.413H19.4333ZM20.9408 35.1185L21.0942 35.9037C21.4698 35.8303 21.7408 35.5012 21.7408 35.1185H20.9408ZM20.9408 27.8635H21.7408C21.7408 27.4808 21.4698 27.1517 21.0942 27.0784L20.9408 27.8635ZM19.4333 27.5691H18.6333C18.6333 27.9518 18.9043 28.2809 19.2799 28.3543L19.4333 27.5691ZM19.4333 23.2341H29.986V21.6341H19.4333V23.2341ZM29.186 22.4341V27.5691H30.786V22.4341H29.186ZM29.8326 26.7839L28.3251 27.0784L28.6318 28.6487L30.1393 28.3543L29.8326 26.7839ZM27.6785 27.8635V30.0895H29.2785V27.8635H27.6785ZM28.4785 30.8895H34.5086V29.2895H28.4785V30.8895ZM35.3086 30.0895V27.8635H33.7086V30.0895H35.3086ZM34.6619 27.0784L33.1544 26.7839L32.8477 28.3543L34.3552 28.6487L34.6619 27.0784ZM33.801 27.5691V22.4341H32.201V27.5691H33.801ZM33.001 23.2341H43.5537V21.6341H33.001V23.2341ZM42.7537 22.4341V27.5691H44.3537V22.4341H42.7537ZM43.4004 26.7839L41.8929 27.0784L42.1996 28.6487L43.7071 28.3543L43.4004 26.7839ZM41.2462 27.8635V35.1185H42.8462V27.8635H41.2462ZM41.8929 35.9037L43.4004 36.1981L43.7071 34.6278L42.1996 34.3334L41.8929 35.9037ZM42.7537 35.413V40.5244H44.3537V35.413H42.7537ZM43.5537 39.7244H33.001V41.3244H43.5537V39.7244ZM33.801 40.5244V35.413H32.201V40.5244H33.801ZM33.1544 36.1981L34.6619 35.9037L34.3552 34.3334L32.8477 34.6278L33.1544 36.1981ZM35.3086 35.1185V32.7512H33.7086V35.1185H35.3086ZM34.5086 31.9512H28.4785V33.5512H34.5086V31.9512ZM27.6785 32.7512V35.1185H29.2785V32.7512H27.6785ZM28.3251 35.9037L29.8326 36.1981L30.1393 34.6278L28.6318 34.3334L28.3251 35.9037ZM29.186 35.413V40.5244H30.786V35.413H29.186ZM29.986 39.7244H19.4333V41.3244H29.986V39.7244ZM20.2333 40.5244V35.413H18.6333V40.5244H20.2333ZM19.5867 36.1981L21.0942 35.9037L20.7875 34.3334L19.2799 34.6278L19.5867 36.1981ZM21.7408 35.1185V27.8635H20.1408V35.1185H21.7408ZM21.0942 27.0784L19.5867 26.7839L19.2799 28.3543L20.7875 28.6487L21.0942 27.0784ZM20.2333 27.5691V22.4341H18.6333V27.5691H20.2333ZM52.6229 40.5597L52.5177 41.3528L52.5186 41.3529L52.6229 40.5597ZM50.1143 39.9002L49.8082 40.6393L49.8108 40.6404L50.1143 39.9002ZM47.9826 38.6636L47.4856 39.2905L47.4904 39.2942L47.9826 38.6636ZM46.3219 36.838L45.6507 37.2733L45.6529 37.2766L46.3219 36.838ZM45.2384 34.3883L44.4663 34.5977L44.4684 34.6055L45.2384 34.3883ZM47.9355 24.2714L47.453 23.6332L47.4492 23.6361L47.9355 24.2714ZM50.0672 23.0819L50.3604 23.8262L50.3643 23.8246L50.0672 23.0819ZM52.5876 22.387L52.4572 21.5977L52.4561 21.5979L52.5876 22.387ZM62.8812 24.2832L62.3949 24.9184L62.3987 24.9213L62.8812 24.2832ZM65.59 28.3464L64.8213 28.568L64.8219 28.5699L65.59 28.3464ZM65.1307 35.6367L64.4034 35.3036L64.4024 35.3057L65.1307 35.6367ZM59.5128 40.2535L59.708 41.0294L59.7124 41.0282L59.5128 40.2535ZM54.1305 27.7458L54.4095 28.4956L54.4188 28.492L54.1305 27.7458ZM53.2825 28.2522L52.7373 27.6666L52.7272 27.6763L53.2825 28.2522ZM52.5052 29.7833L51.7253 29.605C51.7236 29.6121 51.7221 29.6192 51.7207 29.6264L52.5052 29.7833ZM52.5052 32.763L51.7199 32.9157C51.7215 32.9242 51.7233 32.9328 51.7253 32.9413L52.5052 32.763ZM53.2825 34.3294L52.7168 34.8951C52.7235 34.9018 52.7304 34.9084 52.7373 34.9149L53.2825 34.3294ZM54.1305 34.8476L53.8363 35.5916L53.8421 35.5939L54.1305 34.8476ZM56.6626 34.8476L56.3743 34.1014L56.3685 34.1037L56.6626 34.8476ZM57.5224 34.3294L58.0675 34.9149C58.0711 34.9116 58.0746 34.9083 58.0781 34.9049L57.5224 34.3294ZM58.0406 33.5874L57.313 33.2548C57.3104 33.2606 57.3078 33.2664 57.3053 33.2723L58.0406 33.5874ZM58.3115 32.763L59.096 32.9199L59.0968 32.9157L58.3115 32.763ZM58.4057 31.9504L57.6072 31.902C57.6067 31.91 57.6063 31.9181 57.6061 31.9261L58.4057 31.9504ZM58.4057 30.5842L57.6061 30.6084C57.6063 30.6164 57.6067 30.6245 57.6072 30.6326L58.4057 30.5842ZM58.0406 28.9706L57.3087 29.2935C57.3113 29.2995 57.314 29.3054 57.3168 29.3113L58.0406 28.9706ZM56.6626 27.7458L56.3685 28.4897C56.3754 28.4924 56.3823 28.4951 56.3892 28.4976L56.6626 27.7458ZM55.4024 39.9364C54.4773 39.9364 53.5858 39.8795 52.7273 39.7666L52.5186 41.3529C53.4503 41.4755 54.4117 41.5364 55.4024 41.5364V39.9364ZM52.7282 39.7667C51.9053 39.6575 51.1361 39.4545 50.4178 39.16L49.8108 40.6404C50.6629 40.9898 51.5661 41.2265 52.5177 41.3528L52.7282 39.7667ZM50.4204 39.1611C49.7077 38.8659 49.0601 38.4897 48.4748 38.0329L47.4904 39.2942C48.1928 39.8424 48.9663 40.2906 49.8082 40.6393L50.4204 39.1611ZM48.4795 38.0366C47.9047 37.5809 47.4087 37.0366 46.991 36.3994L45.6529 37.2766C46.1617 38.0528 46.7728 38.7254 47.4856 39.2905L48.4795 38.0366ZM46.9932 36.4028C46.5785 35.7632 46.2483 35.0218 46.0084 34.1711L44.4684 34.6055C44.7467 35.5921 45.1389 36.4838 45.6507 37.2733L46.9932 36.4028ZM46.0105 34.1789C45.7811 33.3328 45.6615 32.3645 45.6615 31.2673H44.0615C44.0615 32.4784 44.1932 33.5908 44.4663 34.5977L46.0105 34.1789ZM45.6615 31.2673C45.6615 30.2446 45.7802 29.3434 46.0071 28.5562L44.4697 28.113C44.1941 29.069 44.0615 30.1228 44.0615 31.2673H45.6615ZM46.0071 28.5562C46.2378 27.756 46.5579 27.0604 46.9616 26.4618L45.6351 25.5671C45.128 26.319 44.7415 27.1702 44.4697 28.113L46.0071 28.5562ZM46.9616 26.4618C47.3694 25.8571 47.8557 25.3399 48.4217 24.9066L47.4492 23.6361C46.7433 24.1765 46.1381 24.8213 45.6351 25.5671L46.9616 26.4618ZM48.418 24.9095C49.0018 24.4681 49.6483 24.1067 50.3604 23.8262L49.774 22.3375C48.9314 22.6694 48.1568 23.1011 47.453 23.6333L48.418 24.9095ZM50.3643 23.8246C51.0924 23.5334 51.8766 23.3165 52.7191 23.1761L52.4561 21.5979C51.5084 21.7558 50.6124 22.0022 49.7701 22.3391L50.3643 23.8246ZM52.718 23.1763C53.5752 23.0346 54.4698 22.9632 55.4024 22.9632V21.3632C54.3879 21.3632 53.4059 21.4409 52.4572 21.5977L52.718 23.1763ZM55.4024 22.9632C56.3351 22.9632 57.2297 23.0346 58.0869 23.1763L58.3477 21.5977C57.399 21.4409 56.417 21.3632 55.4024 21.3632V22.9632ZM58.0869 23.1763C58.9374 23.3168 59.7251 23.5337 60.4523 23.8246L61.0466 22.3391C60.2035 22.0018 59.3031 21.7555 58.3477 21.5977L58.0869 23.1763ZM60.4523 23.8246C61.1736 24.1132 61.8199 24.4783 62.3949 24.9184L63.3674 23.6479C62.6704 23.1144 61.8956 22.6787 61.0466 22.3391L60.4523 23.8246ZM62.3987 24.9213C62.9715 25.3544 63.4603 25.8708 63.8668 26.4736L65.1933 25.5789C64.689 24.8312 64.0785 24.1855 63.3637 23.645L62.3987 24.9213ZM63.8668 26.4736C64.2705 27.0721 64.5906 27.7677 64.8213 28.568L66.3587 28.1248C66.0869 27.182 65.7004 26.3308 65.1933 25.5789L63.8668 26.4736ZM64.8219 28.5699C65.0482 29.3479 65.1669 30.2444 65.1669 31.2673H66.7669C66.7669 30.123 66.6344 29.0723 66.3582 28.123L64.8219 28.5699ZM65.1669 31.2673C65.1669 32.8779 64.902 34.2151 64.4034 35.3036L65.858 35.9699C66.4744 34.6243 66.7669 33.0485 66.7669 31.2673H65.1669ZM64.4024 35.3057C63.9003 36.4103 63.2209 37.2962 62.3684 37.981L63.3704 39.2284C64.4337 38.3742 65.2618 37.2815 65.859 35.9678L64.4024 35.3057ZM62.3684 37.981C61.5057 38.674 60.4914 39.1752 59.3132 39.4788L59.7124 41.0282C61.0938 40.6723 62.3173 40.0743 63.3704 39.2284L62.3684 37.981ZM59.3177 39.4777C58.108 39.782 56.804 39.9364 55.4024 39.9364V41.5364C56.9217 41.5364 58.3579 41.3689 59.708 41.0294L59.3177 39.4777ZM55.4024 26.7455C54.8343 26.7455 54.306 26.8203 53.8421 26.9995L54.4188 28.492C54.6459 28.4043 54.9656 28.3455 55.4024 28.3455V26.7455ZM53.8515 26.996C53.4306 27.1526 53.0533 27.3725 52.7373 27.6667L53.8276 28.8377C53.9671 28.7079 54.1551 28.5902 54.4094 28.4955L53.8515 26.996ZM52.7272 27.6763C52.4361 27.957 52.2057 28.2814 52.0441 28.6477L53.508 29.2935C53.5819 29.126 53.6891 28.9714 53.8378 28.8281L52.7272 27.6763ZM52.0441 28.6477C51.9065 28.9596 51.7998 29.2789 51.7253 29.605L53.285 29.9615C53.3361 29.7381 53.41 29.5155 53.508 29.2935L52.0441 28.6477ZM51.7207 29.6264C51.6577 29.9414 51.6206 30.2528 51.6113 30.5599L53.2106 30.6084C53.217 30.3973 53.2427 30.1748 53.2896 29.9402L51.7207 29.6264ZM51.6113 30.5599C51.6033 30.8247 51.5992 31.0608 51.5992 31.2673H53.1992C53.1992 31.0811 53.2029 30.8618 53.2106 30.6084L51.6113 30.5599ZM51.5992 31.2673C51.5992 31.4737 51.6033 31.7098 51.6113 31.9746L53.2106 31.9261C53.2029 31.6727 53.1992 31.4534 53.1992 31.2673H51.5992ZM51.6113 31.9746C51.6206 32.2813 51.6576 32.5953 51.7199 32.9157L53.2904 32.6103C53.2428 32.3654 53.217 32.1377 53.2106 31.9261L51.6113 31.9746ZM51.7253 32.9413C51.7994 33.2657 51.9051 33.5862 52.0407 33.9026L53.5114 33.2723C53.4114 33.039 53.3365 32.8099 53.285 32.5847L51.7253 32.9413ZM52.0407 33.9026C52.2002 34.2746 52.4279 34.6062 52.7168 34.8951L53.8482 33.7637C53.6974 33.6129 53.5874 33.4498 53.5114 33.2723L52.0407 33.9026ZM52.7373 34.9149C53.0492 35.2053 53.4211 35.4275 53.8363 35.5916L54.4246 34.1037C54.1645 34.0009 53.9711 33.8775 53.8276 33.7439L52.7373 34.9149ZM53.8421 35.5939C54.306 35.7731 54.8343 35.8478 55.4024 35.8478V34.2478C54.9656 34.2478 54.6459 34.1891 54.4188 34.1014L53.8421 35.5939ZM55.4024 35.8478C55.9696 35.8478 56.497 35.7734 56.9568 35.5916L56.3685 34.1037C56.153 34.1889 55.8402 34.2478 55.4024 34.2478V35.8478ZM56.951 35.5939C57.3738 35.4305 57.7525 35.2082 58.0675 34.9149L56.9773 33.7439C56.8369 33.8746 56.6425 33.9978 56.3743 34.1014L56.951 35.5939ZM58.0781 34.9049C58.3778 34.6155 58.6138 34.2809 58.7759 33.9026L57.3053 33.2723C57.2319 33.4436 57.1224 33.6036 56.9667 33.7539L58.0781 34.9049ZM58.7682 33.92C58.9175 33.5934 59.028 33.2598 59.096 32.9199L57.527 32.6061C57.4851 32.8158 57.415 33.0318 57.313 33.2548L58.7682 33.92ZM59.0968 32.9157C59.1591 32.5953 59.1961 32.2813 59.2053 31.9746L57.6061 31.9261C57.5997 32.1377 57.5738 32.3654 57.5262 32.6103L59.0968 32.9157ZM59.2042 31.9987C59.2206 31.7283 59.2293 31.4839 59.2293 31.2673H57.6293C57.6293 31.4432 57.6222 31.6542 57.6072 31.902L59.2042 31.9987ZM59.2293 31.2673C59.2293 31.0506 59.2206 30.8062 59.2042 30.5358L57.6072 30.6326C57.6222 30.8803 57.6293 31.0913 57.6293 31.2673H59.2293ZM59.2053 30.5599C59.196 30.2528 59.159 29.9414 59.096 29.6264L57.527 29.9402C57.5739 30.1748 57.5997 30.3973 57.6061 30.6084L59.2053 30.5599ZM59.096 29.6264C59.0276 29.2848 58.9162 28.9524 58.7645 28.63L57.3168 29.3113C57.4163 29.5227 57.4854 29.7321 57.527 29.9402L59.096 29.6264ZM58.7725 28.6477C58.6081 28.275 58.3693 27.9477 58.0675 27.6667L56.9773 28.8377C57.1309 28.9807 57.2376 29.1323 57.3087 29.2935L58.7725 28.6477ZM58.0675 27.6667C57.7484 27.3696 57.3643 27.1497 56.936 26.9939L56.3892 28.4976C56.6519 28.5931 56.841 28.7108 56.9773 28.8377L58.0675 27.6667ZM56.9568 27.0018C56.497 26.82 55.9696 26.7455 55.4024 26.7455V28.3455C55.8402 28.3455 56.153 28.4045 56.3685 28.4897L56.9568 27.0018ZM76.3081 31.703L76.9991 31.2999C76.817 30.9877 76.4482 30.8364 76.0993 30.9307C75.7504 31.0251 75.5081 31.3416 75.5081 31.703H76.3081ZM76.3081 40.5244V41.3244C76.7499 41.3244 77.1081 40.9662 77.1081 40.5244H76.3081ZM67.2747 40.5244H66.4747C66.4747 40.9662 66.8329 41.3244 67.2747 41.3244V40.5244ZM67.2747 35.413L67.1213 34.6278C66.7457 34.7011 66.4747 35.0303 66.4747 35.413H67.2747ZM68.7822 35.1185L68.9356 35.9037C69.3112 35.8303 69.5822 35.5012 69.5822 35.1185H68.7822ZM68.7822 27.84H69.5822C69.5822 27.4573 69.3112 27.1282 68.9356 27.0548L68.7822 27.84ZM67.2747 27.5455H66.4747C66.4747 27.9282 66.7457 28.2573 67.1213 28.3307L67.2747 27.5455ZM67.2747 22.4341V21.6341C66.8329 21.6341 66.4747 21.9923 66.4747 22.4341H67.2747ZM76.3081 22.4341L77.0103 22.0508C76.8701 21.7939 76.6008 21.6341 76.3081 21.6341V22.4341ZM80.1004 29.3828L79.3982 29.7661C79.5387 30.0235 79.8088 30.1834 80.102 30.1828C80.3953 30.1823 80.6647 30.0213 80.8042 29.7633L80.1004 29.3828ZM83.8575 22.4341V21.6341C83.5637 21.6341 83.2935 21.7951 83.1538 22.0536L83.8575 22.4341ZM92.9027 22.4341H93.7027C93.7027 21.9923 93.3445 21.6341 92.9027 21.6341V22.4341ZM92.9027 27.5455L93.056 28.3307C93.4316 28.2573 93.7027 27.9282 93.7027 27.5455H92.9027ZM91.3951 27.84L91.2418 27.0548C90.8662 27.1282 90.5951 27.4573 90.5951 27.84H91.3951ZM91.3951 35.1185H90.5951C90.5951 35.5012 90.8662 35.8303 91.2418 35.9037L91.3951 35.1185ZM92.9027 35.413H93.7027C93.7027 35.0303 93.4316 34.7011 93.056 34.6278L92.9027 35.413ZM92.9027 40.5244V41.3244C93.3445 41.3244 93.7027 40.9662 93.7027 40.5244H92.9027ZM83.8575 40.5244H83.0575C83.0575 40.9662 83.4157 41.3244 83.8575 41.3244V40.5244ZM83.8575 31.703H84.6575C84.6575 31.341 84.4144 31.0241 84.0647 30.9303C83.715 30.8366 83.346 30.9893 83.1648 31.3027L83.8575 31.703ZM80.1004 38.2042L79.4094 38.6073C79.5531 38.8536 79.817 39.0048 80.1021 39.0042C80.3872 39.0037 80.6504 38.8514 80.7931 38.6045L80.1004 38.2042ZM75.5081 31.703V40.5244H77.1081V31.703H75.5081ZM76.3081 39.7244H67.2747V41.3244H76.3081V39.7244ZM68.0747 40.5244V35.413H66.4747V40.5244H68.0747ZM67.428 36.1981L68.9356 35.9037L68.6289 34.3334L67.1213 34.6278L67.428 36.1981ZM69.5822 35.1185V27.84H67.9822V35.1185H69.5822ZM68.9356 27.0548L67.428 26.7604L67.1213 28.3307L68.6289 28.6251L68.9356 27.0548ZM68.0747 27.5455V22.4341H66.4747V27.5455H68.0747ZM67.2747 23.2341H76.3081V21.6341H67.2747V23.2341ZM75.6058 22.8173L79.3982 29.7661L80.8027 28.9996L77.0103 22.0508L75.6058 22.8173ZM80.8042 29.7633L84.5612 22.8146L83.1538 22.0536L79.3967 29.0024L80.8042 29.7633ZM83.8575 23.2341H92.9027V21.6341H83.8575V23.2341ZM92.1027 22.4341V27.5455H93.7027V22.4341H92.1027ZM92.7493 26.7604L91.2418 27.0548L91.5485 28.6251L93.056 28.3307L92.7493 26.7604ZM90.5951 27.84V35.1185H92.1951V27.84H90.5951ZM91.2418 35.9037L92.7493 36.1981L93.056 34.6278L91.5485 34.3334L91.2418 35.9037ZM92.1027 35.413V40.5244H93.7027V35.413H92.1027ZM92.9027 39.7244H83.8575V41.3244H92.9027V39.7244ZM84.6575 40.5244V31.703H83.0575V40.5244H84.6575ZM83.1648 31.3027L79.4078 37.804L80.7931 38.6045L84.5501 32.1033L83.1648 31.3027ZM80.7915 37.8011L76.9991 31.2999L75.6171 32.1061L79.4094 38.6073L80.7915 37.8011ZM103.868 36.0018H103.068C103.068 36.4437 103.426 36.8018 103.868 36.8018V36.0018ZM105.376 35.8723L105.52 36.6593L105.532 36.6567L105.376 35.8723ZM106.671 35.519L106.405 34.7645L106.4 34.7662L106.671 35.519ZM108.603 34.4943V33.6943C108.431 33.6943 108.264 33.7495 108.126 33.8518L108.603 34.4943ZM110.569 34.4943H111.369C111.369 34.0525 111.011 33.6943 110.569 33.6943V34.4943ZM110.569 40.5244V41.3244C111.011 41.3244 111.369 40.9662 111.369 40.5244H110.569ZM94.8229 40.5244H94.0229C94.0229 40.9662 94.381 41.3244 94.8229 41.3244V40.5244ZM94.8229 35.413L94.6695 34.6278C94.2939 34.7011 94.0229 35.0303 94.0229 35.413H94.8229ZM96.3304 35.1185L96.4837 35.9037C96.8593 35.8303 97.1304 35.5012 97.1304 35.1185H96.3304ZM96.3304 27.8635H97.1304C97.1304 27.4808 96.8593 27.1517 96.4837 27.0784L96.3304 27.8635ZM94.8229 27.5691H94.0229C94.0229 27.9518 94.2939 28.2809 94.6695 28.3543L94.8229 27.5691ZM94.8229 22.4341V21.6341C94.381 21.6341 94.0229 21.9923 94.0229 22.4341H94.8229ZM110.569 22.4341H111.369C111.369 21.9923 111.011 21.6341 110.569 21.6341V22.4341ZM110.569 28.4642V29.2642C111.011 29.2642 111.369 28.906 111.369 28.4642H110.569ZM108.673 28.4642L108.22 29.1234C108.353 29.2151 108.511 29.2642 108.673 29.2642V28.4642ZM106.695 27.4513L106.415 28.201C106.421 28.2032 106.427 28.2053 106.433 28.2073L106.695 27.4513ZM105.387 27.098L105.23 27.8826L105.243 27.8849L105.387 27.098ZM103.868 26.9567V26.1567C103.426 26.1567 103.068 26.5148 103.068 26.9567H103.868ZM103.868 30.1719H103.068C103.068 30.4139 103.177 30.6428 103.366 30.7946C103.554 30.9465 103.801 31.005 104.037 30.9538L103.868 30.1719ZM107.401 29.4064H108.201C108.201 29.1645 108.092 28.9356 107.904 28.7837C107.715 28.6318 107.468 28.5733 107.232 28.6245L107.401 29.4064ZM107.401 33.5757L107.232 34.3575C107.468 34.4087 107.715 34.3502 107.904 34.1984C108.092 34.0465 108.201 33.8176 108.201 33.5757H107.401ZM103.868 32.8101L104.037 32.0283C103.801 31.977 103.554 32.0355 103.366 32.1874C103.177 32.3393 103.068 32.5682 103.068 32.8101H103.868ZM103.868 36.8018C104.445 36.8018 104.996 36.7552 105.52 36.6592L105.231 35.0854C104.813 35.1621 104.359 35.2018 103.868 35.2018V36.8018ZM105.532 36.6567C106.037 36.5559 106.507 36.4282 106.942 36.2717L106.4 34.7662C106.05 34.8924 105.657 35.0002 105.219 35.0878L105.532 36.6567ZM106.937 36.2733C107.375 36.119 107.779 35.9399 108.146 35.7338L107.363 34.3384C107.087 34.4935 106.768 34.6363 106.405 34.7646L106.937 36.2733ZM108.146 35.7338C108.491 35.54 108.804 35.3414 109.079 35.1368L108.126 33.8518C107.915 34.0084 107.662 34.1709 107.363 34.3384L108.146 35.7338ZM108.603 35.2943H110.569V33.6943H108.603V35.2943ZM109.769 34.4943V40.5244H111.369V34.4943H109.769ZM110.569 39.7244H94.8229V41.3244H110.569V39.7244ZM95.6229 40.5244V35.413H94.0229V40.5244H95.6229ZM94.9762 36.1981L96.4837 35.9037L96.177 34.3334L94.6695 34.6278L94.9762 36.1981ZM97.1304 35.1185V27.8635H95.5304V35.1185H97.1304ZM96.4837 27.0784L94.9762 26.7839L94.6695 28.3543L96.177 28.6487L96.4837 27.0784ZM95.6229 27.5691V22.4341H94.0229V27.5691H95.6229ZM94.8229 23.2341H110.569V21.6341H94.8229V23.2341ZM109.769 22.4341V28.4642H111.369V22.4341H109.769ZM110.569 27.6642H108.673V29.2642H110.569V27.6642ZM109.126 27.805C108.849 27.6139 108.534 27.4232 108.186 27.2325L107.417 28.6359C107.729 28.8064 107.995 28.969 108.22 29.1234L109.126 27.805ZM108.186 27.2325C107.812 27.0275 107.401 26.8492 106.956 26.6953L106.433 28.2073C106.805 28.3361 107.132 28.4797 107.417 28.6359L108.186 27.2325ZM106.974 26.7017C106.525 26.5343 106.043 26.4049 105.532 26.3111L105.243 27.8849C105.674 27.9638 106.064 28.07 106.415 28.201L106.974 26.7017ZM105.544 26.3135C105.015 26.2078 104.456 26.1567 103.868 26.1567V27.7567C104.364 27.7567 104.817 27.7998 105.23 27.8825L105.544 26.3135ZM103.068 26.9567V30.1719H104.668V26.9567H103.068ZM104.037 30.9538L107.571 30.1883L107.232 28.6245L103.699 29.3901L104.037 30.9538ZM106.601 29.4064V33.5757H108.201V29.4064H106.601ZM107.571 32.7938L104.037 32.0283L103.699 33.592L107.232 34.3575L107.571 32.7938ZM103.068 32.8101V36.0018H104.668V32.8101H103.068Z" fill="black"/>
</svg>
