<svg width="93" height="58" viewBox="0 0 93 58" fill="none" xmlns="http://www.w3.org/2000/svg">
<path d="M4 2H89C90.1046 2 91 2.89543 91 4V11C91 12.1046 90.1046 13 89 13H4C2.89543 13 2 12.1046 2 11V4C2 2.89543 2.89543 2 4 2Z" fill="#FF6700" stroke="black" stroke-width="4" stroke-miterlimit="1.41421" stroke-linejoin="round"/>
<rect x="2" y="23.2812" width="89" height="11" rx="2" fill="#FF6700" stroke="black" stroke-width="4" stroke-miterlimit="1.41421" stroke-linejoin="round"/>
<path d="M4 45H89C90.1046 45 91 45.8954 91 47V54C91 55.1046 90.1046 56 89 56H4C2.89543 56 2 55.1046 2 54V47C2 45.8954 2.89543 45 4 45Z" fill="#FF6700" stroke="black" stroke-width="4" stroke-miterlimit="1.41421" stroke-linejoin="round"/>
</svg>
