<svg width="140" height="67" viewBox="0 0 140 67" fill="none" xmlns="http://www.w3.org/2000/svg">
<rect x="3.53352" y="3.05305" width="133.565" height="61.2674" rx="5.36" fill="#EFEFEF" stroke="black" stroke-width="5.36"/>
<path d="M27.5353 34.1265V41.3848H20.1026V37.179L21.343 36.9368V30.9479L20.1026 30.7057V26.4999H27.5353L30.6557 32.2174L33.747 26.4999H41.1894V30.7057L39.949 30.9479V36.9368L41.1894 37.179V41.3848H33.747V34.1265L30.6557 39.4757L27.5353 34.1265ZM46.51 41.3848V37.1984L47.7504 36.8883L43.4962 30.9382L41.9263 30.7057V26.4999H50.2021V30.7057L49.2331 30.9382L51.2003 33.9811L53.1675 30.9382L52.1984 30.7057V26.4999H60.4645V30.7057L58.9043 30.9382L54.6501 36.8883L55.8905 37.1984V41.3848H46.51ZM68.6535 32.8667L71.2894 32.2368V35.6673L68.6535 35.0374V36.9368L69.8939 37.2178V41.3848H61.2111V37.179L62.4515 36.9368V30.9673L61.2111 30.725V26.4999H73.1984V31.4615H71.5704C71.4154 31.3194 71.2377 31.174 71.0374 31.0255C70.8436 30.8769 70.624 30.7444 70.3785 30.6281C70.1394 30.5054 69.8745 30.4085 69.5838 30.3374C69.2996 30.2599 68.9895 30.2211 68.6535 30.2211V32.8667ZM81.5909 37.6636C82.0302 37.6636 82.4437 37.628 82.8313 37.557C83.219 37.4794 83.5743 37.3825 83.8973 37.2662C84.2268 37.1499 84.524 37.0175 84.7889 36.8689C85.0537 36.7203 85.2863 36.5717 85.4866 36.4232H87.1049V41.3848H74.1485V37.179L75.3889 36.9368V30.9673L74.1485 30.725V26.4999H87.1049V31.4615H85.5447C85.338 31.3194 85.099 31.174 84.8276 31.0255C84.5563 30.8769 84.2526 30.7444 83.9167 30.6281C83.5872 30.5054 83.2287 30.4085 82.841 30.3374C82.4534 30.2599 82.0367 30.2211 81.5909 30.2211V32.8667L84.4981 32.2368V35.6673L81.5909 35.0374V37.6636ZM95.6719 37.6636C96.1112 37.6636 96.5246 37.628 96.9123 37.557C97.2999 37.4794 97.6552 37.3825 97.9782 37.2662C98.3077 37.1499 98.6049 37.0175 98.8698 36.8689C99.1346 36.7203 99.3672 36.5717 99.5675 36.4232H101.186V41.3848H88.2294V37.179L89.4698 36.9368V30.9673L88.2294 30.725V26.4999H101.186V31.4615H99.6256C99.4189 31.3194 99.1799 31.174 98.9085 31.0255C98.6372 30.8769 98.3336 30.7444 97.9976 30.6281C97.6681 30.5054 97.3096 30.4085 96.9219 30.3374C96.5343 30.2599 96.1176 30.2211 95.6719 30.2211V32.8667L98.579 32.2368V35.6673L95.6719 35.0374V37.6636ZM113.571 26.4999C114.508 26.7002 115.351 26.9909 116.1 27.3721C116.85 27.7468 117.486 28.2281 118.009 28.816C118.539 29.4039 118.943 30.1081 119.221 30.9285C119.505 31.7426 119.647 32.689 119.647 33.7679C119.647 35.1957 119.408 36.3973 118.93 37.3728C118.452 38.3419 117.777 39.1236 116.904 39.718C116.039 40.3123 114.995 40.7387 113.774 40.9971C112.553 41.2556 111.203 41.3848 109.724 41.3848H102.281V37.179L103.522 36.9368V30.5894L102.281 30.3471V26.4999H113.571ZM110.673 36.9368C111.365 36.9368 111.898 36.8625 112.272 36.7139C112.647 36.5588 112.918 36.3424 113.086 36.0646C113.261 35.7868 113.361 35.4541 113.387 35.0665C113.419 34.6788 113.435 34.246 113.435 33.7679C113.435 33.2898 113.419 32.857 113.387 32.4694C113.361 32.0753 113.261 31.7393 113.086 31.4615C112.918 31.1837 112.647 30.9705 112.272 30.822C111.898 30.6669 111.365 30.5894 110.673 30.5894H109.724V36.9368H110.673Z" fill="#FF6700"/>
<path d="M27.5353 34.1265L28.2263 33.7234C28.0442 33.4112 27.6754 33.2599 27.3265 33.3542C26.9776 33.4485 26.7353 33.765 26.7353 34.1265H27.5353ZM27.5353 41.3848V42.1848C27.9771 42.1848 28.3353 41.8266 28.3353 41.3848H27.5353ZM20.1026 41.3848H19.3026C19.3026 41.8266 19.6607 42.1848 20.1026 42.1848V41.3848ZM20.1026 37.179L19.9492 36.3939C19.5736 36.4672 19.3026 36.7963 19.3026 37.179H20.1026ZM21.343 36.9368L21.4963 37.7219C21.8719 37.6486 22.143 37.3195 22.143 36.9368H21.343ZM21.343 30.9479H22.143C22.143 30.5652 21.8719 30.2361 21.4963 30.1628L21.343 30.9479ZM20.1026 30.7057H19.3026C19.3026 31.0884 19.5736 31.4175 19.9492 31.4908L20.1026 30.7057ZM20.1026 26.4999V25.6999C19.6607 25.6999 19.3026 26.0581 19.3026 26.4999H20.1026ZM27.5353 26.4999L28.2375 26.1167C28.0973 25.8598 27.828 25.6999 27.5353 25.6999V26.4999ZM30.6557 32.2174L29.9535 32.6007C30.0939 32.8581 30.364 33.018 30.6573 33.0174C30.9505 33.0168 31.2199 32.8559 31.3594 32.5979L30.6557 32.2174ZM33.747 26.4999V25.6999C33.4532 25.6999 33.183 25.861 33.0433 26.1194L33.747 26.4999ZM41.1894 26.4999H41.9894C41.9894 26.0581 41.6313 25.6999 41.1894 25.6999V26.4999ZM41.1894 30.7057L41.3428 31.4908C41.7184 31.4175 41.9894 31.0884 41.9894 30.7057H41.1894ZM39.949 30.9479L39.7957 30.1628C39.4201 30.2361 39.149 30.5652 39.149 30.9479H39.949ZM39.949 36.9368H39.149C39.149 37.3195 39.4201 37.6486 39.7957 37.7219L39.949 36.9368ZM41.1894 37.179H41.9894C41.9894 36.7963 41.7184 36.4672 41.3428 36.3939L41.1894 37.179ZM41.1894 41.3848V42.1848C41.6313 42.1848 41.9894 41.8266 41.9894 41.3848H41.1894ZM33.747 41.3848H32.947C32.947 41.8266 33.3052 42.1848 33.747 42.1848V41.3848ZM33.747 34.1265H34.547C34.547 33.7644 34.3039 33.4475 33.9542 33.3538C33.6046 33.26 33.2355 33.4127 33.0544 33.7262L33.747 34.1265ZM30.6557 39.4757L29.9647 39.8788C30.1083 40.1251 30.3722 40.2763 30.6573 40.2757C30.9424 40.2751 31.2057 40.1228 31.3483 39.876L30.6557 39.4757ZM26.7353 34.1265V41.3848H28.3353V34.1265H26.7353ZM27.5353 40.5848H20.1026V42.1848H27.5353V40.5848ZM20.9026 41.3848V37.179H19.3026V41.3848H20.9026ZM20.2559 37.9642L21.4963 37.7219L21.1896 36.1516L19.9492 36.3939L20.2559 37.9642ZM22.143 36.9368V30.9479H20.543V36.9368H22.143ZM21.4963 30.1628L20.2559 29.9205L19.9492 31.4908L21.1896 31.7331L21.4963 30.1628ZM20.9026 30.7057V26.4999H19.3026V30.7057H20.9026ZM20.1026 27.2999H27.5353V25.6999H20.1026V27.2999ZM26.8331 26.8832L29.9535 32.6007L31.3579 31.8342L28.2375 26.1167L26.8331 26.8832ZM31.3594 32.5979L34.4507 26.8804L33.0433 26.1194L29.952 31.8369L31.3594 32.5979ZM33.747 27.2999H41.1894V25.6999H33.747V27.2999ZM40.3894 26.4999V30.7057H41.9894V26.4999H40.3894ZM41.0361 29.9205L39.7957 30.1628L40.1024 31.7331L41.3428 31.4908L41.0361 29.9205ZM39.149 30.9479V36.9368H40.749V30.9479H39.149ZM39.7957 37.7219L41.0361 37.9642L41.3428 36.3939L40.1024 36.1516L39.7957 37.7219ZM40.3894 37.179V41.3848H41.9894V37.179H40.3894ZM41.1894 40.5848H33.747V42.1848H41.1894V40.5848ZM34.547 41.3848V34.1265H32.947V41.3848H34.547ZM33.0544 33.7262L29.963 39.0754L31.3483 39.876L34.4397 34.5267L33.0544 33.7262ZM31.3467 39.0726L28.2263 33.7234L26.8443 34.5296L29.9647 39.8788L31.3467 39.0726ZM46.51 41.3848H45.71C45.71 41.8266 46.0682 42.1848 46.51 42.1848V41.3848ZM46.51 37.1984L46.316 36.4223C45.9598 36.5113 45.71 36.8313 45.71 37.1984H46.51ZM47.7504 36.8883L47.9444 37.6644C48.2013 37.6002 48.4098 37.413 48.5012 37.1645C48.5926 36.916 48.5552 36.6384 48.4012 36.423L47.7504 36.8883ZM43.4962 30.9382L44.147 30.4729C44.0207 30.2964 43.8281 30.1787 43.6134 30.1469L43.4962 30.9382ZM41.9263 30.7057H41.1263C41.1263 31.1022 41.4168 31.4389 41.8091 31.497L41.9263 30.7057ZM41.9263 26.4999V25.6999C41.4845 25.6999 41.1263 26.0581 41.1263 26.4999H41.9263ZM50.2021 26.4999H51.0021C51.0021 26.0581 50.644 25.6999 50.2021 25.6999V26.4999ZM50.2021 30.7057L50.3888 31.4836C50.7485 31.3972 51.0021 31.0756 51.0021 30.7057H50.2021ZM49.2331 30.9382L49.0464 30.1603C48.794 30.2209 48.5867 30.4001 48.4903 30.641C48.3939 30.8819 48.4203 31.1546 48.5612 31.3726L49.2331 30.9382ZM51.2003 33.9811L50.5284 34.4154C50.6758 34.6434 50.9288 34.7811 51.2003 34.7811C51.4717 34.7811 51.7247 34.6434 51.8721 34.4154L51.2003 33.9811ZM53.1675 30.9382L53.8393 31.3726C53.9802 31.1546 54.0066 30.8819 53.9102 30.641C53.8138 30.4001 53.6065 30.2209 53.3542 30.1603L53.1675 30.9382ZM52.1984 30.7057H51.3984C51.3984 31.0756 51.652 31.3972 52.0117 31.4836L52.1984 30.7057ZM52.1984 26.4999V25.6999C51.7566 25.6999 51.3984 26.0581 51.3984 26.4999H52.1984ZM60.4645 26.4999H61.2645C61.2645 26.0581 60.9064 25.6999 60.4645 25.6999V26.4999ZM60.4645 30.7057L60.5825 31.4969C60.9744 31.4385 61.2645 31.1019 61.2645 30.7057H60.4645ZM58.9043 30.9382L58.7864 30.147C58.5719 30.1789 58.3797 30.2966 58.2536 30.4729L58.9043 30.9382ZM54.6501 36.8883L53.9994 36.423C53.8454 36.6384 53.8079 36.916 53.8993 37.1645C53.9908 37.413 54.1992 37.6002 54.4561 37.6644L54.6501 36.8883ZM55.8905 37.1984H56.6905C56.6905 36.8313 56.4407 36.5113 56.0846 36.4223L55.8905 37.1984ZM55.8905 41.3848V42.1848C56.3324 42.1848 56.6905 41.8266 56.6905 41.3848H55.8905ZM47.31 41.3848V37.1984H45.71V41.3848H47.31ZM46.704 37.9745L47.9444 37.6644L47.5564 36.1122L46.316 36.4223L46.704 37.9745ZM48.4012 36.423L44.147 30.4729L42.8454 31.4035L47.0996 37.3536L48.4012 36.423ZM43.6134 30.1469L42.0435 29.9143L41.8091 31.497L43.379 31.7296L43.6134 30.1469ZM42.7263 30.7057V26.4999H41.1263V30.7057H42.7263ZM41.9263 27.2999H50.2021V25.6999H41.9263V27.2999ZM49.4021 26.4999V30.7057H51.0021V26.4999H49.4021ZM50.0154 29.9278L49.0464 30.1603L49.4198 31.7161L50.3888 31.4836L50.0154 29.9278ZM48.5612 31.3726L50.5284 34.4154L51.8721 33.5468L49.9049 30.5039L48.5612 31.3726ZM51.8721 34.4154L53.8393 31.3726L52.4956 30.5039L50.5284 33.5468L51.8721 34.4154ZM53.3542 30.1603L52.3851 29.9278L52.0117 31.4836L52.9808 31.7161L53.3542 30.1603ZM52.9984 30.7057V26.4999H51.3984V30.7057H52.9984ZM52.1984 27.2999H60.4645V25.6999H52.1984V27.2999ZM59.6645 26.4999V30.7057H61.2645V26.4999H59.6645ZM60.3466 29.9144L58.7864 30.147L59.0223 31.7295L60.5825 31.4969L60.3466 29.9144ZM58.2536 30.4729L53.9994 36.423L55.3009 37.3536L59.5551 31.4035L58.2536 30.4729ZM54.4561 37.6644L55.6965 37.9745L56.0846 36.4223L54.8442 36.1122L54.4561 37.6644ZM55.0905 37.1984V41.3848H56.6905V37.1984H55.0905ZM55.8905 40.5848H46.51V42.1848H55.8905V40.5848ZM68.6535 32.8667H67.8535C67.8535 33.1116 67.9657 33.343 68.1579 33.4947C68.3502 33.6464 68.6013 33.7017 68.8395 33.6448L68.6535 32.8667ZM71.2894 32.2368H72.0894C72.0894 31.9919 71.9772 31.7605 71.785 31.6088C71.5928 31.4571 71.3416 31.4018 71.1034 31.4587L71.2894 32.2368ZM71.2894 35.6673L71.1034 36.4454C71.3416 36.5023 71.5928 36.447 71.785 36.2953C71.9772 36.1436 72.0894 35.9122 72.0894 35.6673H71.2894ZM68.6535 35.0374L68.8395 34.2593C68.6013 34.2024 68.3502 34.2577 68.1579 34.4094C67.9657 34.5611 67.8535 34.7925 67.8535 35.0374H68.6535ZM68.6535 36.9368H67.8535C67.8535 37.3105 68.1123 37.6344 68.4768 37.717L68.6535 36.9368ZM69.8939 37.2178H70.6939C70.6939 36.8441 70.4352 36.5201 70.0707 36.4376L69.8939 37.2178ZM69.8939 41.3848V42.1848C70.3358 42.1848 70.6939 41.8266 70.6939 41.3848H69.8939ZM61.2111 41.3848H60.4111C60.4111 41.8266 60.7693 42.1848 61.2111 42.1848V41.3848ZM61.2111 37.179L61.0577 36.3939C60.6821 36.4672 60.4111 36.7963 60.4111 37.179H61.2111ZM62.4515 36.9368L62.6049 37.7219C62.9805 37.6486 63.2515 37.3195 63.2515 36.9368H62.4515ZM62.4515 30.9673H63.2515C63.2515 30.5846 62.9805 30.2555 62.6049 30.1821L62.4515 30.9673ZM61.2111 30.725H60.4111C60.4111 31.1077 60.6821 31.4368 61.0577 31.5102L61.2111 30.725ZM61.2111 26.4999V25.6999C60.7693 25.6999 60.4111 26.0581 60.4111 26.4999H61.2111ZM73.1984 26.4999H73.9984C73.9984 26.0581 73.6403 25.6999 73.1984 25.6999V26.4999ZM73.1984 31.4615V32.2615C73.6403 32.2615 73.9984 31.9034 73.9984 31.4615H73.1984ZM71.5704 31.4615L71.0298 32.0513C71.1774 32.1865 71.3703 32.2615 71.5704 32.2615V31.4615ZM71.0374 31.0255L70.5506 31.6604L70.5607 31.6679L71.0374 31.0255ZM70.3785 30.6281L70.013 31.3398C70.0206 31.3437 70.0283 31.3475 70.036 31.3511L70.3785 30.6281ZM69.5838 30.3374L69.3733 31.1092C69.3802 31.1111 69.387 31.1129 69.3939 31.1145L69.5838 30.3374ZM68.6535 30.2211V29.4211C68.2117 29.4211 67.8535 29.7793 67.8535 30.2211H68.6535ZM68.8395 33.6448L71.4753 33.0149L71.1034 31.4587L68.4676 32.0886L68.8395 33.6448ZM70.4894 32.2368V35.6673H72.0894V32.2368H70.4894ZM71.4753 34.8892L68.8395 34.2593L68.4676 35.8155L71.1034 36.4454L71.4753 34.8892ZM67.8535 35.0374V36.9368H69.4535V35.0374H67.8535ZM68.4768 37.717L69.7172 37.998L70.0707 36.4376L68.8303 36.1565L68.4768 37.717ZM69.0939 37.2178V41.3848H70.6939V37.2178H69.0939ZM69.8939 40.5848H61.2111V42.1848H69.8939V40.5848ZM62.0111 41.3848V37.179H60.4111V41.3848H62.0111ZM61.3645 37.9642L62.6049 37.7219L62.2982 36.1516L61.0577 36.3939L61.3645 37.9642ZM63.2515 36.9368V30.9673H61.6515V36.9368H63.2515ZM62.6049 30.1821L61.3645 29.9399L61.0577 31.5102L62.2982 31.7525L62.6049 30.1821ZM62.0111 30.725V26.4999H60.4111V30.725H62.0111ZM61.2111 27.2999H73.1984V25.6999H61.2111V27.2999ZM72.3984 26.4999V31.4615H73.9984V26.4999H72.3984ZM73.1984 30.6615H71.5704V32.2615H73.1984V30.6615ZM72.111 30.8718C71.9322 30.708 71.7326 30.5451 71.5141 30.383L70.5607 31.6679C70.7428 31.803 70.8985 31.9308 71.0298 32.0513L72.111 30.8718ZM71.5242 30.3906C71.2808 30.204 71.0119 30.043 70.7209 29.9051L70.036 31.3511C70.236 31.4459 70.4064 31.5497 70.5507 31.6603L71.5242 30.3906ZM70.7439 29.9165C70.4432 29.7621 70.1186 29.6446 69.7738 29.5603L69.3939 31.1145C69.6305 31.1724 69.8356 31.2487 70.013 31.3398L70.7439 29.9165ZM69.7943 29.5656C69.4327 29.467 69.0508 29.4211 68.6535 29.4211V31.0211C68.9281 31.0211 69.1665 31.0528 69.3733 31.1092L69.7943 29.5656ZM67.8535 30.2211V32.8667H69.4535V30.2211H67.8535ZM81.5909 37.6636H80.7909C80.7909 38.1054 81.1491 38.4636 81.5909 38.4636V37.6636ZM82.8313 37.557L82.9756 38.3439L82.9882 38.3414L82.8313 37.557ZM83.8973 37.2662L83.631 36.5118L83.6263 36.5135L83.8973 37.2662ZM85.4866 36.4232V35.6232C85.3149 35.6232 85.1478 35.6784 85.0099 35.7807L85.4866 36.4232ZM87.1049 36.4232H87.9049C87.9049 35.9813 87.5467 35.6232 87.1049 35.6232V36.4232ZM87.1049 41.3848V42.1848C87.5467 42.1848 87.9049 41.8266 87.9049 41.3848H87.1049ZM74.1485 41.3848H73.3485C73.3485 41.8266 73.7067 42.1848 74.1485 42.1848V41.3848ZM74.1485 37.179L73.9952 36.3939C73.6196 36.4672 73.3485 36.7963 73.3485 37.179H74.1485ZM75.3889 36.9368L75.5423 37.7219C75.9179 37.6486 76.1889 37.3195 76.1889 36.9368H75.3889ZM75.3889 30.9673H76.1889C76.1889 30.5846 75.9179 30.2555 75.5423 30.1821L75.3889 30.9673ZM74.1485 30.725H73.3485C73.3485 31.1077 73.6196 31.4368 73.9952 31.5102L74.1485 30.725ZM74.1485 26.4999V25.6999C73.7067 25.6999 73.3485 26.0581 73.3485 26.4999H74.1485ZM87.1049 26.4999H87.9049C87.9049 26.0581 87.5467 25.6999 87.1049 25.6999V26.4999ZM87.1049 31.4615V32.2615C87.5467 32.2615 87.9049 31.9034 87.9049 31.4615H87.1049ZM85.5447 31.4615L85.0915 32.1208C85.2249 32.2125 85.3829 32.2615 85.5447 32.2615V31.4615ZM83.9167 30.6281L83.6374 31.3778C83.6432 31.38 83.6491 31.3821 83.655 31.3841L83.9167 30.6281ZM82.841 30.3374L82.6841 31.122L82.6968 31.1243L82.841 30.3374ZM81.5909 30.2211V29.4211C81.1491 29.4211 80.7909 29.7793 80.7909 30.2211H81.5909ZM81.5909 32.8667H80.7909C80.7909 33.1086 80.9004 33.3375 81.0887 33.4894C81.277 33.6413 81.5239 33.6998 81.7603 33.6485L81.5909 32.8667ZM84.4981 32.2368H85.2981C85.2981 31.9949 85.1887 31.766 85.0004 31.6141C84.8121 31.4622 84.5652 31.4037 84.3287 31.4549L84.4981 32.2368ZM84.4981 35.6673L84.3287 36.4491C84.5652 36.5004 84.8121 36.4419 85.0004 36.29C85.1887 36.1381 85.2981 35.9092 85.2981 35.6673H84.4981ZM81.5909 35.0374L81.7603 34.2555C81.5239 34.2043 81.277 34.2628 81.0887 34.4147C80.9004 34.5666 80.7909 34.7955 80.7909 35.0374H81.5909ZM81.5909 38.4636C82.0732 38.4636 82.5353 38.4246 82.9756 38.3438L82.6871 36.7701C82.3521 36.8315 81.9873 36.8636 81.5909 36.8636V38.4636ZM82.9882 38.3414C83.4089 38.2573 83.803 38.1504 84.1683 38.0189L83.6263 36.5135C83.3456 36.6146 83.029 36.7016 82.6744 36.7725L82.9882 38.3414ZM84.1636 38.0206C84.53 37.8913 84.8699 37.7407 85.1803 37.5666L84.3975 36.1712C84.178 36.2943 83.9236 36.4086 83.6311 36.5118L84.1636 38.0206ZM85.1803 37.5666C85.4686 37.4049 85.7307 37.2382 85.9633 37.0656L85.0099 35.7807C84.842 35.9053 84.6389 36.0358 84.3975 36.1712L85.1803 37.5666ZM85.4866 37.2232H87.1049V35.6232H85.4866V37.2232ZM86.3049 36.4232V41.3848H87.9049V36.4232H86.3049ZM87.1049 40.5848H74.1485V42.1848H87.1049V40.5848ZM74.9485 41.3848V37.179H73.3485V41.3848H74.9485ZM74.3019 37.9642L75.5423 37.7219L75.2356 36.1516L73.9952 36.3939L74.3019 37.9642ZM76.1889 36.9368V30.9673H74.5889V36.9368H76.1889ZM75.5423 30.1821L74.3019 29.9399L73.9952 31.5102L75.2356 31.7525L75.5423 30.1821ZM74.9485 30.725V26.4999H73.3485V30.725H74.9485ZM74.1485 27.2999H87.1049V25.6999H74.1485V27.2999ZM86.3049 26.4999V31.4615H87.9049V26.4999H86.3049ZM87.1049 30.6615H85.5447V32.2615H87.1049V30.6615ZM85.9979 30.8023C85.7645 30.6418 85.5017 30.4825 85.2119 30.3238L84.4434 31.7271C84.6962 31.8656 84.9114 31.997 85.0915 32.1208L85.9979 30.8023ZM85.2119 30.3238C84.896 30.1508 84.5505 30.001 84.1784 29.8721L83.655 31.3841C83.9548 31.4879 84.2166 31.6029 84.4434 31.7271L85.2119 30.3238ZM84.196 29.8785C83.8178 29.7376 83.4135 29.629 82.9853 29.5505L82.6968 31.1243C83.0438 31.1879 83.3566 31.2732 83.6374 31.3778L84.196 29.8785ZM82.9979 29.553C82.5526 29.4639 82.0828 29.4211 81.5909 29.4211V31.0211C81.9906 31.0211 82.3542 31.0559 82.6841 31.1219L82.9979 29.553ZM80.7909 30.2211V32.8667H82.3909V30.2211H80.7909ZM81.7603 33.6485L84.6675 33.0186L84.3287 31.4549L81.4215 32.0848L81.7603 33.6485ZM83.6981 32.2368V35.6673H85.2981V32.2368H83.6981ZM84.6675 34.8854L81.7603 34.2555L81.4215 35.8192L84.3287 36.4491L84.6675 34.8854ZM80.7909 35.0374V37.6636H82.3909V35.0374H80.7909ZM95.6719 37.6636H94.8719C94.8719 38.1054 95.23 38.4636 95.6719 38.4636V37.6636ZM96.9123 37.557L97.0565 38.3439L97.0691 38.3414L96.9123 37.557ZM97.9782 37.2662L97.712 36.5118L97.7073 36.5135L97.9782 37.2662ZM99.5675 36.4232V35.6232C99.3958 35.6232 99.2287 35.6784 99.0908 35.7807L99.5675 36.4232ZM101.186 36.4232H101.986C101.986 35.9813 101.628 35.6232 101.186 35.6232V36.4232ZM101.186 41.3848V42.1848C101.628 42.1848 101.986 41.8266 101.986 41.3848H101.186ZM88.2294 41.3848H87.4294C87.4294 41.8266 87.7876 42.1848 88.2294 42.1848V41.3848ZM88.2294 37.179L88.0761 36.3939C87.7005 36.4672 87.4294 36.7963 87.4294 37.179H88.2294ZM89.4698 36.9368L89.6232 37.7219C89.9988 37.6486 90.2698 37.3195 90.2698 36.9368H89.4698ZM89.4698 30.9673H90.2698C90.2698 30.5846 89.9988 30.2555 89.6232 30.1821L89.4698 30.9673ZM88.2294 30.725H87.4294C87.4294 31.1077 87.7005 31.4368 88.0761 31.5102L88.2294 30.725ZM88.2294 26.4999V25.6999C87.7876 25.6999 87.4294 26.0581 87.4294 26.4999H88.2294ZM101.186 26.4999H101.986C101.986 26.0581 101.628 25.6999 101.186 25.6999V26.4999ZM101.186 31.4615V32.2615C101.628 32.2615 101.986 31.9034 101.986 31.4615H101.186ZM99.6256 31.4615L99.1724 32.1208C99.3058 32.2125 99.4638 32.2615 99.6256 32.2615V31.4615ZM97.9976 30.6281L97.7183 31.3778C97.7242 31.38 97.73 31.3821 97.7359 31.3841L97.9976 30.6281ZM96.9219 30.3374L96.765 31.122L96.7777 31.1243L96.9219 30.3374ZM95.6719 30.2211V29.4211C95.23 29.4211 94.8719 29.7793 94.8719 30.2211H95.6719ZM95.6719 32.8667H94.8719C94.8719 33.1086 94.9813 33.3375 95.1696 33.4894C95.3579 33.6413 95.6048 33.6998 95.8413 33.6485L95.6719 32.8667ZM98.579 32.2368H99.379C99.379 31.9949 99.2696 31.766 99.0813 31.6141C98.893 31.4622 98.6461 31.4037 98.4096 31.4549L98.579 32.2368ZM98.579 35.6673L98.4096 36.4491C98.6461 36.5004 98.893 36.4419 99.0813 36.29C99.2696 36.1381 99.379 35.9092 99.379 35.6673H98.579ZM95.6719 35.0374L95.8413 34.2555C95.6048 34.2043 95.3579 34.2628 95.1696 34.4147C94.9813 34.5666 94.8719 34.7955 94.8719 35.0374H95.6719ZM95.6719 38.4636C96.1541 38.4636 96.6162 38.4246 97.0565 38.3438L96.768 36.7701C96.433 36.8315 96.0682 36.8636 95.6719 36.8636V38.4636ZM97.0691 38.3414C97.4899 38.2573 97.8839 38.1504 98.2492 38.0189L97.7073 36.5135C97.4265 36.6146 97.1099 36.7016 96.7554 36.7725L97.0691 38.3414ZM98.2445 38.0206C98.6109 37.8913 98.9508 37.7407 99.2612 37.5666L98.4784 36.1712C98.2589 36.2943 98.0045 36.4086 97.712 36.5118L98.2445 38.0206ZM99.2612 37.5666C99.5495 37.4049 99.8116 37.2382 100.044 37.0656L99.0908 35.7807C98.9229 35.9053 98.7198 36.0358 98.4784 36.1712L99.2612 37.5666ZM99.5675 37.2232H101.186V35.6232H99.5675V37.2232ZM100.386 36.4232V41.3848H101.986V36.4232H100.386ZM101.186 40.5848H88.2294V42.1848H101.186V40.5848ZM89.0294 41.3848V37.179H87.4294V41.3848H89.0294ZM88.3828 37.9642L89.6232 37.7219L89.3165 36.1516L88.0761 36.3939L88.3828 37.9642ZM90.2698 36.9368V30.9673H88.6698V36.9368H90.2698ZM89.6232 30.1821L88.3828 29.9399L88.0761 31.5102L89.3165 31.7525L89.6232 30.1821ZM89.0294 30.725V26.4999H87.4294V30.725H89.0294ZM88.2294 27.2999H101.186V25.6999H88.2294V27.2999ZM100.386 26.4999V31.4615H101.986V26.4999H100.386ZM101.186 30.6615H99.6256V32.2615H101.186V30.6615ZM100.079 30.8023C99.8455 30.6418 99.5826 30.4825 99.2928 30.3238L98.5243 31.7271C98.7771 31.8656 98.9924 31.997 99.1724 32.1208L100.079 30.8023ZM99.2928 30.3238C98.9769 30.1508 98.6314 30.001 98.2593 29.8721L97.7359 31.3841C98.0357 31.4879 98.2975 31.6029 98.5243 31.7271L99.2928 30.3238ZM98.2769 29.8785C97.8987 29.7376 97.4944 29.629 97.0662 29.5505L96.7777 31.1243C97.1247 31.1879 97.4376 31.2732 97.7183 31.3778L98.2769 29.8785ZM97.0788 29.553C96.6335 29.4639 96.1637 29.4211 95.6719 29.4211V31.0211C96.0715 31.0211 96.4351 31.0559 96.7651 31.1219L97.0788 29.553ZM94.8719 30.2211V32.8667H96.4719V30.2211H94.8719ZM95.8413 33.6485L98.7485 33.0186L98.4096 31.4549L95.5024 32.0848L95.8413 33.6485ZM97.779 32.2368V35.6673H99.379V32.2368H97.779ZM98.7485 34.8854L95.8413 34.2555L95.5024 35.8192L98.4096 36.4491L98.7485 34.8854ZM94.8719 35.0374V37.6636H96.4719V35.0374H94.8719ZM113.571 26.4999L113.738 25.7176C113.683 25.7058 113.627 25.6999 113.571 25.6999V26.4999ZM116.1 27.3721L115.737 28.0852L115.742 28.0876L116.1 27.3721ZM118.009 28.816L117.412 29.3479L117.415 29.3515L118.009 28.816ZM119.221 30.9285L118.463 31.1851L118.465 31.1923L119.221 30.9285ZM118.93 37.3728L119.647 37.7268L119.648 37.7249L118.93 37.3728ZM116.904 39.718L116.454 39.0569L116.452 39.0585L116.904 39.718ZM102.281 41.3848H101.481C101.481 41.8266 101.839 42.1848 102.281 42.1848V41.3848ZM102.281 37.179L102.128 36.3939C101.752 36.4672 101.481 36.7963 101.481 37.179H102.281ZM103.522 36.9368L103.675 37.7219C104.051 37.6486 104.322 37.3195 104.322 36.9368H103.522ZM103.522 30.5894H104.322C104.322 30.2067 104.051 29.8776 103.675 29.8042L103.522 30.5894ZM102.281 30.3471H101.481C101.481 30.7298 101.752 31.0589 102.128 31.1323L102.281 30.3471ZM102.281 26.4999V25.6999C101.839 25.6999 101.481 26.0581 101.481 26.4999H102.281ZM112.272 36.7139L112.567 37.4576L112.578 37.4531L112.272 36.7139ZM113.086 36.0646L112.409 35.6391L112.402 35.6507L113.086 36.0646ZM113.387 35.0665L112.589 35L112.589 35.0132L113.387 35.0665ZM113.387 32.4694L112.588 32.5217L112.59 32.5358L113.387 32.4694ZM113.086 31.4615L112.402 31.8755L112.409 31.8869L113.086 31.4615ZM112.272 30.822L111.966 31.5612L111.977 31.5656L112.272 30.822ZM109.724 30.5894V29.7894C109.282 29.7894 108.924 30.1475 108.924 30.5894H109.724ZM109.724 36.9368H108.924C108.924 37.3786 109.282 37.7368 109.724 37.7368V36.9368ZM113.404 27.2822C114.282 27.47 115.058 27.7395 115.737 28.0851L116.463 26.659C115.644 26.2424 114.734 25.9304 113.738 25.7176L113.404 27.2822ZM115.742 28.0876C116.407 28.4199 116.96 28.8407 117.412 29.3479L118.607 28.2841C118.012 27.6155 117.292 27.0737 116.458 26.6565L115.742 28.0876ZM117.415 29.3515C117.865 29.8512 118.217 30.4579 118.463 31.1851L119.978 30.672C119.669 29.7582 119.213 28.9566 118.604 28.2805L117.415 29.3515ZM118.465 31.1923C118.714 31.9033 118.847 32.7572 118.847 33.7679H120.447C120.447 32.6208 120.296 31.5819 119.976 30.6648L118.465 31.1923ZM118.847 33.7679C118.847 35.1104 118.622 36.1837 118.211 37.0208L119.648 37.7249C120.194 36.6109 120.447 35.2809 120.447 33.7679H118.847ZM118.212 37.0189C117.794 37.8674 117.209 38.5421 116.454 39.0569L117.355 40.3791C118.344 39.7051 119.11 38.8164 119.647 37.7268L118.212 37.0189ZM116.452 39.0585C115.687 39.5832 114.746 39.9738 113.609 40.2145L113.94 41.7798C115.245 41.5036 116.39 41.0415 117.357 40.3775L116.452 39.0585ZM113.609 40.2145C112.451 40.4595 111.157 40.5848 109.724 40.5848V42.1848C111.249 42.1848 112.656 42.0516 113.94 41.7798L113.609 40.2145ZM109.724 40.5848H102.281V42.1848H109.724V40.5848ZM103.081 41.3848V37.179H101.481V41.3848H103.081ZM102.435 37.9642L103.675 37.7219L103.368 36.1516L102.128 36.3939L102.435 37.9642ZM104.322 36.9368V30.5894H102.722V36.9368H104.322ZM103.675 29.8042L102.435 29.5619L102.128 31.1323L103.368 31.3745L103.675 29.8042ZM103.081 30.3471V26.4999H101.481V30.3471H103.081ZM102.281 27.2999H113.571V25.6999H102.281V27.2999ZM110.673 37.7368C111.404 37.7368 112.055 37.6608 112.567 37.4575L111.977 35.9702C111.741 36.0641 111.325 36.1368 110.673 36.1368V37.7368ZM112.578 37.4531C113.071 37.2492 113.495 36.9354 113.771 36.4785L112.402 35.6507C112.342 35.7494 112.223 35.8684 111.966 35.9747L112.578 37.4531ZM113.764 36.49C114.021 36.0811 114.152 35.6151 114.185 35.1197L112.589 35.0132C112.57 35.2931 112.501 35.4925 112.409 35.6392L113.764 36.49ZM114.184 35.1329C114.218 34.7189 114.235 34.2634 114.235 33.7679H112.635C112.635 34.2286 112.62 34.6388 112.59 35L114.184 35.1329ZM114.235 33.7679C114.235 33.2725 114.218 32.817 114.184 32.4029L112.59 32.5358C112.62 32.897 112.635 33.3072 112.635 33.7679H114.235ZM114.185 32.417C114.152 31.9173 114.022 31.4471 113.764 31.0361L112.409 31.8869C112.5 32.0316 112.57 32.2332 112.588 32.5217L114.185 32.417ZM113.771 31.0476C113.493 30.5872 113.064 30.2754 112.567 30.0783L111.977 31.5656C112.23 31.6657 112.344 31.7802 112.402 31.8755L113.771 31.0476ZM112.578 30.0827C112.061 29.8689 111.406 29.7894 110.673 29.7894V31.3894C111.323 31.3894 111.734 31.4649 111.966 31.5612L112.578 30.0827ZM110.673 29.7894H109.724V31.3894H110.673V29.7894ZM108.924 30.5894V36.9368H110.524V30.5894H108.924ZM109.724 37.7368H110.673V36.1368H109.724V37.7368Z" fill="black"/>
</svg>
