<svg width="132" height="64" viewBox="0 0 132 64" fill="none" xmlns="http://www.w3.org/2000/svg">
<rect x="2.04883" y="2.48438" width="127.322" height="58.9811" rx="6.04" fill="#A6A6A6" stroke="black" stroke-width="4"/>
<path d="M19.2087 22.9097H29.7614V28.0447L28.2539 28.3391V30.5651H34.284V28.3391L32.7764 28.0447V22.9097H43.3291V28.0447L41.8216 28.3391V35.5941L43.3291 35.8885V41H32.7764V35.8885L34.284 35.5941V33.2268H28.2539V35.5941L29.7614 35.8885V41H19.2087V35.8885L20.7162 35.5941V28.3391L19.2087 28.0447V22.9097ZM55.1778 41.212C54.2199 41.212 53.2934 41.1531 52.3983 41.0353C51.5111 40.9176 50.6749 40.6977 49.8897 40.3758C49.1124 40.0539 48.4018 39.6417 47.758 39.1391C47.1141 38.6288 46.5606 38.0203 46.0973 37.3136C45.6341 36.5991 45.2729 35.7825 45.0138 34.8639C44.7625 33.9374 44.6369 32.897 44.6369 31.7428C44.6369 30.6593 44.7625 29.6818 45.0138 28.8102C45.265 27.9387 45.6184 27.1653 46.0738 26.49C46.5292 25.8148 47.0749 25.2338 47.7109 24.747C48.3547 24.2602 49.0653 23.8637 49.8426 23.5574C50.6278 23.2434 51.4679 23.0117 52.363 22.8626C53.2659 22.7134 54.2042 22.6388 55.1778 22.6388C56.1514 22.6388 57.0897 22.7134 57.9927 22.8626C58.8956 23.0117 59.7397 23.2434 60.5248 23.5574C61.31 23.8715 62.0206 24.2719 62.6566 24.7587C63.3004 25.2456 63.85 25.8266 64.3054 26.5018C64.7608 27.1771 65.1142 27.9505 65.3654 28.822C65.6167 29.6857 65.7423 30.6593 65.7423 31.7428C65.7423 33.4388 65.4636 34.8953 64.9061 36.1123C64.3565 37.3215 63.6027 38.3108 62.6448 39.0803C61.6869 39.8497 60.568 40.3993 59.2882 40.7291C58.0084 41.051 56.6382 41.212 55.1778 41.212ZM55.1778 28.0211C54.6753 28.0211 54.2513 28.0879 53.9059 28.2213C53.5682 28.347 53.2856 28.5158 53.0579 28.7278C52.838 28.9398 52.6692 29.1793 52.5514 29.4462C52.4337 29.7132 52.3434 29.9841 52.2805 30.2589C52.2256 30.5337 52.1942 30.8006 52.1863 31.0597C52.1785 31.3188 52.1745 31.5465 52.1745 31.7428C52.1745 31.9391 52.1785 32.1668 52.1863 32.4259C52.1942 32.685 52.2256 32.9559 52.2805 33.2386C52.3434 33.5134 52.4337 33.7882 52.5514 34.063C52.6692 34.3378 52.838 34.5852 53.0579 34.805C53.2856 35.017 53.5682 35.1897 53.9059 35.3232C54.2513 35.4567 54.6753 35.5234 55.1778 35.5234C55.6803 35.5234 56.1004 35.4567 56.438 35.3232C56.7835 35.1897 57.0701 35.017 57.2978 34.805C57.5255 34.5852 57.6982 34.3378 57.816 34.063C57.9416 33.7882 58.0319 33.5134 58.0869 33.2386C58.1418 32.9559 58.1733 32.685 58.1811 32.4259C58.1968 32.1668 58.2047 31.9391 58.2047 31.7428C58.2047 31.5465 58.1968 31.3188 58.1811 31.0597C58.1733 30.8006 58.1418 30.5337 58.0869 30.2589C58.0319 29.9841 57.9416 29.7132 57.816 29.4462C57.6982 29.1793 57.5255 28.9398 57.2978 28.7278C57.0701 28.5158 56.7835 28.347 56.438 28.2213C56.1004 28.0879 55.6803 28.0211 55.1778 28.0211ZM76.0835 32.1786V41H67.0501V35.8885L68.5576 35.5941V28.3156L67.0501 28.0211V22.9097H76.0835L79.8758 29.8584L83.6329 22.9097H92.678V28.0211L91.1705 28.3156V35.5941L92.678 35.8885V41H83.6329V32.1786L79.8758 38.6798L76.0835 32.1786ZM103.643 36.4774C104.177 36.4774 104.68 36.4342 105.151 36.3479C105.622 36.2536 106.054 36.1359 106.446 35.9945C106.847 35.8532 107.208 35.6922 107.53 35.5117C107.852 35.3311 108.135 35.1505 108.378 34.9699H110.345V41H94.5983V35.8885L96.1058 35.5941V28.3391L94.5983 28.0447V22.9097H110.345V28.9398H108.449C108.197 28.767 107.907 28.5904 107.577 28.4098C107.247 28.2292 106.878 28.0682 106.47 27.9269C106.07 27.7777 105.634 27.66 105.163 27.5736C104.692 27.4794 104.185 27.4323 103.643 27.4323V30.6475L107.177 29.882V34.0512L103.643 33.2857V36.4774Z" fill="white"/>
<path d="M19.2087 22.9097V22.1097C18.7669 22.1097 18.4087 22.4678 18.4087 22.9097H19.2087ZM29.7614 22.9097H30.5614C30.5614 22.4678 30.2032 22.1097 29.7614 22.1097V22.9097ZM29.7614 28.0447L29.9147 28.8299C30.2903 28.7565 30.5614 28.4274 30.5614 28.0447H29.7614ZM28.2539 28.3391L28.1005 27.554C27.7249 27.6273 27.4539 27.9564 27.4539 28.3391H28.2539ZM28.2539 30.5651H27.4539C27.4539 31.0069 27.812 31.3651 28.2539 31.3651V30.5651ZM34.284 30.5651V31.3651C34.7258 31.3651 35.084 31.0069 35.084 30.5651H34.284ZM34.284 28.3391H35.084C35.084 27.9564 34.8129 27.6273 34.4373 27.554L34.284 28.3391ZM32.7764 28.0447H31.9764C31.9764 28.4274 32.2475 28.7565 32.6231 28.8299L32.7764 28.0447ZM32.7764 22.9097V22.1097C32.3346 22.1097 31.9764 22.4678 31.9764 22.9097H32.7764ZM43.3291 22.9097H44.1291C44.1291 22.4678 43.771 22.1097 43.3291 22.1097V22.9097ZM43.3291 28.0447L43.4825 28.8299C43.8581 28.7565 44.1291 28.4274 44.1291 28.0447H43.3291ZM41.8216 28.3391L41.6683 27.554C41.2926 27.6273 41.0216 27.9564 41.0216 28.3391H41.8216ZM41.8216 35.5941H41.0216C41.0216 35.9768 41.2926 36.3059 41.6683 36.3793L41.8216 35.5941ZM43.3291 35.8885H44.1291C44.1291 35.5058 43.8581 35.1767 43.4825 35.1034L43.3291 35.8885ZM43.3291 41V41.8C43.771 41.8 44.1291 41.4418 44.1291 41H43.3291ZM32.7764 41H31.9764C31.9764 41.4418 32.3346 41.8 32.7764 41.8V41ZM32.7764 35.8885L32.6231 35.1034C32.2475 35.1767 31.9764 35.5058 31.9764 35.8885H32.7764ZM34.284 35.5941L34.4373 36.3793C34.8129 36.3059 35.084 35.9768 35.084 35.5941H34.284ZM34.284 33.2268H35.084C35.084 32.785 34.7258 32.4268 34.284 32.4268V33.2268ZM28.2539 33.2268V32.4268C27.812 32.4268 27.4539 32.785 27.4539 33.2268H28.2539ZM28.2539 35.5941H27.4539C27.4539 35.9768 27.7249 36.3059 28.1005 36.3793L28.2539 35.5941ZM29.7614 35.8885H30.5614C30.5614 35.5058 30.2903 35.1767 29.9147 35.1034L29.7614 35.8885ZM29.7614 41V41.8C30.2032 41.8 30.5614 41.4418 30.5614 41H29.7614ZM19.2087 41H18.4087C18.4087 41.4418 18.7669 41.8 19.2087 41.8V41ZM19.2087 35.8885L19.0553 35.1034C18.6797 35.1767 18.4087 35.5058 18.4087 35.8885H19.2087ZM20.7162 35.5941L20.8696 36.3793C21.2452 36.3059 21.5162 35.9768 21.5162 35.5941H20.7162ZM20.7162 28.3391H21.5162C21.5162 27.9564 21.2452 27.6273 20.8696 27.554L20.7162 28.3391ZM19.2087 28.0447H18.4087C18.4087 28.4274 18.6797 28.7565 19.0553 28.8299L19.2087 28.0447ZM19.2087 23.7097H29.7614V22.1097H19.2087V23.7097ZM28.9614 22.9097V28.0447H30.5614V22.9097H28.9614ZM29.608 27.2595L28.1005 27.554L28.4072 29.1243L29.9147 28.8299L29.608 27.2595ZM27.4539 28.3391V30.5651H29.0539V28.3391H27.4539ZM28.2539 31.3651H34.284V29.7651H28.2539V31.3651ZM35.084 30.5651V28.3391H33.484V30.5651H35.084ZM34.4373 27.554L32.9298 27.2595L32.6231 28.8299L34.1306 29.1243L34.4373 27.554ZM33.5764 28.0447V22.9097H31.9764V28.0447H33.5764ZM32.7764 23.7097H43.3291V22.1097H32.7764V23.7097ZM42.5291 22.9097V28.0447H44.1291V22.9097H42.5291ZM43.1758 27.2595L41.6683 27.554L41.975 29.1243L43.4825 28.8299L43.1758 27.2595ZM41.0216 28.3391V35.5941H42.6216V28.3391H41.0216ZM41.6683 36.3793L43.1758 36.6737L43.4825 35.1034L41.975 34.8089L41.6683 36.3793ZM42.5291 35.8885V41H44.1291V35.8885H42.5291ZM43.3291 40.2H32.7764V41.8H43.3291V40.2ZM33.5764 41V35.8885H31.9764V41H33.5764ZM32.9298 36.6737L34.4373 36.3793L34.1306 34.8089L32.6231 35.1034L32.9298 36.6737ZM35.084 35.5941V33.2268H33.484V35.5941H35.084ZM34.284 32.4268H28.2539V34.0268H34.284V32.4268ZM27.4539 33.2268V35.5941H29.0539V33.2268H27.4539ZM28.1005 36.3793L29.608 36.6737L29.9147 35.1034L28.4072 34.8089L28.1005 36.3793ZM28.9614 35.8885V41H30.5614V35.8885H28.9614ZM29.7614 40.2H19.2087V41.8H29.7614V40.2ZM20.0087 41V35.8885H18.4087V41H20.0087ZM19.362 36.6737L20.8696 36.3793L20.5629 34.8089L19.0553 35.1034L19.362 36.6737ZM21.5162 35.5941V28.3391H19.9162V35.5941H21.5162ZM20.8696 27.554L19.362 27.2595L19.0553 28.8299L20.5629 29.1243L20.8696 27.554ZM20.0087 28.0447V22.9097H18.4087V28.0447H20.0087ZM52.3983 41.0353L52.2931 41.8284L52.294 41.8285L52.3983 41.0353ZM49.8897 40.3758L49.5836 41.1149L49.5862 41.116L49.8897 40.3758ZM47.758 39.1391L47.261 39.7661L47.2657 39.7698L47.758 39.1391ZM46.0973 37.3136L45.4261 37.7488L45.4283 37.7522L46.0973 37.3136ZM45.0138 34.8639L44.2416 35.0733L44.2438 35.0811L45.0138 34.8639ZM47.7109 24.747L47.2284 24.1088L47.2246 24.1117L47.7109 24.747ZM49.8426 23.5574L50.1358 24.3018L50.1397 24.3002L49.8426 23.5574ZM52.363 22.8626L52.2326 22.0733L52.2315 22.0734L52.363 22.8626ZM62.6566 24.7587L62.1703 25.394L62.1741 25.3969L62.6566 24.7587ZM65.3654 28.822L64.5967 29.0436L64.5973 29.0455L65.3654 28.822ZM64.9061 36.1123L64.1788 35.7791L64.1778 35.7813L64.9061 36.1123ZM59.2882 40.7291L59.4833 41.505L59.4878 41.5038L59.2882 40.7291ZM53.9059 28.2213L54.1849 28.9712L54.1942 28.9676L53.9059 28.2213ZM53.0579 28.7278L52.5126 28.1422L52.5026 28.1519L53.0579 28.7278ZM52.2805 30.2589L51.5007 30.0806C51.499 30.0877 51.4975 30.0948 51.4961 30.102L52.2805 30.2589ZM52.2805 33.2386L51.4953 33.3913C51.4969 33.3998 51.4987 33.4084 51.5007 33.4168L52.2805 33.2386ZM53.0579 34.805L52.4922 35.3707C52.4989 35.3774 52.5058 35.384 52.5127 35.3905L53.0579 34.805ZM53.9059 35.3232L53.6117 36.0672L53.6175 36.0695L53.9059 35.3232ZM56.438 35.3232L56.1497 34.577L56.1439 34.5792L56.438 35.3232ZM57.2978 34.805L57.8429 35.3905C57.8465 35.3872 57.85 35.3839 57.8535 35.3805L57.2978 34.805ZM57.816 34.063L57.0884 33.7304C57.0858 33.7362 57.0832 33.742 57.0807 33.7479L57.816 34.063ZM58.0869 33.2386L58.8714 33.3955L58.8722 33.3913L58.0869 33.2386ZM58.1811 32.4259L57.3826 32.3775C57.3821 32.3856 57.3817 32.3936 57.3815 32.4017L58.1811 32.4259ZM58.1811 31.0597L57.3815 31.084C57.3817 31.092 57.3821 31.1001 57.3826 31.1081L58.1811 31.0597ZM57.816 29.4462L57.0841 29.7691C57.0867 29.7751 57.0894 29.781 57.0921 29.7869L57.816 29.4462ZM56.438 28.2213L56.1439 28.9653C56.1508 28.968 56.1577 28.9707 56.1646 28.9732L56.438 28.2213ZM55.1778 40.412C54.2527 40.412 53.3612 40.3551 52.5027 40.2422L52.294 41.8285C53.2257 41.9511 54.1871 42.012 55.1778 42.012V40.412ZM52.5036 40.2423C51.6807 40.1331 50.9114 39.9301 50.1932 39.6356L49.5862 41.116C50.4383 41.4653 51.3415 41.7021 52.2931 41.8284L52.5036 40.2423ZM50.1958 39.6367C49.4831 39.3415 48.8355 38.9653 48.2502 38.5085L47.2657 39.7698C47.9682 40.318 48.7417 40.7662 49.5836 41.1149L50.1958 39.6367ZM48.2549 38.5122C47.6801 38.0565 47.1841 37.5122 46.7664 36.875L45.4283 37.7522C45.9371 38.5284 46.5482 39.201 47.261 39.7661L48.2549 38.5122ZM46.7686 36.8784C46.3539 36.2388 46.0237 35.4974 45.7838 34.6467L44.2438 35.0811C44.5221 36.0677 44.9143 36.9594 45.4261 37.7488L46.7686 36.8784ZM45.7859 34.6545C45.5564 33.8084 45.4369 32.8401 45.4369 31.7428H43.8369C43.8369 32.954 43.9686 34.0664 44.2417 35.0733L45.7859 34.6545ZM45.4369 31.7428C45.4369 30.7202 45.5556 29.8189 45.7825 29.0318L44.2451 28.5886C43.9695 29.5446 43.8369 30.5984 43.8369 31.7428H45.4369ZM45.7825 29.0318C46.0132 28.2315 46.3333 27.536 46.737 26.9374L45.4105 26.0427C44.9034 26.7946 44.5169 27.6458 44.2451 28.5886L45.7825 29.0318ZM46.737 26.9374C47.1448 26.3327 47.6311 25.8155 48.1971 25.3822L47.2246 24.1117C46.5187 24.6521 45.9135 25.2969 45.4105 26.0427L46.737 26.9374ZM48.1933 25.3851C48.7772 24.9436 49.4237 24.5823 50.1358 24.3018L49.5494 22.8131C48.7068 23.145 47.9322 23.5767 47.2284 24.1088L48.1933 25.3851ZM50.1397 24.3002C50.8678 24.009 51.652 23.7921 52.4945 23.6517L52.2315 22.0734C51.2838 22.2314 50.3878 22.4777 49.5455 22.8147L50.1397 24.3002ZM52.4934 23.6519C53.3506 23.5102 54.2451 23.4388 55.1778 23.4388V21.8388C54.1633 21.8388 53.1813 21.9165 52.2326 22.0733L52.4934 23.6519ZM55.1778 23.4388C56.1105 23.4388 57.0051 23.5102 57.8623 23.6519L58.1231 22.0733C57.1744 21.9165 56.1924 21.8388 55.1778 21.8388V23.4388ZM57.8623 23.6519C58.7128 23.7924 59.5005 24.0093 60.2277 24.3002L60.822 22.8147C59.9789 22.4774 59.0785 22.2311 58.1231 22.0733L57.8623 23.6519ZM60.2277 24.3002C60.949 24.5887 61.5953 24.9539 62.1703 25.394L63.1428 24.1235C62.4458 23.59 61.671 23.1543 60.822 22.8147L60.2277 24.3002ZM62.1741 25.3969C62.7469 25.83 63.2356 26.3464 63.6422 26.9491L64.9687 26.0545C64.4644 25.3068 63.8539 24.6611 63.1391 24.1206L62.1741 25.3969ZM63.6422 26.9491C64.0459 27.5477 64.366 28.2433 64.5967 29.0436L66.1341 28.6004C65.8623 27.6576 65.4758 26.8064 64.9687 26.0545L63.6422 26.9491ZM64.5973 29.0455C64.8236 29.8235 64.9423 30.72 64.9423 31.7428H66.5423C66.5423 30.5986 66.4097 29.5479 66.1336 28.5985L64.5973 29.0455ZM64.9423 31.7428C64.9423 33.3535 64.6774 34.6907 64.1788 35.7792L65.6334 36.4455C66.2498 35.0999 66.5423 33.5241 66.5423 31.7428H64.9423ZM64.1778 35.7813C63.6757 36.8859 62.9963 37.7718 62.1438 38.4566L63.1458 39.704C64.2091 38.8498 65.0372 37.7571 65.6344 36.4434L64.1778 35.7813ZM62.1438 38.4566C61.281 39.1496 60.2668 39.6508 59.0886 39.9544L59.4878 41.5038C60.8692 41.1479 62.0927 40.5499 63.1458 39.704L62.1438 38.4566ZM59.093 39.9533C57.8834 40.2576 56.5794 40.412 55.1778 40.412V42.012C56.6971 42.012 58.1333 41.8445 59.4833 41.5049L59.093 39.9533ZM55.1778 27.2211C54.6097 27.2211 54.0814 27.2959 53.6175 27.4751L54.1942 28.9676C54.4213 28.8798 54.741 28.8211 55.1778 28.8211V27.2211ZM53.6269 27.4716C53.206 27.6282 52.8287 27.8481 52.5127 28.1423L53.603 29.3133C53.7425 29.1834 53.9305 29.0658 54.1848 28.9711L53.6269 27.4716ZM52.5026 28.1519C52.2115 28.4325 51.9811 28.757 51.8195 29.1233L53.2834 29.7691C53.3573 29.6016 53.4645 29.447 53.6132 29.3037L52.5026 28.1519ZM51.8195 29.1233C51.6819 29.4352 51.5752 29.7545 51.5007 30.0806L53.0604 30.4371C53.1115 30.2137 53.1854 29.9911 53.2834 29.7691L51.8195 29.1233ZM51.4961 30.102C51.4331 30.417 51.396 30.7284 51.3867 31.0355L52.986 31.084C52.9924 30.8729 53.0181 30.6503 53.065 30.4158L51.4961 30.102ZM51.3867 31.0355C51.3787 31.3003 51.3745 31.5364 51.3745 31.7428H52.9745C52.9745 31.5567 52.9783 31.3374 52.986 31.084L51.3867 31.0355ZM51.3745 31.7428C51.3745 31.9493 51.3787 32.1854 51.3867 32.4502L52.986 32.4017C52.9783 32.1483 52.9745 31.929 52.9745 31.7428H51.3745ZM51.3867 32.4502C51.396 32.7568 51.4329 33.0708 51.4953 33.3913L53.0658 33.0859C53.0182 32.841 52.9924 32.6132 52.986 32.4017L51.3867 32.4502ZM51.5007 33.4168C51.5748 33.7413 51.6805 34.0618 51.8161 34.3782L53.2867 33.7479C53.1868 33.5146 53.1119 33.2855 53.0604 33.0603L51.5007 33.4168ZM51.8161 34.3782C51.9756 34.7502 52.2033 35.0818 52.4922 35.3707L53.6236 34.2393C53.4727 34.0885 53.3628 33.9254 53.2867 33.7479L51.8161 34.3782ZM52.5127 35.3905C52.8246 35.6809 53.1965 35.903 53.6117 36.0672L54.2 34.5792C53.9399 34.4764 53.7465 34.3531 53.603 34.2195L52.5127 35.3905ZM53.6175 36.0695C54.0814 36.2487 54.6097 36.3234 55.1778 36.3234V34.7234C54.741 34.7234 54.4213 34.6647 54.1942 34.577L53.6175 36.0695ZM55.1778 36.3234C55.745 36.3234 56.2724 36.2489 56.7322 36.0672L56.1439 34.5792C55.9284 34.6644 55.6156 34.7234 55.1778 34.7234V36.3234ZM56.7263 36.0695C57.1492 35.9061 57.5279 35.6838 57.8429 35.3905L56.7527 34.2195C56.6123 34.3502 56.4178 34.4734 56.1497 34.577L56.7263 36.0695ZM57.8535 35.3805C58.1532 35.0911 58.3892 34.7565 58.5513 34.3782L57.0807 33.7479C57.0073 33.9191 56.8978 34.0792 56.7421 34.2295L57.8535 35.3805ZM58.5436 34.3956C58.6929 34.069 58.8034 33.7354 58.8713 33.3955L57.3024 33.0817C57.2605 33.2914 57.1904 33.5074 57.0884 33.7304L58.5436 34.3956ZM58.8722 33.3913C58.9345 33.0708 58.9714 32.7568 58.9807 32.4502L57.3815 32.4017C57.3751 32.6132 57.3492 32.841 57.3016 33.0859L58.8722 33.3913ZM58.9796 32.4743C58.996 32.2039 59.0047 31.9594 59.0047 31.7428H57.4047C57.4047 31.9188 57.3976 32.1298 57.3826 32.3775L58.9796 32.4743ZM59.0047 31.7428C59.0047 31.5262 58.996 31.2818 58.9796 31.0113L57.3826 31.1081C57.3976 31.3559 57.4047 31.5669 57.4047 31.7428H59.0047ZM58.9807 31.0355C58.9714 30.7284 58.9344 30.417 58.8713 30.102L57.3024 30.4158C57.3493 30.6503 57.3751 30.8729 57.3815 31.084L58.9807 31.0355ZM58.8713 30.102C58.803 29.7604 58.6916 29.428 58.5399 29.1056L57.0921 29.7869C57.1917 29.9983 57.2608 30.2077 57.3024 30.4158L58.8713 30.102ZM58.5479 29.1233C58.3835 28.7506 58.1447 28.4233 57.8429 28.1423L56.7527 29.3133C56.9063 29.4563 57.0129 29.6079 57.0841 29.7691L58.5479 29.1233ZM57.8429 28.1423C57.5238 27.8452 57.1397 27.6252 56.7114 27.4695L56.1646 28.9732C56.4273 29.0687 56.6164 29.1864 56.7527 29.3133L57.8429 28.1423ZM56.7322 27.4774C56.2724 27.2956 55.745 27.2211 55.1778 27.2211V28.8211C55.6156 28.8211 55.9284 28.8801 56.1439 28.9653L56.7322 27.4774ZM76.0835 32.1786L76.7745 31.7755C76.5924 31.4633 76.2236 31.312 75.8747 31.4063C75.5258 31.5007 75.2835 31.8172 75.2835 32.1786H76.0835ZM76.0835 41V41.8C76.5253 41.8 76.8835 41.4418 76.8835 41H76.0835ZM67.0501 41H66.2501C66.2501 41.4418 66.6082 41.8 67.0501 41.8V41ZM67.0501 35.8885L66.8967 35.1034C66.5211 35.1767 66.2501 35.5058 66.2501 35.8885H67.0501ZM68.5576 35.5941L68.711 36.3793C69.0866 36.3059 69.3576 35.9768 69.3576 35.5941H68.5576ZM68.5576 28.3156H69.3576C69.3576 27.9329 69.0866 27.6038 68.711 27.5304L68.5576 28.3156ZM67.0501 28.0211H66.2501C66.2501 28.4038 66.5211 28.7329 66.8967 28.8063L67.0501 28.0211ZM67.0501 22.9097V22.1097C66.6082 22.1097 66.2501 22.4678 66.2501 22.9097H67.0501ZM76.0835 22.9097L76.7857 22.5264C76.6455 22.2695 76.3762 22.1097 76.0835 22.1097V22.9097ZM79.8758 29.8584L79.1736 30.2417C79.3141 30.4991 79.5842 30.659 79.8774 30.6584C80.1707 30.6579 80.4401 30.4969 80.5796 30.2389L79.8758 29.8584ZM83.6329 22.9097V22.1097C83.3391 22.1097 83.0689 22.2707 82.9292 22.5292L83.6329 22.9097ZM92.678 22.9097H93.478C93.478 22.4678 93.1199 22.1097 92.678 22.1097V22.9097ZM92.678 28.0211L92.8314 28.8063C93.207 28.7329 93.478 28.4038 93.478 28.0211H92.678ZM91.1705 28.3156L91.0172 27.5304C90.6416 27.6038 90.3705 27.9329 90.3705 28.3156H91.1705ZM91.1705 35.5941H90.3705C90.3705 35.9768 90.6416 36.3059 91.0172 36.3793L91.1705 35.5941ZM92.678 35.8885H93.478C93.478 35.5058 93.207 35.1767 92.8314 35.1034L92.678 35.8885ZM92.678 41V41.8C93.1199 41.8 93.478 41.4418 93.478 41H92.678ZM83.6329 41H82.8329C82.8329 41.4418 83.1911 41.8 83.6329 41.8V41ZM83.6329 32.1786H84.4329C84.4329 31.8166 84.1898 31.4997 83.8401 31.4059C83.4904 31.3121 83.1214 31.4649 82.9402 31.7783L83.6329 32.1786ZM79.8758 38.6798L79.1848 39.0829C79.3285 39.3292 79.5924 39.4804 79.8775 39.4798C80.1626 39.4792 80.4258 39.327 80.5685 39.0801L79.8758 38.6798ZM75.2835 32.1786V41H76.8835V32.1786H75.2835ZM76.0835 40.2H67.0501V41.8H76.0835V40.2ZM67.8501 41V35.8885H66.2501V41H67.8501ZM67.2034 36.6737L68.711 36.3793L68.4043 34.8089L66.8967 35.1034L67.2034 36.6737ZM69.3576 35.5941V28.3156H67.7576V35.5941H69.3576ZM68.711 27.5304L67.2034 27.236L66.8967 28.8063L68.4043 29.1007L68.711 27.5304ZM67.8501 28.0211V22.9097H66.2501V28.0211H67.8501ZM67.0501 23.7097H76.0835V22.1097H67.0501V23.7097ZM75.3812 23.2929L79.1736 30.2417L80.5781 29.4752L76.7857 22.5264L75.3812 23.2929ZM80.5796 30.2389L84.3366 23.2902L82.9292 22.5292L79.1721 29.4779L80.5796 30.2389ZM83.6329 23.7097H92.678V22.1097H83.6329V23.7097ZM91.878 22.9097V28.0211H93.478V22.9097H91.878ZM92.5247 27.236L91.0172 27.5304L91.3239 29.1007L92.8314 28.8063L92.5247 27.236ZM90.3705 28.3156V35.5941H91.9705V28.3156H90.3705ZM91.0172 36.3793L92.5247 36.6737L92.8314 35.1034L91.3239 34.8089L91.0172 36.3793ZM91.878 35.8885V41H93.478V35.8885H91.878ZM92.678 40.2H83.6329V41.8H92.678V40.2ZM84.4329 41V32.1786H82.8329V41H84.4329ZM82.9402 31.7783L79.1832 38.2795L80.5685 39.0801L84.3255 32.5789L82.9402 31.7783ZM80.5669 38.2767L76.7745 31.7755L75.3924 32.5817L79.1848 39.0829L80.5669 38.2767ZM103.643 36.4774H102.843C102.843 36.9192 103.202 37.2774 103.643 37.2774V36.4774ZM105.151 36.3479L105.295 37.1349L105.308 37.1323L105.151 36.3479ZM106.446 35.9945L106.18 35.2401L106.176 35.2418L106.446 35.9945ZM108.378 34.9699V34.1699C108.206 34.1699 108.039 34.2251 107.901 34.3274L108.378 34.9699ZM110.345 34.9699H111.145C111.145 34.5281 110.787 34.1699 110.345 34.1699V34.9699ZM110.345 41V41.8C110.787 41.8 111.145 41.4418 111.145 41H110.345ZM94.5983 41H93.7983C93.7983 41.4418 94.1564 41.8 94.5983 41.8V41ZM94.5983 35.8885L94.4449 35.1034C94.0693 35.1767 93.7983 35.5058 93.7983 35.8885H94.5983ZM96.1058 35.5941L96.2591 36.3793C96.6347 36.3059 96.9058 35.9768 96.9058 35.5941H96.1058ZM96.1058 28.3391H96.9058C96.9058 27.9564 96.6347 27.6273 96.2591 27.554L96.1058 28.3391ZM94.5983 28.0447H93.7983C93.7983 28.4274 94.0693 28.7565 94.4449 28.8299L94.5983 28.0447ZM94.5983 22.9097V22.1097C94.1564 22.1097 93.7983 22.4678 93.7983 22.9097H94.5983ZM110.345 22.9097H111.145C111.145 22.4678 110.787 22.1097 110.345 22.1097V22.9097ZM110.345 28.9398V29.7398C110.787 29.7398 111.145 29.3816 111.145 28.9398H110.345ZM108.449 28.9398L107.995 29.599C108.129 29.6907 108.287 29.7398 108.449 29.7398V28.9398ZM106.47 27.9269L106.191 28.6766C106.197 28.6788 106.202 28.6809 106.208 28.6829L106.47 27.9269ZM105.163 27.5736L105.006 28.3581L105.018 28.3605L105.163 27.5736ZM103.643 27.4323V26.6323C103.202 26.6323 102.843 26.9904 102.843 27.4323H103.643ZM103.643 30.6475H102.843C102.843 30.8894 102.953 31.1184 103.141 31.2702C103.329 31.4221 103.576 31.4806 103.813 31.4294L103.643 30.6475ZM107.177 29.882H107.977C107.977 29.6401 107.867 29.4112 107.679 29.2593C107.491 29.1074 107.244 29.0489 107.007 29.1001L107.177 29.882ZM107.177 34.0512L107.007 34.8331C107.244 34.8843 107.491 34.8258 107.679 34.6739C107.867 34.5221 107.977 34.2932 107.977 34.0512H107.177ZM103.643 33.2857L103.813 32.5038C103.576 32.4526 103.329 32.5111 103.141 32.663C102.953 32.8149 102.843 33.0438 102.843 33.2857H103.643ZM103.643 37.2774C104.22 37.2774 104.771 37.2308 105.295 37.1347L105.007 35.561C104.588 35.6377 104.134 35.6774 103.643 35.6774V37.2774ZM105.308 37.1323C105.812 37.0315 106.283 36.9038 106.717 36.7472L106.176 35.2418C105.825 35.3679 105.432 35.4758 104.994 35.5634L105.308 37.1323ZM106.713 36.7489C107.15 36.5946 107.554 36.4155 107.921 36.2094L107.139 34.8139C106.862 34.969 106.544 35.1119 106.18 35.2401L106.713 36.7489ZM107.921 36.2094C108.267 36.0156 108.579 35.8169 108.855 35.6124L107.901 34.3274C107.69 34.484 107.437 34.6465 107.139 34.8139L107.921 36.2094ZM108.378 35.7699H110.345V34.1699H108.378V35.7699ZM109.545 34.9699V41H111.145V34.9699H109.545ZM110.345 40.2H94.5983V41.8H110.345V40.2ZM95.3983 41V35.8885H93.7983V41H95.3983ZM94.7516 36.6737L96.2591 36.3793L95.9524 34.8089L94.4449 35.1034L94.7516 36.6737ZM96.9058 35.5941V28.3391H95.3058V35.5941H96.9058ZM96.2591 27.554L94.7516 27.2595L94.4449 28.8299L95.9524 29.1243L96.2591 27.554ZM95.3983 28.0447V22.9097H93.7983V28.0447H95.3983ZM94.5983 23.7097H110.345V22.1097H94.5983V23.7097ZM109.545 22.9097V28.9398H111.145V22.9097H109.545ZM110.345 28.1398H108.449V29.7398H110.345V28.1398ZM108.902 28.2805C108.624 28.0895 108.31 27.8988 107.961 27.7081L107.193 29.1115C107.504 29.2819 107.771 29.4446 107.995 29.599L108.902 28.2805ZM107.961 27.7081C107.587 27.5031 107.176 27.3248 106.732 27.1709L106.208 28.6829C106.58 28.8117 106.908 28.9553 107.193 29.1115L107.961 27.7081ZM106.749 27.1772C106.3 27.0099 105.819 26.8805 105.307 26.7867L105.018 28.3605C105.449 28.4394 105.839 28.5455 106.191 28.6766L106.749 27.1772ZM105.32 26.7891C104.791 26.6834 104.231 26.6323 103.643 26.6323V28.2323C104.139 28.2323 104.592 28.2754 105.006 28.358L105.32 26.7891ZM102.843 27.4323V30.6475H104.443V27.4323H102.843ZM103.813 31.4294L107.346 30.6638L107.007 29.1001L103.474 29.8657L103.813 31.4294ZM106.377 29.882V34.0512H107.977V29.882H106.377ZM107.346 33.2694L103.813 32.5038L103.474 34.0676L107.007 34.8331L107.346 33.2694ZM102.843 33.2857V36.4774H104.443V33.2857H102.843Z" fill="black"/>
</svg>
