<svg width="229" height="159" viewBox="0 0 229 159" fill="none" xmlns="http://www.w3.org/2000/svg">
<rect x="51.9114" y="55.0676" width="133.255" height="60.957" rx="5.20479" fill="#FF6700" stroke="black" stroke-width="5.67042"/>
<rect x="43.6887" y="43.7268" width="133.255" height="60.957" rx="5.20479" fill="#EFEFEF" stroke="black" stroke-width="5.67042"/>
<path d="M67.5353 74.645V81.9033H60.1026V77.6976L61.343 77.4553V71.4665L60.1026 71.2242V67.0185H67.5353L70.6557 72.736L73.747 67.0185H81.1894V71.2242L79.949 71.4665V77.4553L81.1894 77.6976V81.9033H73.747V74.645L70.6557 79.9943L67.5353 74.645ZM86.51 81.9033V77.717L87.7504 77.4069L83.4962 71.4568L81.9263 71.2242V67.0185H90.2021V71.2242L89.2331 71.4568L91.2003 74.4997L93.1675 71.4568L92.1984 71.2242V67.0185H100.465V71.2242L98.9043 71.4568L94.6501 77.4069L95.8905 77.717V81.9033H86.51ZM108.654 73.3852L111.289 72.7553V76.1858L108.654 75.5559V77.4553L109.894 77.7363V81.9033H101.211V77.6976L102.452 77.4553V71.4859L101.211 71.2436V67.0185H113.198V71.9801H111.57C111.415 71.838 111.238 71.6926 111.037 71.544C110.844 71.3954 110.624 71.263 110.378 71.1467C110.139 71.0239 109.875 70.927 109.584 70.856C109.3 70.7784 108.989 70.7397 108.654 70.7397V73.3852ZM121.591 78.1821C122.03 78.1821 122.444 78.1466 122.831 78.0755C123.219 77.998 123.574 77.9011 123.897 77.7848C124.227 77.6685 124.524 77.5361 124.789 77.3875C125.054 77.2389 125.286 77.0903 125.487 76.9417H127.105V81.9033H114.149V77.6976L115.389 77.4553V71.4859L114.149 71.2436V67.0185H127.105V71.9801H125.545C125.338 71.838 125.099 71.6926 124.828 71.544C124.556 71.3954 124.253 71.263 123.917 71.1467C123.587 71.0239 123.229 70.927 122.841 70.856C122.453 70.7784 122.037 70.7397 121.591 70.7397V73.3852L124.498 72.7553V76.1858L121.591 75.5559V78.1821ZM135.672 78.1821C136.111 78.1821 136.525 78.1466 136.912 78.0755C137.3 77.998 137.655 77.9011 137.978 77.7848C138.308 77.6685 138.605 77.5361 138.87 77.3875C139.135 77.2389 139.367 77.0903 139.567 76.9417H141.186V81.9033H128.229V77.6976L129.47 77.4553V71.4859L128.229 71.2436V67.0185H141.186V71.9801H139.626C139.419 71.838 139.18 71.6926 138.909 71.544C138.637 71.3954 138.334 71.263 137.998 71.1467C137.668 71.0239 137.31 70.927 136.922 70.856C136.534 70.7784 136.118 70.7397 135.672 70.7397V73.3852L138.579 72.7553V76.1858L135.672 75.5559V78.1821ZM153.571 67.0185C154.508 67.2187 155.351 67.5095 156.1 67.8906C156.85 68.2653 157.486 68.7466 158.009 69.3345C158.539 69.9224 158.943 70.6266 159.221 71.4471C159.505 72.2611 159.647 73.2076 159.647 74.2865C159.647 75.7142 159.408 76.9159 158.93 77.8914C158.452 78.8605 157.777 79.6422 156.904 80.2365C156.039 80.8309 154.995 81.2573 153.774 81.5157C152.553 81.7741 151.203 81.9033 149.724 81.9033H142.281V77.6976L143.522 77.4553V71.1079L142.281 70.8657V67.0185H153.571ZM150.673 77.4553C151.365 77.4553 151.898 77.381 152.272 77.2324C152.647 77.0774 152.918 76.8609 153.086 76.5832C153.261 76.3054 153.361 75.9726 153.387 75.585C153.419 75.1974 153.435 74.7645 153.435 74.2865C153.435 73.8084 153.419 73.3755 153.387 72.9879C153.361 72.5938 153.261 72.2579 153.086 71.9801C152.918 71.7023 152.647 71.4891 152.272 71.3405C151.898 71.1855 151.365 71.1079 150.673 71.1079H149.724V77.4553H150.673Z" fill="#FF6700"/>
<path d="M67.5353 74.645L68.27 74.2164C68.0764 73.8845 67.6843 73.7236 67.3133 73.8239C66.9424 73.9242 66.6847 74.2608 66.6847 74.645H67.5353ZM67.5353 81.9033V82.7539C68.005 82.7539 68.3859 82.3731 68.3859 81.9033H67.5353ZM60.1026 81.9033H59.252C59.252 82.3731 59.6328 82.7539 60.1026 82.7539V81.9033ZM60.1026 77.6976L59.9395 76.8628C59.5402 76.9408 59.252 77.2907 59.252 77.6976H60.1026ZM61.343 77.4553L61.506 78.2901C61.9054 78.2121 62.1935 77.8622 62.1935 77.4553H61.343ZM61.343 71.4665H62.1935C62.1935 71.0596 61.9054 70.7097 61.506 70.6317L61.343 71.4665ZM60.1026 71.2242H59.252C59.252 71.6311 59.5402 71.981 59.9395 72.059L60.1026 71.2242ZM60.1026 67.0185V66.1679C59.6328 66.1679 59.252 66.5487 59.252 67.0185H60.1026ZM67.5353 67.0185L68.2819 66.611C68.1328 66.3378 67.8465 66.1679 67.5353 66.1679V67.0185ZM70.6557 72.736L69.9091 73.1434C70.0584 73.4171 70.3456 73.5871 70.6574 73.5865C70.9691 73.5859 71.2556 73.4148 71.4039 73.1405L70.6557 72.736ZM73.747 67.0185V66.1679C73.4346 66.1679 73.1474 66.3391 72.9988 66.6139L73.747 67.0185ZM81.1894 67.0185H82.04C82.04 66.5487 81.6592 66.1679 81.1894 66.1679V67.0185ZM81.1894 71.2242L81.3525 72.059C81.7518 71.981 82.04 71.6311 82.04 71.2242H81.1894ZM79.949 71.4665L79.786 70.6317C79.3866 70.7097 79.0985 71.0596 79.0985 71.4665H79.949ZM79.949 77.4553H79.0985C79.0985 77.8622 79.3866 78.2121 79.786 78.2901L79.949 77.4553ZM81.1894 77.6976H82.04C82.04 77.2907 81.7518 76.9408 81.3525 76.8628L81.1894 77.6976ZM81.1894 81.9033V82.7539C81.6592 82.7539 82.04 82.3731 82.04 81.9033H81.1894ZM73.747 81.9033H72.8964C72.8964 82.3731 73.2773 82.7539 73.747 82.7539V81.9033ZM73.747 74.645H74.5976C74.5976 74.2601 74.3391 73.9232 73.9673 73.8235C73.5955 73.7238 73.2032 73.8862 73.0106 74.2194L73.747 74.645ZM70.6557 79.9943L69.921 80.4228C70.0737 80.6847 70.3543 80.8454 70.6574 80.8448C70.9605 80.8442 71.2404 80.6823 71.3921 80.4198L70.6557 79.9943ZM66.6847 74.645V81.9033H68.3859V74.645H66.6847ZM67.5353 81.0528H60.1026V82.7539H67.5353V81.0528ZM60.9531 81.9033V77.6976H59.252V81.9033H60.9531ZM60.2656 78.5324L61.506 78.2901L61.1799 76.6205L59.9395 76.8628L60.2656 78.5324ZM62.1935 77.4553V71.4665H60.4924V77.4553H62.1935ZM61.506 70.6317L60.2656 70.3894L59.9395 72.059L61.1799 72.3013L61.506 70.6317ZM60.9531 71.2242V67.0185H59.252V71.2242H60.9531ZM60.1026 67.869H67.5353V66.1679H60.1026V67.869ZM66.7887 67.4259L69.9091 73.1434L71.4023 72.3285L68.2819 66.611L66.7887 67.4259ZM71.4039 73.1405L74.4952 67.423L72.9988 66.6139L69.9075 72.3314L71.4039 73.1405ZM73.747 67.869H81.1894V66.1679H73.747V67.869ZM80.3389 67.0185V71.2242H82.04V67.0185H80.3389ZM81.0264 70.3894L79.786 70.6317L80.1121 72.3013L81.3525 72.059L81.0264 70.3894ZM79.0985 71.4665V77.4553H80.7996V71.4665H79.0985ZM79.786 78.2901L81.0264 78.5324L81.3525 76.8628L80.1121 76.6205L79.786 78.2901ZM80.3389 77.6976V81.9033H82.04V77.6976H80.3389ZM81.1894 81.0528H73.747V82.7539H81.1894V81.0528ZM74.5976 81.9033V74.645H72.8964V81.9033H74.5976ZM73.0106 74.2194L69.9193 79.5687L71.3921 80.4198L74.4834 75.0706L73.0106 74.2194ZM71.3904 79.5657L68.27 74.2164L66.8006 75.0736L69.921 80.4228L71.3904 79.5657ZM86.51 81.9033H85.6594C85.6594 82.3731 86.0402 82.7539 86.51 82.7539V81.9033ZM86.51 77.717L86.3037 76.8918C85.9251 76.9865 85.6594 77.3267 85.6594 77.717H86.51ZM87.7504 77.4069L87.9567 78.232C88.2298 78.1637 88.4514 77.9648 88.5486 77.7006C88.6458 77.4363 88.606 77.1412 88.4423 76.9122L87.7504 77.4069ZM83.4962 71.4568L84.1881 70.9621C84.0539 70.7744 83.8491 70.6492 83.6208 70.6154L83.4962 71.4568ZM81.9263 71.2242H81.0757C81.0757 71.6458 81.3846 72.0038 81.8017 72.0656L81.9263 71.2242ZM81.9263 67.0185V66.1679C81.4566 66.1679 81.0757 66.5487 81.0757 67.0185H81.9263ZM90.2021 67.0185H91.0527C91.0527 66.5487 90.6719 66.1679 90.2021 66.1679V67.0185ZM90.2021 71.2242L90.4006 72.0513C90.7831 71.9595 91.0527 71.6175 91.0527 71.2242H90.2021ZM89.2331 71.4568L89.0346 70.6297C88.7663 70.6941 88.5459 70.8846 88.4434 71.1408C88.3409 71.3969 88.369 71.6869 88.5188 71.9186L89.2331 71.4568ZM91.2003 74.4997L90.486 74.9614C90.6427 75.2038 90.9116 75.3502 91.2003 75.3502C91.4889 75.3502 91.7578 75.2038 91.9146 74.9614L91.2003 74.4997ZM93.1675 71.4568L93.8818 71.9186C94.0316 71.6869 94.0597 71.3969 93.9571 71.1408C93.8546 70.8846 93.6342 70.6941 93.366 70.6297L93.1675 71.4568ZM92.1984 71.2242H91.3478C91.3478 71.6175 91.6175 71.9595 91.9999 72.0513L92.1984 71.2242ZM92.1984 67.0185V66.1679C91.7287 66.1679 91.3478 66.5487 91.3478 67.0185H92.1984ZM100.465 67.0185H101.315C101.315 66.5487 100.934 66.1679 100.465 66.1679V67.0185ZM100.465 71.2242L100.59 72.0655C101.007 72.0034 101.315 71.6455 101.315 71.2242H100.465ZM98.9043 71.4568L98.7789 70.6155C98.5509 70.6495 98.3465 70.7746 98.2124 70.9621L98.9043 71.4568ZM94.6501 77.4069L93.9582 76.9122C93.7945 77.1412 93.7547 77.4363 93.8519 77.7006C93.9491 77.9648 94.1707 78.1637 94.4438 78.232L94.6501 77.4069ZM95.8905 77.717H96.7411C96.7411 77.3267 96.4755 76.9865 96.0968 76.8918L95.8905 77.717ZM95.8905 81.9033V82.7539C96.3603 82.7539 96.7411 82.3731 96.7411 81.9033H95.8905ZM87.3606 81.9033V77.717H85.6594V81.9033H87.3606ZM86.7163 78.5421L87.9567 78.232L87.5441 76.5817L86.3037 76.8918L86.7163 78.5421ZM88.4423 76.9122L84.1881 70.9621L82.8043 71.9515L87.0585 77.9016L88.4423 76.9122ZM83.6208 70.6154L82.051 70.3828L81.8017 72.0656L83.3715 72.2982L83.6208 70.6154ZM82.7769 71.2242V67.0185H81.0757V71.2242H82.7769ZM81.9263 67.869H90.2021V66.1679H81.9263V67.869ZM89.3516 67.0185V71.2242H91.0527V67.0185H89.3516ZM90.0036 70.3971L89.0346 70.6297L89.4316 72.2839L90.4006 72.0513L90.0036 70.3971ZM88.5188 71.9186L90.486 74.9614L91.9146 74.0379L89.9474 70.995L88.5188 71.9186ZM91.9146 74.9614L93.8818 71.9186L92.4532 70.995L90.486 74.0379L91.9146 74.9614ZM93.366 70.6297L92.3969 70.3971L91.9999 72.0513L92.969 72.2839L93.366 70.6297ZM93.049 71.2242V67.0185H91.3478V71.2242H93.049ZM92.1984 67.869H100.465V66.1679H92.1984V67.869ZM99.614 67.0185V71.2242H101.315V67.0185H99.614ZM100.339 70.383L98.7789 70.6155L99.0297 72.2981L100.59 72.0655L100.339 70.383ZM98.2124 70.9621L93.9582 76.9122L95.342 77.9016L99.5962 71.9515L98.2124 70.9621ZM94.4438 78.232L95.6843 78.5421L96.0968 76.8918L94.8564 76.5817L94.4438 78.232ZM95.04 77.717V81.9033H96.7411V77.717H95.04ZM95.8905 81.0528H86.51V82.7539H95.8905V81.0528ZM108.654 73.3852H107.803C107.803 73.6456 107.922 73.8916 108.127 74.0529C108.331 74.2142 108.598 74.273 108.851 74.2125L108.654 73.3852ZM111.289 72.7553H112.14C112.14 72.495 112.021 72.249 111.816 72.0877C111.612 71.9264 111.345 71.8676 111.092 71.9281L111.289 72.7553ZM111.289 76.1858L111.092 77.0131C111.345 77.0736 111.612 77.0148 111.816 76.8535C112.021 76.6922 112.14 76.4462 112.14 76.1858H111.289ZM108.654 75.5559L108.851 74.7287C108.598 74.6682 108.331 74.727 108.127 74.8883C107.922 75.0496 107.803 75.2956 107.803 75.5559H108.654ZM108.654 77.4553H107.803C107.803 77.8527 108.078 78.1971 108.466 78.2848L108.654 77.4553ZM109.894 77.7363H110.744C110.744 77.339 110.469 76.9946 110.082 76.9068L109.894 77.7363ZM109.894 81.9033V82.7539C110.364 82.7539 110.744 82.3731 110.744 81.9033H109.894ZM101.211 81.9033H100.361C100.361 82.3731 100.741 82.7539 101.211 82.7539V81.9033ZM101.211 77.6976L101.048 76.8628C100.649 76.9408 100.361 77.2907 100.361 77.6976H101.211ZM102.452 77.4553L102.615 78.2901C103.014 78.2121 103.302 77.8622 103.302 77.4553H102.452ZM102.452 71.4859H103.302C103.302 71.079 103.014 70.7291 102.615 70.6511L102.452 71.4859ZM101.211 71.2436H100.361C100.361 71.6505 100.649 72.0004 101.048 72.0784L101.211 71.2436ZM101.211 67.0185V66.1679C100.741 66.1679 100.361 66.5487 100.361 67.0185H101.211ZM113.198 67.0185H114.049C114.049 66.5487 113.668 66.1679 113.198 66.1679V67.0185ZM113.198 71.9801V72.8307C113.668 72.8307 114.049 72.4498 114.049 71.9801H113.198ZM111.57 71.9801L110.996 72.6071C111.153 72.7509 111.358 72.8307 111.57 72.8307V71.9801ZM111.037 71.544L110.52 72.2191L110.531 72.2271L111.037 71.544ZM110.378 71.1467L109.99 71.9033C109.998 71.9075 110.006 71.9115 110.014 71.9154L110.378 71.1467ZM109.584 70.856L109.36 71.6766C109.367 71.6785 109.375 71.6804 109.382 71.6822L109.584 70.856ZM108.654 70.7397V69.8891C108.184 69.8891 107.803 70.2699 107.803 70.7397H108.654ZM108.851 74.2125L111.487 73.5826L111.092 71.9281L108.456 72.558L108.851 74.2125ZM110.439 72.7553V76.1858H112.14V72.7553H110.439ZM111.487 75.3586L108.851 74.7287L108.456 76.3832L111.092 77.0131L111.487 75.3586ZM107.803 75.5559V77.4553H109.504V75.5559H107.803ZM108.466 78.2848L109.706 78.5659L110.082 76.9068L108.841 76.6258L108.466 78.2848ZM109.043 77.7363V81.9033H110.744V77.7363H109.043ZM109.894 81.0528H101.211V82.7539H109.894V81.0528ZM102.062 81.9033V77.6976H100.361V81.9033H102.062ZM101.374 78.5324L102.615 78.2901L102.288 76.6205L101.048 76.8628L101.374 78.5324ZM103.302 77.4553V71.4859H101.601V77.4553H103.302ZM102.615 70.6511L101.374 70.4088L101.048 72.0784L102.288 72.3207L102.615 70.6511ZM102.062 71.2436V67.0185H100.361V71.2436H102.062ZM101.211 67.869H113.198V66.1679H101.211V67.869ZM112.348 67.0185V71.9801H114.049V67.0185H112.348ZM113.198 71.1295H111.57V72.8307H113.198V71.1295ZM112.145 71.3531C111.965 71.1879 111.764 71.0239 111.544 70.8609L110.531 72.2271C110.711 72.3613 110.866 72.488 110.996 72.6071L112.145 71.3531ZM111.555 70.869C111.308 70.68 111.036 70.5172 110.743 70.378L110.014 71.9154C110.212 72.0088 110.379 72.1108 110.52 72.219L111.555 70.869ZM110.767 70.3901C110.462 70.2337 110.134 70.1149 109.786 70.0297L109.382 71.6822C109.615 71.7392 109.816 71.8142 109.99 71.9033L110.767 70.3901ZM109.808 70.0354C109.441 69.9354 109.055 69.8891 108.654 69.8891V71.5902C108.924 71.5902 109.158 71.6215 109.36 71.6766L109.808 70.0354ZM107.803 70.7397V73.3852H109.504V70.7397H107.803ZM121.591 78.1821H120.74C120.74 78.6519 121.121 79.0327 121.591 79.0327V78.1821ZM122.831 78.0755L122.985 78.9122L122.998 78.9096L122.831 78.0755ZM123.897 77.7848L123.614 76.9827L123.609 76.9845L123.897 77.7848ZM125.487 76.9417V76.0911C125.304 76.0911 125.126 76.1499 124.98 76.2586L125.487 76.9417ZM127.105 76.9417H127.955C127.955 76.472 127.575 76.0911 127.105 76.0911V76.9417ZM127.105 81.9033V82.7539C127.575 82.7539 127.955 82.3731 127.955 81.9033H127.105ZM114.149 81.9033H113.298C113.298 82.3731 113.679 82.7539 114.149 82.7539V81.9033ZM114.149 77.6976L113.985 76.8628C113.586 76.9408 113.298 77.2907 113.298 77.6976H114.149ZM115.389 77.4553L115.552 78.2901C115.951 78.2121 116.239 77.8622 116.239 77.4553H115.389ZM115.389 71.4859H116.239C116.239 71.079 115.951 70.7291 115.552 70.6511L115.389 71.4859ZM114.149 71.2436H113.298C113.298 71.6505 113.586 72.0004 113.985 72.0784L114.149 71.2436ZM114.149 67.0185V66.1679C113.679 66.1679 113.298 66.5487 113.298 67.0185H114.149ZM127.105 67.0185H127.955C127.955 66.5487 127.575 66.1679 127.105 66.1679V67.0185ZM127.105 71.9801V72.8307C127.575 72.8307 127.955 72.4498 127.955 71.9801H127.105ZM125.545 71.9801L125.063 72.681C125.205 72.7785 125.373 72.8307 125.545 72.8307V71.9801ZM123.917 71.1467L123.62 71.9437C123.626 71.9461 123.632 71.9483 123.638 71.9505L123.917 71.1467ZM122.841 70.856L122.674 71.6901L122.688 71.6926L122.841 70.856ZM121.591 70.7397V69.8891C121.121 69.8891 120.74 70.2699 120.74 70.7397H121.591ZM121.591 73.3852H120.74C120.74 73.6424 120.857 73.8858 121.057 74.0473C121.257 74.2088 121.52 74.271 121.771 74.2165L121.591 73.3852ZM124.498 72.7553H125.349C125.349 72.4981 125.232 72.2547 125.032 72.0933C124.832 71.9318 124.569 71.8696 124.318 71.9241L124.498 72.7553ZM124.498 76.1858L124.318 77.0171C124.569 77.0716 124.832 77.0094 125.032 76.8479C125.232 76.6864 125.349 76.443 125.349 76.1858H124.498ZM121.591 75.5559L121.771 74.7247C121.52 74.6702 121.257 74.7324 121.057 74.8939C120.857 75.0553 120.74 75.2987 120.74 75.5559H121.591ZM121.591 79.0327C122.076 79.0327 122.541 78.9935 122.985 78.9121L122.678 77.2389C122.346 77.2997 121.985 77.3315 121.591 77.3315V79.0327ZM122.998 78.9096C123.421 78.825 123.817 78.7175 124.185 78.5851L123.609 76.9845C123.331 77.0846 123.017 77.171 122.665 77.2415L122.998 78.9096ZM124.18 78.5869C124.549 78.4567 124.892 78.305 125.205 78.1293L124.373 76.6457C124.156 76.7671 123.904 76.8803 123.614 76.9827L124.18 78.5869ZM125.205 78.1293C125.495 77.9667 125.759 77.7989 125.993 77.6248L124.98 76.2586C124.814 76.3817 124.613 76.5111 124.373 76.6457L125.205 78.1293ZM125.487 77.7923H127.105V76.0911H125.487V77.7923ZM126.254 76.9417V81.9033H127.955V76.9417H126.254ZM127.105 81.0528H114.149V82.7539H127.105V81.0528ZM114.999 81.9033V77.6976H113.298V81.9033H114.999ZM114.312 78.5324L115.552 78.2901L115.226 76.6205L113.985 76.8628L114.312 78.5324ZM116.239 77.4553V71.4859H114.538V77.4553H116.239ZM115.552 70.6511L114.312 70.4088L113.985 72.0784L115.226 72.3207L115.552 70.6511ZM114.999 71.2436V67.0185H113.298V71.2436H114.999ZM114.149 67.869H127.105V66.1679H114.149V67.869ZM126.254 67.0185V71.9801H127.955V67.0185H126.254ZM127.105 71.1295H125.545V72.8307H127.105V71.1295ZM126.027 71.2792C125.791 71.1176 125.527 70.9573 125.236 70.798L124.419 72.29C124.671 72.4279 124.884 72.5584 125.063 72.681L126.027 71.2792ZM125.236 70.798C124.917 70.6235 124.569 70.4725 124.195 70.3429L123.638 71.9505C123.936 72.0534 124.195 72.1674 124.419 72.29L125.236 70.798ZM124.214 70.3496C123.832 70.2076 123.425 70.0983 122.994 70.0194L122.688 71.6926C123.032 71.7557 123.342 71.8403 123.62 71.9437L124.214 70.3496ZM123.008 70.0219C122.559 69.9321 122.086 69.8891 121.591 69.8891V71.5902C121.988 71.5902 122.348 71.6248 122.674 71.69L123.008 70.0219ZM120.74 70.7397V73.3852H122.441V70.7397H120.74ZM121.771 74.2165L124.678 73.5866L124.318 71.9241L121.411 72.554L121.771 74.2165ZM123.648 72.7553V76.1858H125.349V72.7553H123.648ZM124.678 75.3546L121.771 74.7247L121.411 76.3872L124.318 77.0171L124.678 75.3546ZM120.74 75.5559V78.1821H122.441V75.5559H120.74ZM135.672 78.1821H134.821C134.821 78.6519 135.202 79.0327 135.672 79.0327V78.1821ZM136.912 78.0755L137.066 78.9122L137.079 78.9096L136.912 78.0755ZM137.978 77.7848L137.695 76.9827L137.69 76.9845L137.978 77.7848ZM139.567 76.9417V76.0911C139.385 76.0911 139.207 76.1499 139.061 76.2586L139.567 76.9417ZM141.186 76.9417H142.036C142.036 76.472 141.656 76.0911 141.186 76.0911V76.9417ZM141.186 81.9033V82.7539C141.656 82.7539 142.036 82.3731 142.036 81.9033H141.186ZM128.229 81.9033H127.379C127.379 82.3731 127.76 82.7539 128.229 82.7539V81.9033ZM128.229 77.6976L128.066 76.8628C127.667 76.9408 127.379 77.2907 127.379 77.6976H128.229ZM129.47 77.4553L129.633 78.2901C130.032 78.2121 130.32 77.8622 130.32 77.4553H129.47ZM129.47 71.4859H130.32C130.32 71.079 130.032 70.7291 129.633 70.6511L129.47 71.4859ZM128.229 71.2436H127.379C127.379 71.6505 127.667 72.0004 128.066 72.0784L128.229 71.2436ZM128.229 67.0185V66.1679C127.76 66.1679 127.379 66.5487 127.379 67.0185H128.229ZM141.186 67.0185H142.036C142.036 66.5487 141.656 66.1679 141.186 66.1679V67.0185ZM141.186 71.9801V72.8307C141.656 72.8307 142.036 72.4498 142.036 71.9801H141.186ZM139.626 71.9801L139.144 72.681C139.286 72.7785 139.454 72.8307 139.626 72.8307V71.9801ZM137.998 71.1467L137.701 71.9437C137.707 71.9461 137.713 71.9483 137.719 71.9505L137.998 71.1467ZM136.922 70.856L136.755 71.6901L136.769 71.6926L136.922 70.856ZM135.672 70.7397V69.8891C135.202 69.8891 134.821 70.2699 134.821 70.7397H135.672ZM135.672 73.3852H134.821C134.821 73.6424 134.938 73.8858 135.138 74.0473C135.338 74.2088 135.601 74.271 135.852 74.2165L135.672 73.3852ZM138.579 72.7553H139.43C139.43 72.4981 139.313 72.2547 139.113 72.0933C138.913 71.9318 138.65 71.8696 138.399 71.9241L138.579 72.7553ZM138.579 76.1858L138.399 77.0171C138.65 77.0716 138.913 77.0094 139.113 76.8479C139.313 76.6864 139.43 76.443 139.43 76.1858H138.579ZM135.672 75.5559L135.852 74.7247C135.601 74.6702 135.338 74.7324 135.138 74.8939C134.938 75.0553 134.821 75.2987 134.821 75.5559H135.672ZM135.672 79.0327C136.157 79.0327 136.622 78.9935 137.066 78.9121L136.759 77.2389C136.427 77.2997 136.065 77.3315 135.672 77.3315V79.0327ZM137.079 78.9096C137.502 78.825 137.898 78.7175 138.266 78.5851L137.69 76.9845C137.412 77.0846 137.098 77.171 136.745 77.2415L137.079 78.9096ZM138.261 78.5869C138.63 78.4567 138.973 78.305 139.286 78.1293L138.454 76.6457C138.237 76.7671 137.985 76.8803 137.695 76.9827L138.261 78.5869ZM139.286 78.1293C139.576 77.9667 139.84 77.7989 140.074 77.6248L139.061 76.2586C138.895 76.3817 138.694 76.5111 138.454 76.6457L139.286 78.1293ZM139.567 77.7923H141.186V76.0911H139.567V77.7923ZM140.335 76.9417V81.9033H142.036V76.9417H140.335ZM141.186 81.0528H128.229V82.7539H141.186V81.0528ZM129.08 81.9033V77.6976H127.379V81.9033H129.08ZM128.392 78.5324L129.633 78.2901L129.307 76.6205L128.066 76.8628L128.392 78.5324ZM130.32 77.4553V71.4859H128.619V77.4553H130.32ZM129.633 70.6511L128.392 70.4088L128.066 72.0784L129.307 72.3207L129.633 70.6511ZM129.08 71.2436V67.0185H127.379V71.2436H129.08ZM128.229 67.869H141.186V66.1679H128.229V67.869ZM140.335 67.0185V71.9801H142.036V67.0185H140.335ZM141.186 71.1295H139.626V72.8307H141.186V71.1295ZM140.108 71.2792C139.872 71.1176 139.608 70.9573 139.317 70.798L138.5 72.29C138.752 72.4279 138.965 72.5584 139.144 72.681L140.108 71.2792ZM139.317 70.798C138.998 70.6235 138.65 70.4725 138.276 70.3429L137.719 71.9505C138.017 72.0534 138.276 72.1674 138.5 72.29L139.317 70.798ZM138.295 70.3496C137.913 70.2076 137.506 70.0983 137.075 70.0194L136.769 71.6926C137.113 71.7557 137.423 71.8403 137.701 71.9437L138.295 70.3496ZM137.089 70.0219C136.64 69.9321 136.167 69.8891 135.672 69.8891V71.5902C136.069 71.5902 136.429 71.6248 136.755 71.69L137.089 70.0219ZM134.821 70.7397V73.3852H136.522V70.7397H134.821ZM135.852 74.2165L138.759 73.5866L138.399 71.9241L135.492 72.554L135.852 74.2165ZM137.728 72.7553V76.1858H139.43V72.7553H137.728ZM138.759 75.3546L135.852 74.7247L135.492 76.3872L138.399 77.0171L138.759 75.3546ZM134.821 75.5559V78.1821H136.522V75.5559H134.821ZM153.571 67.0185L153.749 66.1867C153.69 66.1742 153.631 66.1679 153.571 66.1679V67.0185ZM156.1 67.8906L155.715 68.6488L155.72 68.6514L156.1 67.8906ZM158.009 69.3345L157.374 69.9001L157.377 69.9039L158.009 69.3345ZM159.221 71.4471L158.415 71.7199L158.418 71.7275L159.221 71.4471ZM158.93 77.8914L159.693 78.2677L159.694 78.2657L158.93 77.8914ZM156.904 80.2365L156.425 79.5337L156.423 79.5353L156.904 80.2365ZM142.281 81.9033H141.431C141.431 82.3731 141.812 82.7539 142.281 82.7539V81.9033ZM142.281 77.6976L142.118 76.8628C141.719 76.9408 141.431 77.2907 141.431 77.6976H142.281ZM143.522 77.4553L143.685 78.2901C144.084 78.2121 144.372 77.8622 144.372 77.4553H143.522ZM143.522 71.1079H144.372C144.372 70.701 144.084 70.3511 143.685 70.2731L143.522 71.1079ZM142.281 70.8657H141.431C141.431 71.2726 141.719 71.6225 142.118 71.7005L142.281 70.8657ZM142.281 67.0185V66.1679C141.812 66.1679 141.431 66.5487 141.431 67.0185H142.281ZM152.272 77.2324L152.586 78.0232L152.598 78.0184L152.272 77.2324ZM153.086 76.5832L152.366 76.1308C152.363 76.1349 152.361 76.139 152.358 76.1431L153.086 76.5832ZM153.387 75.585L152.539 75.5144L152.538 75.5284L153.387 75.585ZM153.387 72.9879L152.538 73.0436C152.538 73.0486 152.539 73.0536 152.539 73.0586L153.387 72.9879ZM153.086 71.9801L152.358 72.4202C152.361 72.4243 152.363 72.4283 152.366 72.4324L153.086 71.9801ZM152.272 71.3405L151.947 72.1265L151.959 72.1312L152.272 71.3405ZM149.724 71.1079V70.2574C149.254 70.2574 148.873 70.6382 148.873 71.1079H149.724ZM149.724 77.4553H148.873C148.873 77.9251 149.254 78.3059 149.724 78.3059V77.4553ZM153.393 67.8502C154.267 68.0372 155.039 68.3053 155.715 68.6488L156.486 67.1325C155.662 66.7136 154.748 66.4003 153.749 66.1867L153.393 67.8502ZM155.72 68.6514C156.379 68.981 156.927 69.3979 157.374 69.9001L158.645 68.769C158.045 68.0953 157.32 67.5497 156.481 67.1299L155.72 68.6514ZM157.377 69.9039C157.823 70.398 158.171 70.9986 158.415 71.7199L160.026 71.1743C159.715 70.2546 159.255 69.4469 158.641 68.7652L157.377 69.9039ZM158.418 71.7275C158.664 72.432 158.796 73.2801 158.796 74.2865H160.497C160.497 73.1351 160.346 72.0902 160.024 71.1667L158.418 71.7275ZM158.796 74.2865C158.796 75.6236 158.572 76.6887 158.166 77.5171L159.694 78.2657C160.244 77.143 160.497 75.8049 160.497 74.2865H158.796ZM158.167 77.5151C157.752 78.3559 157.173 79.0239 156.425 79.5337L157.383 80.9394C158.38 80.2604 159.151 79.365 159.693 78.2677L158.167 77.5151ZM156.423 79.5353C155.665 80.0557 154.73 80.444 153.598 80.6836L153.95 82.3478C155.261 82.0705 156.412 81.6061 157.386 80.9377L156.423 79.5353ZM153.598 80.6836C152.445 80.9277 151.154 81.0528 149.724 81.0528V82.7539C151.252 82.7539 152.662 82.6205 153.95 82.3478L153.598 80.6836ZM149.724 81.0528H142.281V82.7539H149.724V81.0528ZM143.132 81.9033V77.6976H141.431V81.9033H143.132ZM142.444 78.5324L143.685 78.2901L143.359 76.6205L142.118 76.8628L142.444 78.5324ZM144.372 77.4553V71.1079H142.671V77.4553H144.372ZM143.685 70.2731L142.444 70.0309L142.118 71.7005L143.359 71.9427L143.685 70.2731ZM143.132 70.8657V67.0185H141.431V70.8657H143.132ZM142.281 67.869H153.571V66.1679H142.281V67.869ZM150.673 78.3059C151.406 78.3059 152.065 78.2298 152.586 78.0231L151.959 76.4418C151.731 76.5322 151.323 76.6047 150.673 76.6047V78.3059ZM152.598 78.0184C153.098 77.8114 153.531 77.4914 153.814 77.0232L152.358 76.1431C152.306 76.2305 152.196 76.3433 151.947 76.4465L152.598 78.0184ZM153.807 77.0355C154.069 76.6182 154.202 76.1438 154.235 75.6416L152.538 75.5284C152.52 75.8014 152.453 75.9925 152.366 76.1308L153.807 77.0355ZM154.234 75.6556C154.269 75.2399 154.286 74.783 154.286 74.2865H152.585C152.585 74.7461 152.569 75.1548 152.539 75.5144L154.234 75.6556ZM154.286 74.2865C154.286 73.7899 154.269 73.333 154.234 72.9173L152.539 73.0586C152.569 73.4181 152.585 73.8269 152.585 74.2865H154.286ZM154.235 72.9323C154.202 72.4259 154.07 71.9472 153.807 71.5278L152.366 72.4324C152.452 72.5686 152.52 72.7617 152.538 73.0436L154.235 72.9323ZM153.814 71.54C153.529 71.0681 153.091 70.75 152.586 70.5498L151.959 72.1312C152.203 72.2281 152.308 72.3365 152.358 72.4202L153.814 71.54ZM152.598 70.5546C152.072 70.337 151.409 70.2574 150.673 70.2574V71.9585C151.321 71.9585 151.724 72.0339 151.947 72.1264L152.598 70.5546ZM150.673 70.2574H149.724V71.9585H150.673V70.2574ZM148.873 71.1079V77.4553H150.574V71.1079H148.873ZM149.724 78.3059H150.673V76.6047H149.724V78.3059Z" fill="black"/>
<rect x="40.8535" y="8.8916" width="67.1953" height="26" rx="3" fill="#404040"/>
<rect x="41.3535" y="9.3916" width="66.1953" height="25" rx="2.5" stroke="black" stroke-opacity="0.14902"/>
<path d="M45.6973 24.8916V18.8916H46.5879V19.8291H46.666C46.791 19.5088 46.9928 19.2601 47.2715 19.083C47.5501 18.9033 47.8848 18.8135 48.2754 18.8135C48.6712 18.8135 49.0007 18.9033 49.2637 19.083C49.5293 19.2601 49.7363 19.5088 49.8848 19.8291H49.9473C50.1009 19.5192 50.3314 19.2731 50.6387 19.0908C50.946 18.9059 51.3145 18.8135 51.7441 18.8135C52.2806 18.8135 52.7194 18.9814 53.0605 19.3174C53.4017 19.6507 53.5723 20.1702 53.5723 20.876V24.8916H52.6504V20.876C52.6504 20.4333 52.5293 20.1169 52.2871 19.9268C52.0449 19.7367 51.7598 19.6416 51.4316 19.6416C51.0098 19.6416 50.6829 19.7692 50.4512 20.0244C50.2194 20.277 50.1035 20.5973 50.1035 20.9854V24.8916H49.166V20.7822C49.166 20.4411 49.0553 20.1663 48.834 19.958C48.6126 19.7471 48.3275 19.6416 47.9785 19.6416C47.7389 19.6416 47.515 19.7054 47.3066 19.833C47.1009 19.9606 46.9342 20.1377 46.8066 20.3643C46.6816 20.5882 46.6191 20.8473 46.6191 21.1416V24.8916H45.6973ZM55.6367 27.1416C55.4805 27.1416 55.3411 27.1286 55.2188 27.1025C55.0964 27.0791 55.0117 27.0557 54.9648 27.0322L55.1992 26.2197C55.4232 26.277 55.6211 26.2979 55.793 26.2822C55.9648 26.2666 56.1172 26.1898 56.25 26.0518C56.3854 25.9163 56.5091 25.6963 56.6211 25.3916L56.793 24.9229L54.5742 18.8916H55.5742L57.2305 23.6729H57.293L58.9492 18.8916H59.9492L57.4023 25.7666C57.2878 26.0765 57.1458 26.333 56.9766 26.5361C56.8073 26.7419 56.6107 26.8942 56.3867 26.9932C56.1654 27.0921 55.9154 27.1416 55.6367 27.1416ZM63.8379 18.8916V19.6729H60.6035V18.8916H63.8379ZM61.5723 24.8916V18.0635C61.5723 17.7197 61.653 17.4333 61.8145 17.2041C61.9759 16.9749 62.1855 16.8031 62.4434 16.6885C62.7012 16.5739 62.9733 16.5166 63.2598 16.5166C63.4863 16.5166 63.6712 16.5348 63.8145 16.5713C63.9577 16.6077 64.0645 16.6416 64.1348 16.6729L63.8691 17.4697C63.8223 17.4541 63.7572 17.4346 63.6738 17.4111C63.5931 17.3877 63.4863 17.376 63.3535 17.376C63.0488 17.376 62.8288 17.4528 62.6934 17.6064C62.5605 17.7601 62.4941 17.9854 62.4941 18.2822V24.8916H61.5723ZM67.3984 25.0166C66.8203 25.0166 66.3216 24.889 65.9023 24.6338C65.4857 24.376 65.1641 24.0166 64.9375 23.5557C64.7135 23.0921 64.6016 22.5531 64.6016 21.9385C64.6016 21.3239 64.7135 20.7822 64.9375 20.3135C65.1641 19.8421 65.4792 19.4749 65.8828 19.2119C66.2891 18.9463 66.763 18.8135 67.3047 18.8135C67.6172 18.8135 67.9258 18.8656 68.2305 18.9697C68.5352 19.0739 68.8125 19.2432 69.0625 19.4775C69.3125 19.7093 69.5117 20.0166 69.6602 20.3994C69.8086 20.7822 69.8828 21.2536 69.8828 21.8135V22.2041H65.2578V21.4072H68.9453C68.9453 21.0687 68.8776 20.7666 68.7422 20.501C68.6094 20.2354 68.4193 20.0257 68.1719 19.8721C67.9271 19.7184 67.638 19.6416 67.3047 19.6416C66.9375 19.6416 66.6198 19.7327 66.3516 19.915C66.0859 20.0947 65.8815 20.3291 65.7383 20.6182C65.5951 20.9072 65.5234 21.2171 65.5234 21.5479V22.0791C65.5234 22.5322 65.6016 22.9163 65.7578 23.2314C65.9167 23.5439 66.1367 23.7822 66.418 23.9463C66.6992 24.1077 67.026 24.1885 67.3984 24.1885C67.6406 24.1885 67.8594 24.1546 68.0547 24.0869C68.2526 24.0166 68.4232 23.9124 68.5664 23.7744C68.7096 23.6338 68.8203 23.4593 68.8984 23.251L69.7891 23.501C69.6953 23.8031 69.5378 24.0687 69.3164 24.2979C69.0951 24.5244 68.8216 24.7015 68.4961 24.8291C68.1706 24.9541 67.8047 25.0166 67.3984 25.0166ZM73.8008 25.0166C73.2227 25.0166 72.724 24.889 72.3047 24.6338C71.888 24.376 71.5664 24.0166 71.3398 23.5557C71.1159 23.0921 71.0039 22.5531 71.0039 21.9385C71.0039 21.3239 71.1159 20.7822 71.3398 20.3135C71.5664 19.8421 71.8815 19.4749 72.2852 19.2119C72.6914 18.9463 73.1654 18.8135 73.707 18.8135C74.0195 18.8135 74.3281 18.8656 74.6328 18.9697C74.9375 19.0739 75.2148 19.2432 75.4648 19.4775C75.7148 19.7093 75.9141 20.0166 76.0625 20.3994C76.2109 20.7822 76.2852 21.2536 76.2852 21.8135V22.2041H71.6602V21.4072H75.3477C75.3477 21.0687 75.2799 20.7666 75.1445 20.501C75.0117 20.2354 74.8216 20.0257 74.5742 19.8721C74.3294 19.7184 74.0404 19.6416 73.707 19.6416C73.3398 19.6416 73.0221 19.7327 72.7539 19.915C72.4883 20.0947 72.2839 20.3291 72.1406 20.6182C71.9974 20.9072 71.9258 21.2171 71.9258 21.5479V22.0791C71.9258 22.5322 72.0039 22.9163 72.1602 23.2314C72.319 23.5439 72.5391 23.7822 72.8203 23.9463C73.1016 24.1077 73.4284 24.1885 73.8008 24.1885C74.043 24.1885 74.2617 24.1546 74.457 24.0869C74.6549 24.0166 74.8255 23.9124 74.9688 23.7744C75.112 23.6338 75.2227 23.4593 75.3008 23.251L76.1914 23.501C76.0977 23.8031 75.9401 24.0687 75.7188 24.2979C75.4974 24.5244 75.224 24.7015 74.8984 24.8291C74.5729 24.9541 74.207 25.0166 73.8008 25.0166ZM79.9531 25.0166C79.4531 25.0166 79.0117 24.8903 78.6289 24.6377C78.2461 24.3825 77.9466 24.0231 77.7305 23.5596C77.5143 23.0934 77.4063 22.5426 77.4063 21.9072C77.4063 21.277 77.5143 20.7301 77.7305 20.2666C77.9466 19.8031 78.2474 19.445 78.6328 19.1924C79.0182 18.9398 79.4635 18.8135 79.9687 18.8135C80.3594 18.8135 80.668 18.8786 80.8945 19.0088C81.1237 19.1364 81.2982 19.2822 81.418 19.4463C81.5404 19.6077 81.6354 19.7406 81.7031 19.8447H81.7813V16.8916H82.7031V24.8916H81.8125V23.9697H81.7031C81.6354 24.0791 81.5391 24.2171 81.4141 24.3838C81.2891 24.5479 81.1107 24.695 80.8789 24.8252C80.6471 24.9528 80.3385 25.0166 79.9531 25.0166ZM80.0781 24.1885C80.4479 24.1885 80.7604 24.0921 81.0156 23.8994C81.2708 23.7041 81.4648 23.4346 81.5977 23.0908C81.7305 22.7445 81.7969 22.3447 81.7969 21.8916C81.7969 21.4437 81.7318 21.0518 81.6016 20.7158C81.4714 20.3773 81.2786 20.1143 81.0234 19.9268C80.7682 19.7367 80.4531 19.6416 80.0781 19.6416C79.6875 19.6416 79.362 19.7419 79.1016 19.9424C78.8438 20.1403 78.6497 20.4098 78.5195 20.751C78.3919 21.0895 78.3281 21.4697 78.3281 21.8916C78.3281 22.3187 78.3932 22.7067 78.5234 23.0557C78.6563 23.402 78.8516 23.6781 79.1094 23.8838C79.3698 24.0869 79.6927 24.1885 80.0781 24.1885ZM87.7383 24.8916V16.8916H88.6602V19.8447H88.7383C88.806 19.7406 88.8997 19.6077 89.0195 19.4463C89.1419 19.2822 89.3164 19.1364 89.543 19.0088C89.7721 18.8786 90.082 18.8135 90.4727 18.8135C90.9779 18.8135 91.4232 18.9398 91.8086 19.1924C92.194 19.445 92.4948 19.8031 92.7109 20.2666C92.9271 20.7301 93.0352 21.277 93.0352 21.9072C93.0352 22.5426 92.9271 23.0934 92.7109 23.5596C92.4948 24.0231 92.1953 24.3825 91.8125 24.6377C91.4297 24.8903 90.9883 25.0166 90.4883 25.0166C90.1029 25.0166 89.7943 24.9528 89.5625 24.8252C89.3307 24.695 89.1523 24.5479 89.0273 24.3838C88.9023 24.2171 88.806 24.0791 88.7383 23.9697H88.6289V24.8916H87.7383ZM88.6445 21.8916C88.6445 22.3447 88.7109 22.7445 88.8438 23.0908C88.9766 23.4346 89.1706 23.7041 89.4258 23.8994C89.681 24.0921 89.9935 24.1885 90.3633 24.1885C90.7487 24.1885 91.0703 24.0869 91.3281 23.8838C91.5885 23.6781 91.7839 23.402 91.9141 23.0557C92.0469 22.7067 92.1133 22.3187 92.1133 21.8916C92.1133 21.4697 92.0482 21.0895 91.918 20.751C91.7904 20.4098 91.5964 20.1403 91.3359 19.9424C91.0781 19.7419 90.7539 19.6416 90.3633 19.6416C89.9883 19.6416 89.6732 19.7367 89.418 19.9268C89.1628 20.1143 88.9701 20.3773 88.8398 20.7158C88.7096 21.0518 88.6445 21.4437 88.6445 21.8916ZM97.0547 18.8916V19.6729H93.9453V18.8916H97.0547ZM94.8516 17.4541H95.7734V23.1729C95.7734 23.4333 95.8112 23.6286 95.8867 23.7588C95.9648 23.8864 96.0638 23.9723 96.1836 24.0166C96.306 24.0583 96.4349 24.0791 96.5703 24.0791C96.6719 24.0791 96.7552 24.0739 96.8203 24.0635C96.8854 24.0505 96.9375 24.04 96.9766 24.0322L97.1641 24.8604C97.1016 24.8838 97.0143 24.9072 96.9023 24.9307C96.7904 24.9567 96.6484 24.9697 96.4766 24.9697C96.2161 24.9697 95.9609 24.9137 95.7109 24.8018C95.4635 24.6898 95.2578 24.5192 95.0937 24.29C94.9323 24.0609 94.8516 23.7718 94.8516 23.4229V17.4541ZM99.3633 21.2822V24.8916H98.4414V18.8916H99.332V19.8291H99.4102C99.5508 19.5244 99.7643 19.2796 100.051 19.0947C100.337 18.9072 100.707 18.8135 101.16 18.8135C101.566 18.8135 101.922 18.8968 102.227 19.0635C102.531 19.2275 102.768 19.4775 102.938 19.8135C103.107 20.1468 103.191 20.5687 103.191 21.0791V24.8916H102.27V21.1416C102.27 20.6702 102.147 20.3031 101.902 20.04C101.658 19.7744 101.322 19.6416 100.895 19.6416C100.6 19.6416 100.337 19.7054 100.105 19.833C99.8763 19.9606 99.6953 20.1468 99.5625 20.3916C99.4297 20.6364 99.3633 20.9333 99.3633 21.2822Z" fill="white"/>
</svg>
