<svg width="139" height="67" viewBox="0 0 139 67" fill="none" xmlns="http://www.w3.org/2000/svg">
<rect x="2.68" y="3.05305" width="133.565" height="61.2674" rx="5.36" fill="#EFEFEF" stroke="black" stroke-width="5.36"/>
<path d="M25.0912 34.1265V41.3848H17.6585V37.179L18.8989 36.9368V30.9479L17.6585 30.7057V26.4999H25.0912L28.2116 32.2174L31.303 26.4999H38.7454V30.7057L37.505 30.9479V36.9368L38.7454 37.179V41.3848H31.303V34.1265L28.2116 39.4757L25.0912 34.1265ZM44.0659 41.3848V37.1984L45.3063 36.8883L41.0521 30.9382L39.4823 30.7057V26.4999H47.7581V30.7057L46.789 30.9382L48.7562 33.9811L50.7234 30.9382L49.7543 30.7057V26.4999H58.0205V30.7057L56.4603 30.9382L52.2061 36.8883L53.4465 37.1984V41.3848H44.0659ZM58.767 26.4999H67.2076C68.3059 26.4999 69.2588 26.5516 70.0663 26.655C70.8739 26.7519 71.5619 26.894 72.1305 27.0814C72.699 27.2687 73.1609 27.4981 73.5162 27.7694C73.878 28.0407 74.159 28.3444 74.3593 28.6803C74.566 29.0163 74.7049 29.3845 74.776 29.7851C74.8535 30.1856 74.8923 30.612 74.8923 31.0642C74.8923 31.5294 74.8471 31.9654 74.7566 32.3725C74.6726 32.7795 74.5144 33.1542 74.2818 33.4966C74.0492 33.8325 73.7262 34.1362 73.3127 34.4075C72.9057 34.6788 72.3792 34.9082 71.7331 35.0955C71.0936 35.2764 70.3183 35.4186 69.4074 35.5219C68.5029 35.6188 67.437 35.6673 66.2095 35.6673V36.9368L67.4499 37.179V41.3848H58.767V37.179L60.0074 36.9368V30.9479L58.767 30.7057V26.4999ZM66.2095 33.0023C66.5842 33.0023 66.9233 32.983 67.227 32.9442C67.5371 32.9054 67.7987 32.8247 68.0119 32.7019C68.2316 32.5727 68.3996 32.3886 68.5158 32.1496C68.6321 31.9105 68.6903 31.5875 68.6903 31.1805C68.6903 30.7864 68.6321 30.4731 68.5158 30.2405C68.3996 30.0015 68.2316 29.8206 68.0119 29.6978C67.7987 29.5751 67.5371 29.4943 67.227 29.4556C66.9233 29.4168 66.5842 29.3974 66.2095 29.3974V33.0023ZM84.7772 41.3848L84.2539 38.8846H80.2032L79.6896 41.3848H74.1756V36.5007L75.3675 36.2584L78.2263 26.4999H86.2308L89.0992 36.2584L90.2911 36.5007V41.3848H84.7772ZM81.0366 35.5607H83.4205L82.2285 29.9498L81.0366 35.5607ZM90.873 33.7679C90.873 32.4177 91.0668 31.2774 91.4544 30.3471C91.8485 29.4168 92.4073 28.6545 93.1309 28.0601C93.8222 27.4916 94.6329 27.0523 95.5632 26.7422C96.4935 26.4321 97.5627 26.277 98.7708 26.277C99.6042 26.277 100.344 26.3126 100.99 26.3836C101.636 26.4547 102.211 26.5484 102.715 26.6647C103.225 26.7809 103.678 26.9134 104.072 27.062C104.472 27.2106 104.844 27.3656 105.186 27.5271V31.9558H102.269C101.94 31.4906 101.571 31.1482 101.164 30.9285C100.764 30.7089 100.35 30.5991 99.924 30.5991C99.5623 30.5991 99.2102 30.6701 98.8678 30.8123C98.5318 30.9544 98.2314 31.1611 97.9665 31.4325C97.7016 31.7038 97.4885 32.0365 97.3269 32.4306C97.1654 32.8182 97.0847 33.264 97.0847 33.7679C97.0847 34.8856 97.3366 35.7028 97.8405 36.2196C98.3509 36.7365 99.0745 36.9949 100.011 36.9949C100.244 36.9949 100.476 36.982 100.709 36.9561C100.948 36.9303 101.187 36.8915 101.426 36.8398V35.6673H99.5655V33.012H105.593V40.0862C105.083 40.2994 104.54 40.5029 103.965 40.6967C103.397 40.8841 102.825 41.0488 102.25 41.191C101.681 41.3266 101.122 41.4203 100.573 41.472C100.024 41.5301 99.517 41.5592 99.0519 41.5592C98.2895 41.5592 97.5595 41.5043 96.8618 41.3945C96.1641 41.2846 95.5116 41.0876 94.9043 40.8033C94.3035 40.5191 93.7543 40.1637 93.2569 39.7374C92.7594 39.3045 92.333 38.7974 91.9777 38.2159C91.6288 37.628 91.3575 36.9658 91.1637 36.2293C90.9699 35.4864 90.873 34.6659 90.873 33.7679ZM114.17 37.6636C114.609 37.6636 115.022 37.628 115.41 37.557C115.798 37.4794 116.153 37.3825 116.476 37.2662C116.806 37.1499 117.103 37.0175 117.368 36.8689C117.632 36.7203 117.865 36.5717 118.065 36.4232H119.684V41.3848H106.727V37.179L107.968 36.9368V30.9673L106.727 30.725V26.4999H119.684V31.4615H118.123C117.917 31.3194 117.678 31.174 117.406 31.0255C117.135 30.8769 116.831 30.7444 116.495 30.6281C116.166 30.5054 115.807 30.4085 115.42 30.3374C115.032 30.2599 114.615 30.2211 114.17 30.2211V32.8667L117.077 32.2368V35.6673L114.17 35.0374V37.6636Z" fill="#FF6700"/>
<path d="M25.0912 34.1265L25.7823 33.7234C25.6002 33.4112 25.2314 33.2599 24.8825 33.3542C24.5336 33.4485 24.2912 33.765 24.2912 34.1265H25.0912ZM25.0912 41.3848V42.1848C25.5331 42.1848 25.8912 41.8266 25.8912 41.3848H25.0912ZM17.6585 41.3848H16.8585C16.8585 41.8266 17.2167 42.1848 17.6585 42.1848V41.3848ZM17.6585 37.179L17.5052 36.3939C17.1296 36.4672 16.8585 36.7963 16.8585 37.179H17.6585ZM18.8989 36.9368L19.0523 37.7219C19.4279 37.6486 19.6989 37.3195 19.6989 36.9368H18.8989ZM18.8989 30.9479H19.6989C19.6989 30.5652 19.4279 30.2361 19.0523 30.1628L18.8989 30.9479ZM17.6585 30.7057H16.8585C16.8585 31.0884 17.1296 31.4175 17.5052 31.4908L17.6585 30.7057ZM17.6585 26.4999V25.6999C17.2167 25.6999 16.8585 26.0581 16.8585 26.4999H17.6585ZM25.0912 26.4999L25.7935 26.1167C25.6533 25.8598 25.3839 25.6999 25.0912 25.6999V26.4999ZM28.2116 32.2174L27.5094 32.6007C27.6499 32.8581 27.92 33.018 28.2132 33.0174C28.5065 33.0168 28.7759 32.8559 28.9154 32.5979L28.2116 32.2174ZM31.303 26.4999V25.6999C31.0091 25.6999 30.739 25.861 30.5992 26.1194L31.303 26.4999ZM38.7454 26.4999H39.5454C39.5454 26.0581 39.1872 25.6999 38.7454 25.6999V26.4999ZM38.7454 30.7057L38.8987 31.4908C39.2743 31.4175 39.5454 31.0884 39.5454 30.7057H38.7454ZM37.505 30.9479L37.3516 30.1628C36.976 30.2361 36.705 30.5652 36.705 30.9479H37.505ZM37.505 36.9368H36.705C36.705 37.3195 36.976 37.6486 37.3516 37.7219L37.505 36.9368ZM38.7454 37.179H39.5454C39.5454 36.7963 39.2743 36.4672 38.8987 36.3939L38.7454 37.179ZM38.7454 41.3848V42.1848C39.1872 42.1848 39.5454 41.8266 39.5454 41.3848H38.7454ZM31.303 41.3848H30.503C30.503 41.8266 30.8611 42.1848 31.303 42.1848V41.3848ZM31.303 34.1265H32.103C32.103 33.7644 31.8598 33.4475 31.5102 33.3538C31.1605 33.26 30.7914 33.4127 30.6103 33.7262L31.303 34.1265ZM28.2116 39.4757L27.5206 39.8788C27.6643 40.1251 27.9281 40.2763 28.2133 40.2757C28.4984 40.2751 28.7616 40.1228 28.9043 39.876L28.2116 39.4757ZM24.2912 34.1265V41.3848H25.8912V34.1265H24.2912ZM25.0912 40.5848H17.6585V42.1848H25.0912V40.5848ZM18.4585 41.3848V37.179H16.8585V41.3848H18.4585ZM17.8119 37.9642L19.0523 37.7219L18.7456 36.1516L17.5052 36.3939L17.8119 37.9642ZM19.6989 36.9368V30.9479H18.0989V36.9368H19.6989ZM19.0523 30.1628L17.8119 29.9205L17.5052 31.4908L18.7456 31.7331L19.0523 30.1628ZM18.4585 30.7057V26.4999H16.8585V30.7057H18.4585ZM17.6585 27.2999H25.0912V25.6999H17.6585V27.2999ZM24.389 26.8832L27.5094 32.6007L28.9139 31.8342L25.7935 26.1167L24.389 26.8832ZM28.9154 32.5979L32.0067 26.8804L30.5992 26.1194L27.5079 31.8369L28.9154 32.5979ZM31.303 27.2999H38.7454V25.6999H31.303V27.2999ZM37.9454 26.4999V30.7057H39.5454V26.4999H37.9454ZM38.592 29.9205L37.3516 30.1628L37.6583 31.7331L38.8987 31.4908L38.592 29.9205ZM36.705 30.9479V36.9368H38.305V30.9479H36.705ZM37.3516 37.7219L38.592 37.9642L38.8987 36.3939L37.6583 36.1516L37.3516 37.7219ZM37.9454 37.179V41.3848H39.5454V37.179H37.9454ZM38.7454 40.5848H31.303V42.1848H38.7454V40.5848ZM32.103 41.3848V34.1265H30.503V41.3848H32.103ZM30.6103 33.7262L27.519 39.0754L28.9043 39.876L31.9956 34.5267L30.6103 33.7262ZM28.9027 39.0726L25.7823 33.7234L24.4002 34.5296L27.5206 39.8788L28.9027 39.0726ZM44.0659 41.3848H43.2659C43.2659 41.8266 43.6241 42.1848 44.0659 42.1848V41.3848ZM44.0659 37.1984L43.8719 36.4223C43.5158 36.5113 43.2659 36.8313 43.2659 37.1984H44.0659ZM45.3063 36.8883L45.5004 37.6644C45.7572 37.6002 45.9657 37.413 46.0571 37.1645C46.1486 36.916 46.1111 36.6384 45.9571 36.423L45.3063 36.8883ZM41.0521 30.9382L41.7029 30.4729C41.5767 30.2964 41.3841 30.1787 41.1694 30.1469L41.0521 30.9382ZM39.4823 30.7057H38.6823C38.6823 31.1022 38.9728 31.4389 39.365 31.497L39.4823 30.7057ZM39.4823 26.4999V25.6999C39.0404 25.6999 38.6823 26.0581 38.6823 26.4999H39.4823ZM47.7581 26.4999H48.5581C48.5581 26.0581 48.1999 25.6999 47.7581 25.6999V26.4999ZM47.7581 30.7057L47.9448 31.4836C48.3045 31.3972 48.5581 31.0756 48.5581 30.7057H47.7581ZM46.789 30.9382L46.6023 30.1603C46.35 30.2209 46.1427 30.4001 46.0463 30.641C45.9499 30.8819 45.9763 31.1546 46.1172 31.3726L46.789 30.9382ZM48.7562 33.9811L48.0844 34.4154C48.2318 34.6434 48.4847 34.7811 48.7562 34.7811C49.0277 34.7811 49.2806 34.6434 49.428 34.4154L48.7562 33.9811ZM50.7234 30.9382L51.3952 31.3726C51.5361 31.1546 51.5626 30.8819 51.4661 30.641C51.3697 30.4001 51.1624 30.2209 50.9101 30.1603L50.7234 30.9382ZM49.7543 30.7057H48.9543C48.9543 31.0756 49.208 31.3972 49.5677 31.4836L49.7543 30.7057ZM49.7543 26.4999V25.6999C49.3125 25.6999 48.9543 26.0581 48.9543 26.4999H49.7543ZM58.0205 26.4999H58.8205C58.8205 26.0581 58.4623 25.6999 58.0205 25.6999V26.4999ZM58.0205 30.7057L58.1384 31.4969C58.5304 31.4385 58.8205 31.1019 58.8205 30.7057H58.0205ZM56.4603 30.9382L56.3423 30.147C56.1279 30.1789 55.9356 30.2966 55.8095 30.4729L56.4603 30.9382ZM52.2061 36.8883L51.5553 36.423C51.4013 36.6384 51.3639 36.916 51.4553 37.1645C51.5467 37.413 51.7552 37.6002 52.0121 37.6644L52.2061 36.8883ZM53.4465 37.1984H54.2465C54.2465 36.8313 53.9967 36.5113 53.6405 36.4223L53.4465 37.1984ZM53.4465 41.3848V42.1848C53.8883 42.1848 54.2465 41.8266 54.2465 41.3848H53.4465ZM44.8659 41.3848V37.1984H43.2659V41.3848H44.8659ZM44.26 37.9745L45.5004 37.6644L45.1123 36.1122L43.8719 36.4223L44.26 37.9745ZM45.9571 36.423L41.7029 30.4729L40.4014 31.4035L44.6556 37.3536L45.9571 36.423ZM41.1694 30.1469L39.5995 29.9143L39.365 31.497L40.9349 31.7296L41.1694 30.1469ZM40.2823 30.7057V26.4999H38.6823V30.7057H40.2823ZM39.4823 27.2999H47.7581V25.6999H39.4823V27.2999ZM46.9581 26.4999V30.7057H48.5581V26.4999H46.9581ZM47.5714 29.9278L46.6023 30.1603L46.9757 31.7161L47.9448 31.4836L47.5714 29.9278ZM46.1172 31.3726L48.0844 34.4154L49.428 33.5468L47.4608 30.5039L46.1172 31.3726ZM49.428 34.4154L51.3952 31.3726L50.0516 30.5039L48.0844 33.5468L49.428 34.4154ZM50.9101 30.1603L49.941 29.9278L49.5677 31.4836L50.5367 31.7161L50.9101 30.1603ZM50.5543 30.7057V26.4999H48.9543V30.7057H50.5543ZM49.7543 27.2999H58.0205V25.6999H49.7543V27.2999ZM57.2205 26.4999V30.7057H58.8205V26.4999H57.2205ZM57.9025 29.9144L56.3423 30.147L56.5782 31.7295L58.1384 31.4969L57.9025 29.9144ZM55.8095 30.4729L51.5553 36.423L52.8569 37.3536L57.1111 31.4035L55.8095 30.4729ZM52.0121 37.6644L53.2525 37.9745L53.6405 36.4223L52.4001 36.1122L52.0121 37.6644ZM52.6465 37.1984V41.3848H54.2465V37.1984H52.6465ZM53.4465 40.5848H44.0659V42.1848H53.4465V40.5848ZM58.767 26.4999V25.6999C58.3252 25.6999 57.967 26.0581 57.967 26.4999H58.767ZM70.0663 26.655L69.9648 27.4485L69.971 27.4493L70.0663 26.655ZM73.5162 27.7694L73.0307 28.4052L73.0362 28.4094L73.5162 27.7694ZM74.3593 28.6803L73.6721 29.09L73.678 29.0996L74.3593 28.6803ZM74.776 29.7851L73.9882 29.9248L73.9906 29.9371L74.776 29.7851ZM74.7566 32.3725L73.9756 32.1989L73.9731 32.2108L74.7566 32.3725ZM74.2818 33.4966L74.9396 33.952L74.9436 33.9461L74.2818 33.4966ZM73.3127 34.4075L72.8738 33.7386L72.869 33.7419L73.3127 34.4075ZM71.7331 35.0955L71.9509 35.8654L71.956 35.8639L71.7331 35.0955ZM69.4074 35.5219L69.4926 36.3174L69.4976 36.3168L69.4074 35.5219ZM66.2095 35.6673V34.8673C65.7676 34.8673 65.4095 35.2255 65.4095 35.6673H66.2095ZM66.2095 36.9368H65.4095C65.4095 37.3195 65.6805 37.6486 66.0561 37.7219L66.2095 36.9368ZM67.4499 37.179H68.2499C68.2499 36.7963 67.9788 36.4672 67.6032 36.3939L67.4499 37.179ZM67.4499 41.3848V42.1848C67.8917 42.1848 68.2499 41.8266 68.2499 41.3848H67.4499ZM58.767 41.3848H57.967C57.967 41.8266 58.3252 42.1848 58.767 42.1848V41.3848ZM58.767 37.179L58.6137 36.3939C58.2381 36.4672 57.967 36.7963 57.967 37.179H58.767ZM60.0074 36.9368L60.1608 37.7219C60.5364 37.6486 60.8074 37.3195 60.8074 36.9368H60.0074ZM60.0074 30.9479H60.8074C60.8074 30.5652 60.5364 30.2361 60.1608 30.1628L60.0074 30.9479ZM58.767 30.7057H57.967C57.967 31.0884 58.2381 31.4175 58.6137 31.4908L58.767 30.7057ZM66.2095 33.0023H65.4095C65.4095 33.4442 65.7676 33.8023 66.2095 33.8023V33.0023ZM67.227 32.9442L67.1278 32.1504L67.1257 32.1506L67.227 32.9442ZM68.0119 32.7019L68.4111 33.3953L68.4175 33.3915L68.0119 32.7019ZM68.5158 30.2405L67.7964 30.5905L67.8003 30.5983L68.5158 30.2405ZM68.0119 29.6978L67.6127 30.3912L67.6217 30.3962L68.0119 29.6978ZM67.227 29.4556L67.1257 30.2491L67.1278 30.2494L67.227 29.4556ZM66.2095 29.3974V28.5974C65.7676 28.5974 65.4095 28.9556 65.4095 29.3974H66.2095ZM58.767 27.2999H67.2076V25.6999H58.767V27.2999ZM67.2076 27.2999C68.2828 27.2999 69.2002 27.3506 69.9648 27.4485L70.1679 25.8614C69.3174 25.7526 68.329 25.6999 67.2076 25.6999V27.2999ZM69.971 27.4493C70.7433 27.5419 71.3762 27.6751 71.8801 27.8412L72.3808 26.3216C71.7476 26.1129 71.0045 25.9618 70.1617 25.8607L69.971 27.4493ZM71.8801 27.8412C72.3907 28.0095 72.7657 28.2029 73.0307 28.4052L74.0018 27.1336C73.5561 26.7932 73.0072 26.528 72.3808 26.3216L71.8801 27.8412ZM73.0362 28.4094C73.3275 28.6278 73.5329 28.8564 73.6722 29.09L75.0465 28.2707C74.7851 27.8323 74.4285 27.4536 73.9962 27.1294L73.0362 28.4094ZM73.678 29.0996C73.8303 29.3472 73.9343 29.6201 73.9883 29.9248L75.5637 29.6453C75.4756 29.1489 75.3017 28.6853 75.0406 28.261L73.678 29.0996ZM73.9906 29.9371C74.0574 30.2825 74.0923 30.6576 74.0923 31.0642H75.6923C75.6923 30.5664 75.6496 30.0887 75.5614 29.633L73.9906 29.9371ZM74.0923 31.0642C74.0923 31.4776 74.0521 31.855 73.9757 32.1989L75.5376 32.546C75.642 32.0759 75.6923 31.5811 75.6923 31.0642H74.0923ZM73.9731 32.2108C73.9103 32.5152 73.7932 32.792 73.62 33.0471L74.9436 33.9461C75.2355 33.5163 75.435 33.0437 75.5401 32.5341L73.9731 32.2108ZM73.624 33.0412C73.4609 33.2768 73.2189 33.5122 72.8738 33.7387L73.7516 35.0763C74.2335 34.7601 74.6375 34.3882 74.9395 33.9519L73.624 33.0412ZM72.869 33.7419C72.55 33.9545 72.1051 34.1547 71.5103 34.3272L71.956 35.8639C72.6533 35.6617 73.2614 35.4032 73.7565 35.0731L72.869 33.7419ZM71.5154 34.3257C70.9299 34.4913 70.1999 34.6269 69.3172 34.727L69.4976 36.3168C70.4367 36.2103 71.2572 36.0615 71.9509 35.8653L71.5154 34.3257ZM69.3222 34.7265C68.4538 34.8195 67.4176 34.8673 66.2095 34.8673V36.4673C67.4563 36.4673 68.552 36.4181 69.4926 36.3174L69.3222 34.7265ZM65.4095 35.6673V36.9368H67.0095V35.6673H65.4095ZM66.0561 37.7219L67.2965 37.9642L67.6032 36.3939L66.3628 36.1516L66.0561 37.7219ZM66.6499 37.179V41.3848H68.2499V37.179H66.6499ZM67.4499 40.5848H58.767V42.1848H67.4499V40.5848ZM59.567 41.3848V37.179H57.967V41.3848H59.567ZM58.9204 37.9642L60.1608 37.7219L59.8541 36.1516L58.6137 36.3939L58.9204 37.9642ZM60.8074 36.9368V30.9479H59.2074V36.9368H60.8074ZM60.1608 30.1628L58.9204 29.9205L58.6137 31.4908L59.8541 31.7331L60.1608 30.1628ZM59.567 30.7057V26.4999H57.967V30.7057H59.567ZM66.2095 33.8023C66.6109 33.8023 66.9846 33.7816 67.3283 33.7378L67.1257 32.1506C66.8621 32.1843 66.5575 32.2023 66.2095 32.2023V33.8023ZM67.3262 33.738C67.7145 33.6895 68.0843 33.5834 68.4111 33.3952L67.6128 32.0086C67.5132 32.066 67.3597 32.1214 67.1278 32.1504L67.3262 33.738ZM68.4175 33.3915C68.779 33.1789 69.0532 32.8737 69.2352 32.4995L67.7965 31.7996C67.7459 31.9035 67.6842 31.9666 67.6063 32.0124L68.4175 33.3915ZM69.2352 32.4995C69.4253 32.1089 69.4903 31.6504 69.4903 31.1805H67.8903C67.8903 31.5246 67.839 31.7121 67.7965 31.7996L69.2352 32.4995ZM69.4903 31.1805C69.4903 30.7206 69.4245 30.2689 69.2314 29.8827L67.8003 30.5983C67.8398 30.6773 67.8903 30.8522 67.8903 31.1805H69.4903ZM69.2352 29.8905C69.0517 29.5132 68.7729 29.2066 68.4022 28.9995L67.6217 30.3962C67.6903 30.4345 67.7474 30.4897 67.7965 30.5905L69.2352 29.8905ZM68.4111 29.0045C68.0843 28.8164 67.7145 28.7103 67.3262 28.6617L67.1278 30.2494C67.3597 30.2784 67.5132 30.3338 67.6128 30.3911L68.4111 29.0045ZM67.3283 28.662C66.9846 28.6181 66.6109 28.5974 66.2095 28.5974V30.1974C66.5575 30.1974 66.8621 30.2155 67.1257 30.2491L67.3283 28.662ZM65.4095 29.3974V33.0023H67.0095V29.3974H65.4095ZM84.7772 41.3848L83.9941 41.5487C84.0717 41.9193 84.3985 42.1848 84.7772 42.1848V41.3848ZM84.2539 38.8846L85.0369 38.7207C84.9593 38.3501 84.6325 38.0846 84.2539 38.0846V38.8846ZM80.2032 38.8846V38.0846C79.8234 38.0846 79.496 38.3516 79.4195 38.7236L80.2032 38.8846ZM79.6896 41.3848V42.1848C80.0693 42.1848 80.3968 41.9178 80.4732 41.5457L79.6896 41.3848ZM74.1756 41.3848H73.3756C73.3756 41.8266 73.7338 42.1848 74.1756 42.1848V41.3848ZM74.1756 36.5007L74.0162 35.7167C73.6435 35.7925 73.3756 36.1203 73.3756 36.5007H74.1756ZM75.3675 36.2584L75.5269 37.0424C75.8177 36.9833 76.0518 36.7681 76.1353 36.4833L75.3675 36.2584ZM78.2263 26.4999V25.6999C77.8711 25.6999 77.5584 25.9341 77.4585 26.275L78.2263 26.4999ZM86.2308 26.4999L86.9983 26.2743C86.8982 25.9338 86.5857 25.6999 86.2308 25.6999V26.4999ZM89.0992 36.2584L88.3317 36.484C88.4153 36.7685 88.6493 36.9833 88.9398 37.0424L89.0992 36.2584ZM90.2911 36.5007H91.0911C91.0911 36.1203 90.8233 35.7925 90.4505 35.7167L90.2911 36.5007ZM90.2911 41.3848V42.1848C90.733 42.1848 91.0911 41.8266 91.0911 41.3848H90.2911ZM81.0366 35.5607L80.254 35.3944C80.2039 35.6305 80.263 35.8766 80.4149 36.0642C80.5668 36.2517 80.7952 36.3607 81.0366 36.3607V35.5607ZM83.4205 35.5607V36.3607C83.6618 36.3607 83.8903 36.2517 84.0422 36.0642C84.194 35.8766 84.2532 35.6305 84.203 35.3944L83.4205 35.5607ZM82.2285 29.9498L83.0111 29.7836C82.9326 29.414 82.6063 29.1498 82.2285 29.1498C81.8508 29.1498 81.5245 29.414 81.446 29.7836L82.2285 29.9498ZM85.5602 41.2209L85.0369 38.7207L83.4708 39.0485L83.9941 41.5487L85.5602 41.2209ZM84.2539 38.0846H80.2032V39.6846H84.2539V38.0846ZM79.4195 38.7236L78.9059 41.2238L80.4732 41.5457L80.9868 39.0456L79.4195 38.7236ZM79.6896 40.5848H74.1756V42.1848H79.6896V40.5848ZM74.9756 41.3848V36.5007H73.3756V41.3848H74.9756ZM74.3349 37.2846L75.5269 37.0424L75.2082 35.4744L74.0162 35.7167L74.3349 37.2846ZM76.1353 36.4833L78.994 26.7248L77.4585 26.275L74.5998 36.0335L76.1353 36.4833ZM78.2263 27.2999H86.2308V25.6999H78.2263V27.2999ZM85.4632 26.7255L88.3317 36.484L89.8667 36.0328L86.9983 26.2743L85.4632 26.7255ZM88.9398 37.0424L90.1318 37.2846L90.4505 35.7167L89.2585 35.4744L88.9398 37.0424ZM89.4911 36.5007V41.3848H91.0911V36.5007H89.4911ZM90.2911 40.5848H84.7772V42.1848H90.2911V40.5848ZM81.0366 36.3607H83.4205V34.7607H81.0366V36.3607ZM84.203 35.3944L83.0111 29.7836L81.446 30.116L82.6379 35.7269L84.203 35.3944ZM81.446 29.7836L80.254 35.3944L81.8191 35.7269L83.0111 30.116L81.446 29.7836ZM91.4544 30.3471L90.7178 30.0351L90.7159 30.0394L91.4544 30.3471ZM93.1309 28.0601L93.6387 28.6783L93.639 28.678L93.1309 28.0601ZM102.715 26.6647L102.535 27.4442L102.537 27.4447L102.715 26.6647ZM104.072 27.062L103.789 27.8105L103.793 27.812L104.072 27.062ZM105.186 27.5271H105.986C105.986 27.2175 105.807 26.9357 105.527 26.8036L105.186 27.5271ZM105.186 31.9558V32.7558C105.628 32.7558 105.986 32.3976 105.986 31.9558H105.186ZM102.269 31.9558L101.616 32.4182C101.766 32.6299 102.01 32.7558 102.269 32.7558V31.9558ZM101.164 30.9285L100.78 31.63L100.784 31.6326L101.164 30.9285ZM98.8678 30.8123L98.561 30.0734L98.556 30.0755L98.8678 30.8123ZM97.3269 32.4306L98.0654 32.7383L98.0672 32.734L97.3269 32.4306ZM97.8405 36.2196L97.2677 36.7781L97.2713 36.7818L97.8405 36.2196ZM100.709 36.9561L100.623 36.1608L100.621 36.161L100.709 36.9561ZM101.426 36.8398L101.595 37.6218C101.963 37.5422 102.226 37.2165 102.226 36.8398H101.426ZM101.426 35.6673H102.226C102.226 35.2255 101.868 34.8673 101.426 34.8673V35.6673ZM99.5655 35.6673H98.7655C98.7655 36.1091 99.1237 36.4673 99.5655 36.4673V35.6673ZM99.5655 33.012V32.212C99.1237 32.212 98.7655 32.5702 98.7655 33.012H99.5655ZM105.593 33.012H106.393C106.393 32.5702 106.035 32.212 105.593 32.212V33.012ZM105.593 40.0862L105.901 40.8244C106.199 40.7 106.393 40.4089 106.393 40.0862H105.593ZM103.965 40.6967L104.215 41.4566L104.221 41.4548L103.965 40.6967ZM102.25 41.191L102.435 41.9691L102.442 41.9676L102.25 41.191ZM100.573 41.472L100.498 40.6754L100.489 40.6764L100.573 41.472ZM94.9043 40.8033L94.5621 41.5265L94.5651 41.5279L94.9043 40.8033ZM93.2569 39.7374L92.7317 40.3409L92.7362 40.3448L93.2569 39.7374ZM91.9777 38.2159L91.2897 38.6242L91.2951 38.6331L91.9777 38.2159ZM91.1637 36.2293L90.3896 36.4313L90.39 36.4329L91.1637 36.2293ZM91.673 33.7679C91.673 32.4894 91.8571 31.4606 92.1929 30.6548L90.7159 30.0394C90.2764 31.0942 90.073 32.3459 90.073 33.7679H91.673ZM92.191 30.6592C92.5388 29.8383 93.0228 29.1842 93.6387 28.6783L92.6231 27.4419C91.7919 28.1247 91.1582 28.9954 90.7178 30.0351L92.191 30.6592ZM93.639 28.678C94.2477 28.1774 94.97 27.7832 95.8162 27.5011L95.3103 25.9832C94.2959 26.3214 93.3966 26.8058 92.6227 27.4422L93.639 28.678ZM95.8162 27.5011C96.6486 27.2237 97.6296 27.077 98.7708 27.077V25.477C97.4959 25.477 96.3385 25.6405 95.3103 25.9832L95.8162 27.5011ZM98.7708 27.077C99.5827 27.077 100.292 27.1117 100.903 27.1788L101.077 25.5884C100.396 25.5134 99.6258 25.477 98.7708 25.477V27.077ZM100.903 27.1788C101.525 27.2473 102.068 27.3364 102.535 27.4442L102.895 25.8851C102.354 25.7603 101.747 25.6621 101.077 25.5884L100.903 27.1788ZM102.537 27.4447C103.02 27.5547 103.436 27.6774 103.789 27.8105L104.354 26.3134C103.919 26.1493 103.43 26.0072 102.893 25.8847L102.537 27.4447ZM103.793 27.812C104.175 27.9537 104.525 28.1 104.845 28.2507L105.527 26.8036C105.162 26.6312 104.769 26.4675 104.35 26.3119L103.793 27.812ZM104.386 27.5271V31.9558H105.986V27.5271H104.386ZM105.186 31.1558H102.269V32.7558H105.186V31.1558ZM102.922 31.4933C102.538 30.9506 102.082 30.5147 101.544 30.2245L100.784 31.6326C101.061 31.7817 101.342 32.0306 101.616 32.4182L102.922 31.4933ZM101.549 30.2271C101.039 29.9475 100.494 29.7991 99.924 29.7991V31.3991C100.206 31.3991 100.488 31.4702 100.78 31.63L101.549 30.2271ZM99.924 29.7991C99.4544 29.7991 98.9982 29.8919 98.5611 30.0734L99.1745 31.5511C99.4221 31.4483 99.6701 31.3991 99.924 31.3991V29.7991ZM98.556 30.0755C98.1184 30.2607 97.7302 30.5293 97.3941 30.8736L98.539 31.9913C98.7326 31.7929 98.9453 31.6481 99.1795 31.549L98.556 30.0755ZM97.3941 30.8736C97.049 31.2271 96.7824 31.6497 96.5867 32.1272L98.0672 32.734C98.1945 32.4234 98.3543 32.1805 98.539 31.9913L97.3941 30.8736ZM96.5885 32.1229C96.3791 32.6255 96.2847 33.179 96.2847 33.7679H97.8847C97.8847 33.3489 97.9518 33.011 98.0654 32.7383L96.5885 32.1229ZM96.2847 33.7679C96.2847 34.983 96.5556 36.0477 97.2677 36.7781L98.4133 35.6612C98.1177 35.3579 97.8847 34.7881 97.8847 33.7679H96.2847ZM97.2713 36.7818C97.9722 37.4915 98.9255 37.7949 100.011 37.7949V36.1949C99.2235 36.1949 98.7297 35.9815 98.4098 35.6575L97.2713 36.7818ZM100.011 37.7949C100.274 37.7949 100.536 37.7803 100.797 37.7512L100.621 36.161C100.417 36.1836 100.214 36.1949 100.011 36.1949V37.7949ZM100.795 37.7515C101.062 37.7226 101.329 37.6793 101.595 37.6218L101.257 36.0579C101.045 36.1038 100.834 36.138 100.623 36.1608L100.795 37.7515ZM102.226 36.8398V35.6673H100.626V36.8398H102.226ZM101.426 34.8673H99.5655V36.4673H101.426V34.8673ZM100.365 35.6673V33.012H98.7655V35.6673H100.365ZM99.5655 33.812H105.593V32.212H99.5655V33.812ZM104.793 33.012V40.0862H106.393V33.012H104.793ZM105.285 39.348C104.793 39.5533 104.268 39.7503 103.71 39.9386L104.221 41.4548C104.812 41.2556 105.372 41.0455 105.901 40.8244L105.285 39.348ZM103.715 39.9369C103.165 40.118 102.613 40.2771 102.058 40.4143L102.442 41.9676C103.037 41.8205 103.628 41.6502 104.215 41.4565L103.715 39.9369ZM102.064 40.4128C101.53 40.5403 101.008 40.6275 100.498 40.6755L100.648 42.2685C101.237 42.2131 101.833 42.113 102.435 41.9691L102.064 40.4128ZM100.489 40.6764C99.9629 40.7321 99.4843 40.7592 99.0519 40.7592V42.3592C99.5498 42.3592 100.085 42.3281 100.658 42.2675L100.489 40.6764ZM99.0519 40.7592C98.3279 40.7592 97.6397 40.7071 96.9862 40.6042L96.7374 42.1847C97.4794 42.3015 98.2511 42.3592 99.0519 42.3592V40.7592ZM96.9862 40.6042C96.3588 40.5054 95.779 40.3295 95.2434 40.0788L94.5651 41.5279C95.2441 41.8457 95.9693 42.0638 96.7374 42.1847L96.9862 40.6042ZM95.2464 40.0802C94.709 39.8259 94.2201 39.5093 93.7775 39.1299L92.7362 40.3448C93.2886 40.8182 93.8979 41.2122 94.5621 41.5265L95.2464 40.0802ZM93.782 39.1338C93.3483 38.7565 92.9744 38.3127 92.6603 37.7988L91.2951 38.6331C91.6916 39.282 92.1705 39.8525 92.7317 40.3409L93.782 39.1338ZM92.6657 37.8077C92.3588 37.2905 92.1144 36.6984 91.9373 36.0257L90.39 36.4329C90.6006 37.2332 90.8989 37.9656 91.2897 38.6242L92.6657 37.8077ZM91.9378 36.0274C91.7638 35.3604 91.673 34.609 91.673 33.7679H90.073C90.073 34.7228 90.176 35.6124 90.3896 36.4313L91.9378 36.0274ZM114.17 37.6636H113.37C113.37 38.1054 113.728 38.4636 114.17 38.4636V37.6636ZM115.41 37.557L115.554 38.3439L115.567 38.3414L115.41 37.557ZM116.476 37.2662L116.21 36.5118L116.205 36.5135L116.476 37.2662ZM118.065 36.4232V35.6232C117.894 35.6232 117.727 35.6784 117.589 35.7807L118.065 36.4232ZM119.684 36.4232H120.484C120.484 35.9813 120.125 35.6232 119.684 35.6232V36.4232ZM119.684 41.3848V42.1848C120.125 42.1848 120.484 41.8266 120.484 41.3848H119.684ZM106.727 41.3848H105.927C105.927 41.8266 106.285 42.1848 106.727 42.1848V41.3848ZM106.727 37.179L106.574 36.3939C106.198 36.4672 105.927 36.7963 105.927 37.179H106.727ZM107.968 36.9368L108.121 37.7219C108.497 37.6486 108.768 37.3195 108.768 36.9368H107.968ZM107.968 30.9673H108.768C108.768 30.5846 108.497 30.2555 108.121 30.1821L107.968 30.9673ZM106.727 30.725H105.927C105.927 31.1077 106.198 31.4368 106.574 31.5102L106.727 30.725ZM106.727 26.4999V25.6999C106.285 25.6999 105.927 26.0581 105.927 26.4999H106.727ZM119.684 26.4999H120.484C120.484 26.0581 120.125 25.6999 119.684 25.6999V26.4999ZM119.684 31.4615V32.2615C120.125 32.2615 120.484 31.9034 120.484 31.4615H119.684ZM118.123 31.4615L117.67 32.1208C117.804 32.2125 117.962 32.2615 118.123 32.2615V31.4615ZM116.495 30.6281L116.216 31.3778C116.222 31.38 116.228 31.3821 116.234 31.3841L116.495 30.6281ZM115.42 30.3374L115.263 31.122L115.276 31.1243L115.42 30.3374ZM114.17 30.2211V29.4211C113.728 29.4211 113.37 29.7793 113.37 30.2211H114.17ZM114.17 32.8667H113.37C113.37 33.1086 113.479 33.3375 113.667 33.4894C113.856 33.6413 114.103 33.6998 114.339 33.6485L114.17 32.8667ZM117.077 32.2368H117.877C117.877 31.9949 117.767 31.766 117.579 31.6141C117.391 31.4622 117.144 31.4037 116.907 31.4549L117.077 32.2368ZM117.077 35.6673L116.907 36.4491C117.144 36.5004 117.391 36.4419 117.579 36.29C117.767 36.1381 117.877 35.9092 117.877 35.6673H117.077ZM114.17 35.0374L114.339 34.2555C114.103 34.2043 113.856 34.2628 113.667 34.4147C113.479 34.5666 113.37 34.7955 113.37 35.0374H114.17ZM114.17 38.4636C114.652 38.4636 115.114 38.4246 115.554 38.3438L115.266 36.7701C114.931 36.8315 114.566 36.8636 114.17 36.8636V38.4636ZM115.567 38.3414C115.988 38.2573 116.382 38.1504 116.747 38.0189L116.205 36.5135C115.924 36.6146 115.608 36.7016 115.253 36.7725L115.567 38.3414ZM116.742 38.0206C117.109 37.8913 117.449 37.7407 117.759 37.5666L116.976 36.1712C116.757 36.2943 116.502 36.4086 116.21 36.5118L116.742 38.0206ZM117.759 37.5666C118.047 37.4049 118.309 37.2382 118.542 37.0656L117.589 35.7807C117.421 35.9053 117.218 36.0358 116.976 36.1712L117.759 37.5666ZM118.065 37.2232H119.684V35.6232H118.065V37.2232ZM118.884 36.4232V41.3848H120.484V36.4232H118.884ZM119.684 40.5848H106.727V42.1848H119.684V40.5848ZM107.527 41.3848V37.179H105.927V41.3848H107.527ZM106.881 37.9642L108.121 37.7219L107.814 36.1516L106.574 36.3939L106.881 37.9642ZM108.768 36.9368V30.9673H107.168V36.9368H108.768ZM108.121 30.1821L106.881 29.9399L106.574 31.5102L107.814 31.7525L108.121 30.1821ZM107.527 30.725V26.4999H105.927V30.725H107.527ZM106.727 27.2999H119.684V25.6999H106.727V27.2999ZM118.884 26.4999V31.4615H120.484V26.4999H118.884ZM119.684 30.6615H118.123V32.2615H119.684V30.6615ZM118.577 30.8023C118.343 30.6418 118.08 30.4825 117.791 30.3238L117.022 31.7271C117.275 31.8656 117.49 31.997 117.67 32.1208L118.577 30.8023ZM117.791 30.3238C117.475 30.1508 117.129 30.001 116.757 29.8721L116.234 31.3841C116.534 31.4879 116.795 31.6029 117.022 31.7271L117.791 30.3238ZM116.775 29.8785C116.397 29.7376 115.992 29.629 115.564 29.5505L115.276 31.1243C115.623 31.1879 115.935 31.2732 116.216 31.3778L116.775 29.8785ZM115.577 29.553C115.131 29.4639 114.662 29.4211 114.17 29.4211V31.0211C114.569 31.0211 114.933 31.0559 115.263 31.1219L115.577 29.553ZM113.37 30.2211V32.8667H114.97V30.2211H113.37ZM114.339 33.6485L117.246 33.0186L116.907 31.4549L114 32.0848L114.339 33.6485ZM116.277 32.2368V35.6673H117.877V32.2368H116.277ZM117.246 34.8854L114.339 34.2555L114 35.8192L116.907 36.4491L117.246 34.8854ZM113.37 35.0374V37.6636H114.97V35.0374H113.37Z" fill="black"/>
</svg>
