<svg width="148" height="78" viewBox="0 0 148 78" fill="none" xmlns="http://www.w3.org/2000/svg">
<rect x="11.0579" y="14.176" width="133.255" height="60.957" rx="5.20479" fill="#FF6700" stroke="black" stroke-width="5.67042"/>
<rect x="2.83521" y="2.83521" width="133.255" height="60.957" rx="5.20479" fill="#EFEFEF" stroke="black" stroke-width="5.67042"/>
<path d="M25.0912 33.7534V41.0117H17.6585V36.806L18.8989 36.5637V30.5749L17.6585 30.3326V26.1269H25.0912L28.2116 31.8444L31.303 26.1269H38.7454V30.3326L37.505 30.5749V36.5637L38.7454 36.806V41.0117H31.303V33.7534L28.2116 39.1027L25.0912 33.7534ZM44.0659 41.0117V36.8254L45.3063 36.5153L41.0521 30.5652L39.4823 30.3326V26.1269H47.7581V30.3326L46.789 30.5652L48.7562 33.6081L50.7234 30.5652L49.7543 30.3326V26.1269H58.0205V30.3326L56.4603 30.5652L52.2061 36.5153L53.4465 36.8254V41.0117H44.0659ZM58.767 26.1269H67.2076C68.3059 26.1269 69.2588 26.1786 70.0663 26.2819C70.8739 26.3788 71.5619 26.521 72.1305 26.7083C72.699 26.8957 73.1609 27.125 73.5162 27.3963C73.878 27.6677 74.159 27.9713 74.3593 28.3073C74.566 28.6432 74.7049 29.0115 74.776 29.412C74.8535 29.8126 74.8923 30.2389 74.8923 30.6912C74.8923 31.1563 74.8471 31.5924 74.7566 31.9994C74.6726 32.4064 74.5144 32.7811 74.2818 33.1235C74.0492 33.4595 73.7262 33.7631 73.3127 34.0344C72.9057 34.3058 72.3792 34.5351 71.7331 34.7225C71.0936 34.9034 70.3183 35.0455 69.4074 35.1489C68.5029 35.2458 67.437 35.2942 66.2095 35.2942V36.5637L67.4499 36.806V41.0117H58.767V36.806L60.0074 36.5637V30.5749L58.767 30.3326V26.1269ZM66.2095 32.6293C66.5842 32.6293 66.9233 32.6099 67.227 32.5712C67.5371 32.5324 67.7987 32.4516 68.0119 32.3289C68.2316 32.1997 68.3996 32.0156 68.5158 31.7765C68.6321 31.5375 68.6903 31.2145 68.6903 30.8075C68.6903 30.4134 68.6321 30.1 68.5158 29.8675C68.3996 29.6284 68.2316 29.4475 68.0119 29.3248C67.7987 29.202 67.5371 29.1213 67.227 29.0825C66.9233 29.0438 66.5842 29.0244 66.2095 29.0244V32.6293ZM84.7772 41.0117L84.2539 38.5115H80.2032L79.6896 41.0117H74.1756V36.1276L75.3675 35.8854L78.2263 26.1269H86.2308L89.0992 35.8854L90.2911 36.1276V41.0117H84.7772ZM81.0366 35.1876H83.4205L82.2285 29.5767L81.0366 35.1876ZM90.873 33.3949C90.873 32.0446 91.0668 30.9044 91.4544 29.9741C91.8485 29.0438 92.4073 28.2814 93.1309 27.6871C93.8222 27.1185 94.6329 26.6792 95.5632 26.3691C96.4935 26.059 97.5627 25.904 98.7708 25.904C99.6042 25.904 100.344 25.9395 100.99 26.0106C101.636 26.0816 102.211 26.1753 102.715 26.2916C103.225 26.4079 103.678 26.5403 104.072 26.6889C104.472 26.8375 104.844 26.9926 105.186 27.1541V31.5827H102.269C101.94 31.1176 101.571 30.7752 101.164 30.5555C100.764 30.3358 100.35 30.226 99.924 30.226C99.5623 30.226 99.2102 30.2971 98.8678 30.4392C98.5318 30.5813 98.2314 30.7881 97.9665 31.0594C97.7016 31.3308 97.4885 31.6635 97.3269 32.0576C97.1654 32.4452 97.0847 32.8909 97.0847 33.3949C97.0847 34.5125 97.3366 35.3298 97.8405 35.8466C98.3509 36.3634 99.0745 36.6219 100.011 36.6219C100.244 36.6219 100.476 36.6089 100.709 36.5831C100.948 36.5572 101.187 36.5185 101.426 36.4668V35.2942H99.5655V32.639H105.593V39.7132C105.083 39.9264 104.54 40.1299 103.965 40.3237C103.397 40.511 102.825 40.6758 102.25 40.8179C101.681 40.9536 101.122 41.0473 100.573 41.0989C100.024 41.1571 99.517 41.1862 99.0519 41.1862C98.2895 41.1862 97.5595 41.1312 96.8618 41.0214C96.1641 40.9116 95.5116 40.7145 94.9043 40.4303C94.3035 40.146 93.7543 39.7907 93.2569 39.3643C92.7594 38.9315 92.333 38.4243 91.9777 37.8429C91.6288 37.255 91.3575 36.5928 91.1637 35.8563C90.9699 35.1133 90.873 34.2929 90.873 33.3949ZM114.17 37.2905C114.609 37.2905 115.022 37.255 115.41 37.1839C115.798 37.1064 116.153 37.0095 116.476 36.8932C116.806 36.7769 117.103 36.6445 117.368 36.4959C117.632 36.3473 117.865 36.1987 118.065 36.0501H119.684V41.0117H106.727V36.806L107.968 36.5637V30.5943L106.727 30.352V26.1269H119.684V31.0885H118.123C117.917 30.9464 117.678 30.801 117.406 30.6524C117.135 30.5038 116.831 30.3714 116.495 30.2551C116.166 30.1323 115.807 30.0354 115.42 29.9644C115.032 29.8868 114.615 29.8481 114.17 29.8481V32.4936L117.077 31.8637V35.2942L114.17 34.6643V37.2905Z" fill="#FF6700"/>
<path d="M25.0912 33.7534L25.8259 33.3248C25.6323 32.9929 25.2402 32.832 24.8693 32.9323C24.4983 33.0326 24.2407 33.3692 24.2407 33.7534H25.0912ZM25.0912 41.0117V41.8623C25.561 41.8623 25.9418 41.4815 25.9418 41.0117H25.0912ZM17.6585 41.0117H16.8079C16.8079 41.4815 17.1888 41.8623 17.6585 41.8623V41.0117ZM17.6585 36.806L17.4955 35.9712C17.0961 36.0492 16.8079 36.3991 16.8079 36.806H17.6585ZM18.8989 36.5637L19.062 37.3985C19.4613 37.3205 19.7495 36.9706 19.7495 36.5637H18.8989ZM18.8989 30.5749H19.7495C19.7495 30.168 19.4613 29.8181 19.062 29.7401L18.8989 30.5749ZM17.6585 30.3326H16.8079C16.8079 30.7395 17.0961 31.0894 17.4955 31.1674L17.6585 30.3326ZM17.6585 26.1269V25.2763C17.1888 25.2763 16.8079 25.6571 16.8079 26.1269H17.6585ZM25.0912 26.1269L25.8379 25.7194C25.6888 25.4462 25.4024 25.2763 25.0912 25.2763V26.1269ZM28.2116 31.8444L27.465 32.2518C27.6144 32.5255 27.9015 32.6955 28.2133 32.6949C28.5251 32.6943 28.8115 32.5232 28.9598 32.2489L28.2116 31.8444ZM31.303 26.1269V25.2763C30.9906 25.2763 30.7033 25.4475 30.5548 25.7223L31.303 26.1269ZM38.7454 26.1269H39.5959C39.5959 25.6571 39.2151 25.2763 38.7454 25.2763V26.1269ZM38.7454 30.3326L38.9084 31.1674C39.3078 31.0894 39.5959 30.7395 39.5959 30.3326H38.7454ZM37.505 30.5749L37.3419 29.7401C36.9426 29.8181 36.6544 30.168 36.6544 30.5749H37.505ZM37.505 36.5637H36.6544C36.6544 36.9706 36.9426 37.3205 37.3419 37.3985L37.505 36.5637ZM38.7454 36.806H39.5959C39.5959 36.3991 39.3078 36.0492 38.9084 35.9712L38.7454 36.806ZM38.7454 41.0117V41.8623C39.2151 41.8623 39.5959 41.4815 39.5959 41.0117H38.7454ZM31.303 41.0117H30.4524C30.4524 41.4815 30.8332 41.8623 31.303 41.8623V41.0117ZM31.303 33.7534H32.1535C32.1535 33.3685 31.895 33.0316 31.5233 32.9319C31.1515 32.8322 30.7591 32.9946 30.5665 33.3278L31.303 33.7534ZM28.2116 39.1027L27.4769 39.5312C27.6297 39.7931 27.9102 39.9538 28.2134 39.9532C28.5165 39.9526 28.7964 39.7907 28.9481 39.5282L28.2116 39.1027ZM24.2407 33.7534V41.0117H25.9418V33.7534H24.2407ZM25.0912 40.1612H17.6585V41.8623H25.0912V40.1612ZM18.5091 41.0117V36.806H16.8079V41.0117H18.5091ZM17.8216 37.6408L19.062 37.3985L18.7359 35.7289L17.4955 35.9712L17.8216 37.6408ZM19.7495 36.5637V30.5749H18.0484V36.5637H19.7495ZM19.062 29.7401L17.8216 29.4978L17.4955 31.1674L18.7359 31.4097L19.062 29.7401ZM18.5091 30.3326V26.1269H16.8079V30.3326H18.5091ZM17.6585 26.9774H25.0912V25.2763H17.6585V26.9774ZM24.3446 26.5343L27.465 32.2518L28.9582 31.4369L25.8379 25.7194L24.3446 26.5343ZM28.9598 32.2489L32.0512 26.5314L30.5548 25.7223L27.4634 31.4398L28.9598 32.2489ZM31.303 26.9774H38.7454V25.2763H31.303V26.9774ZM37.8948 26.1269V30.3326H39.5959V26.1269H37.8948ZM38.5823 29.4978L37.3419 29.7401L37.668 31.4097L38.9084 31.1674L38.5823 29.4978ZM36.6544 30.5749V36.5637H38.3555V30.5749H36.6544ZM37.3419 37.3985L38.5823 37.6408L38.9084 35.9712L37.668 35.7289L37.3419 37.3985ZM37.8948 36.806V41.0117H39.5959V36.806H37.8948ZM38.7454 40.1612H31.303V41.8623H38.7454V40.1612ZM32.1535 41.0117V33.7534H30.4524V41.0117H32.1535ZM30.5665 33.3278L27.4752 38.6771L28.9481 39.5282L32.0394 34.179L30.5665 33.3278ZM28.9463 38.6741L25.8259 33.3248L24.3565 34.182L27.4769 39.5312L28.9463 38.6741ZM44.0659 41.0117H43.2154C43.2154 41.4815 43.5962 41.8623 44.0659 41.8623V41.0117ZM44.0659 36.8254L43.8596 36.0002C43.481 36.0948 43.2154 36.4351 43.2154 36.8254H44.0659ZM45.3063 36.5153L45.5126 37.3404C45.7857 37.2721 46.0074 37.0732 46.1046 36.8089C46.2018 36.5447 46.162 36.2496 45.9982 36.0206L45.3063 36.5153ZM41.0521 30.5652L41.744 30.0705C41.6098 29.8828 41.4051 29.7576 41.1768 29.7238L41.0521 30.5652ZM39.4823 30.3326H38.6317C38.6317 30.7542 38.9405 31.1122 39.3576 31.174L39.4823 30.3326ZM39.4823 26.1269V25.2763C39.0125 25.2763 38.6317 25.6571 38.6317 26.1269H39.4823ZM47.7581 26.1269H48.6086C48.6086 25.6571 48.2278 25.2763 47.7581 25.2763V26.1269ZM47.7581 30.3326L47.9566 31.1597C48.339 31.0679 48.6086 30.7259 48.6086 30.3326H47.7581ZM46.789 30.5652L46.5905 29.7381C46.3222 29.8025 46.1018 29.993 45.9993 30.2492C45.8968 30.5053 45.9249 30.7953 46.0747 31.027L46.789 30.5652ZM48.7562 33.6081L48.0419 34.0698C48.1986 34.3122 48.4676 34.4586 48.7562 34.4586C49.0449 34.4586 49.3138 34.3122 49.4705 34.0698L48.7562 33.6081ZM50.7234 30.5652L51.4377 31.027C51.5875 30.7953 51.6156 30.5053 51.5131 30.2492C51.4106 29.993 51.1902 29.8025 50.9219 29.7381L50.7234 30.5652ZM49.7543 30.3326H48.9038C48.9038 30.7259 49.1734 31.0679 49.5559 31.1597L49.7543 30.3326ZM49.7543 26.1269V25.2763C49.2846 25.2763 48.9038 25.6571 48.9038 26.1269H49.7543ZM58.0205 26.1269H58.871C58.871 25.6571 58.4902 25.2763 58.0205 25.2763V26.1269ZM58.0205 30.3326L58.1459 31.1739C58.5626 31.1118 58.871 30.7539 58.871 30.3326H58.0205ZM56.4603 30.5652L56.3349 29.7239C56.1069 29.7579 55.9024 29.883 55.7684 30.0705L56.4603 30.5652ZM52.2061 36.5153L51.5142 36.0206C51.3504 36.2496 51.3106 36.5447 51.4078 36.8089C51.505 37.0732 51.7267 37.2721 51.9998 37.3404L52.2061 36.5153ZM53.4465 36.8254H54.2971C54.2971 36.4351 54.0314 36.0948 53.6528 36.0002L53.4465 36.8254ZM53.4465 41.0117V41.8623C53.9162 41.8623 54.2971 41.4815 54.2971 41.0117H53.4465ZM44.9165 41.0117V36.8254H43.2154V41.0117H44.9165ZM44.2722 37.6505L45.5126 37.3404L45.1 35.6901L43.8596 36.0002L44.2722 37.6505ZM45.9982 36.0206L41.744 30.0705L40.3602 31.0599L44.6144 37.01L45.9982 36.0206ZM41.1768 29.7238L39.6069 29.4912L39.3576 31.174L40.9275 31.4066L41.1768 29.7238ZM40.3328 30.3326V26.1269H38.6317V30.3326H40.3328ZM39.4823 26.9774H47.7581V25.2763H39.4823V26.9774ZM46.9075 26.1269V30.3326H48.6086V26.1269H46.9075ZM47.5596 29.5055L46.5905 29.7381L46.9875 31.3923L47.9566 31.1597L47.5596 29.5055ZM46.0747 31.027L48.0419 34.0698L49.4705 33.1463L47.5033 30.1034L46.0747 31.027ZM49.4705 34.0698L51.4377 31.027L50.0091 30.1034L48.0419 33.1463L49.4705 34.0698ZM50.9219 29.7381L49.9528 29.5055L49.5559 31.1597L50.5249 31.3923L50.9219 29.7381ZM50.6049 30.3326V26.1269H48.9038V30.3326H50.6049ZM49.7543 26.9774H58.0205V25.2763H49.7543V26.9774ZM57.1699 26.1269V30.3326H58.871V26.1269H57.1699ZM57.8951 29.4913L56.3349 29.7239L56.5857 31.4065L58.1459 31.1739L57.8951 29.4913ZM55.7684 30.0705L51.5142 36.0206L52.898 37.01L57.1522 31.0599L55.7684 30.0705ZM51.9998 37.3404L53.2402 37.6505L53.6528 36.0002L52.4124 35.6901L51.9998 37.3404ZM52.5959 36.8254V41.0117H54.2971V36.8254H52.5959ZM53.4465 40.1612H44.0659V41.8623H53.4465V40.1612ZM58.767 26.1269V25.2763C58.2973 25.2763 57.9165 25.6571 57.9165 26.1269H58.767ZM70.0663 26.2819L69.9584 27.1256L69.965 27.1264L70.0663 26.2819ZM73.5162 27.3963L73 28.0724L73.0059 28.0768L73.5162 27.3963ZM74.3593 28.3073L73.6286 28.7429L73.6349 28.753L74.3593 28.3073ZM74.776 29.412L73.9384 29.5606L73.9409 29.5736L74.776 29.412ZM74.7566 31.9994L73.9262 31.8149L73.9236 31.8275L74.7566 31.9994ZM74.2818 33.1235L74.9811 33.6077L74.9854 33.6014L74.2818 33.1235ZM73.3127 34.0344L72.846 33.3233L72.8409 33.3267L73.3127 34.0344ZM71.7331 34.7225L71.9646 35.541L71.97 35.5394L71.7331 34.7225ZM69.4074 35.1489L69.498 35.9946L69.5033 35.994L69.4074 35.1489ZM66.2095 35.2942V34.4437C65.7397 34.4437 65.3589 34.8245 65.3589 35.2942H66.2095ZM66.2095 36.5637H65.3589C65.3589 36.9706 65.6471 37.3205 66.0464 37.3985L66.2095 36.5637ZM67.4499 36.806H68.3004C68.3004 36.3991 68.0123 36.0492 67.6129 35.9712L67.4499 36.806ZM67.4499 41.0117V41.8623C67.9196 41.8623 68.3004 41.4815 68.3004 41.0117H67.4499ZM58.767 41.0117H57.9165C57.9165 41.4815 58.2973 41.8623 58.767 41.8623V41.0117ZM58.767 36.806L58.604 35.9712C58.2047 36.0492 57.9165 36.3991 57.9165 36.806H58.767ZM60.0074 36.5637L60.1705 37.3985C60.5698 37.3205 60.858 36.9706 60.858 36.5637H60.0074ZM60.0074 30.5749H60.858C60.858 30.168 60.5698 29.8181 60.1705 29.7401L60.0074 30.5749ZM58.767 30.3326H57.9165C57.9165 30.7395 58.2047 31.0894 58.604 31.1674L58.767 30.3326ZM66.2095 32.6293H65.3589C65.3589 33.0991 65.7397 33.4799 66.2095 33.4799V32.6293ZM67.227 32.5712L67.1215 31.7272L67.1193 31.7274L67.227 32.5712ZM68.0119 32.3289L68.4363 33.066L68.4432 33.062L68.0119 32.3289ZM68.5158 29.8675L67.7509 30.2396L67.7551 30.2478L68.5158 29.8675ZM68.0119 29.3248L67.5875 30.062L67.597 30.0673L68.0119 29.3248ZM67.227 29.0825L67.1193 29.9262L67.1215 29.9265L67.227 29.0825ZM66.2095 29.0244V28.1738C65.7397 28.1738 65.3589 28.5546 65.3589 29.0244H66.2095ZM58.767 26.9774H67.2076V25.2763H58.767V26.9774ZM67.2076 26.9774C68.2813 26.9774 69.1965 27.0281 69.9584 27.1256L70.1743 25.4382C69.3211 25.329 68.3304 25.2763 67.2076 25.2763V26.9774ZM69.965 27.1264C70.735 27.2188 71.3645 27.3515 71.8642 27.5161L72.3967 25.9005C71.7594 25.6905 71.0128 25.5388 70.1677 25.4374L69.965 27.1264ZM71.8642 27.5161C72.3712 27.6832 72.7408 27.8744 73 28.0723L74.0324 26.7203C73.581 26.3756 73.0267 26.1081 72.3967 25.9005L71.8642 27.5161ZM73.0059 28.0768C73.2927 28.2919 73.4934 28.5158 73.6287 28.7428L75.0899 27.8717C74.8247 27.4269 74.4633 27.0435 74.0266 26.7159L73.0059 28.0768ZM73.6349 28.753C73.7838 28.9951 73.8855 29.262 73.9385 29.5606L75.6135 29.2634C75.5243 28.7609 75.3482 28.2914 75.0837 27.8615L73.6349 28.753ZM73.9409 29.5736C74.0071 29.9155 74.0417 30.2874 74.0417 30.6912H75.7429C75.7429 30.1905 75.6999 29.7096 75.6111 29.2504L73.9409 29.5736ZM74.0417 30.6912C74.0417 31.1013 74.0019 31.475 73.9263 31.8149L75.5869 32.1839C75.6923 31.7098 75.7429 31.2113 75.7429 30.6912H74.0417ZM73.9236 31.8275C73.8621 32.1255 73.7477 32.3961 73.5782 32.6456L74.9854 33.6014C75.2811 33.1661 75.4831 32.6874 75.5896 32.1713L73.9236 31.8275ZM73.5825 32.6394C73.4237 32.8687 73.1868 33.0997 72.8461 33.3233L73.7794 34.7456C74.2655 34.4265 74.6747 34.0503 74.9811 33.6077L73.5825 32.6394ZM72.8409 33.3267C72.5276 33.5356 72.0878 33.734 71.4962 33.9056L71.97 35.5394C72.6706 35.3362 73.2839 35.0759 73.7845 34.7422L72.8409 33.3267ZM71.5017 33.904C70.9196 34.0687 70.1924 34.2038 69.3115 34.3037L69.5033 35.994C70.4442 35.8872 71.2676 35.7381 71.9646 35.5409L71.5017 33.904ZM69.3168 34.3031C68.4507 34.3959 67.4164 34.4437 66.2095 34.4437V36.1448C67.4575 36.1448 68.5551 36.0956 69.498 35.9946L69.3168 34.3031ZM65.3589 35.2942V36.5637H67.06V35.2942H65.3589ZM66.0464 37.3985L67.2868 37.6408L67.6129 35.9712L66.3725 35.7289L66.0464 37.3985ZM66.5993 36.806V41.0117H68.3004V36.806H66.5993ZM67.4499 40.1612H58.767V41.8623H67.4499V40.1612ZM59.6176 41.0117V36.806H57.9165V41.0117H59.6176ZM58.9301 37.6408L60.1705 37.3985L59.8444 35.7289L58.604 35.9712L58.9301 37.6408ZM60.858 36.5637V30.5749H59.1569V36.5637H60.858ZM60.1705 29.7401L58.9301 29.4978L58.604 31.1674L59.8444 31.4097L60.1705 29.7401ZM59.6176 30.3326V26.1269H57.9165V30.3326H59.6176ZM66.2095 33.4799C66.6125 33.4799 66.9885 33.4591 67.3347 33.4149L67.1193 31.7274C66.8582 31.7608 66.5558 31.7787 66.2095 31.7787V33.4799ZM67.3325 33.4152C67.7257 33.366 68.1024 33.2583 68.4363 33.066L67.5875 31.5918C67.4951 31.645 67.3484 31.6988 67.1215 31.7272L67.3325 33.4152ZM68.4432 33.062C68.8136 32.8441 69.0945 32.5314 69.2807 32.1486L67.751 31.4044C67.7046 31.4998 67.6496 31.5552 67.5807 31.5958L68.4432 33.062ZM69.2807 32.1486C69.4754 31.7484 69.5408 31.2813 69.5408 30.8075H67.8397C67.8397 31.1476 67.7889 31.3266 67.751 31.4044L69.2807 32.1486ZM69.5408 30.8075C69.5408 30.3434 69.4746 29.883 69.2766 29.4871L67.7551 30.2478C67.7897 30.3171 67.8397 30.4833 67.8397 30.8075H69.5408ZM69.2807 29.4954C69.0929 29.1093 68.8071 28.7948 68.4269 28.5823L67.597 30.0673C67.6561 30.1003 67.7062 30.1475 67.751 30.2396L69.2807 29.4954ZM68.4363 28.5877C68.1024 28.3954 67.7257 28.2877 67.3325 28.2385L67.1215 29.9265C67.3484 29.9549 67.4951 30.0087 67.5875 30.0619L68.4363 28.5877ZM67.3347 28.2388C66.9885 28.1946 66.6125 28.1738 66.2095 28.1738V29.8749C66.5558 29.8749 66.8582 29.8929 67.1193 29.9262L67.3347 28.2388ZM65.3589 29.0244V32.6293H67.06V29.0244H65.3589ZM84.7772 41.0117L83.9446 41.186C84.0271 41.58 84.3746 41.8623 84.7772 41.8623V41.0117ZM84.2539 38.5115L85.0864 38.3373C85.0039 37.9432 84.6565 37.661 84.2539 37.661V38.5115ZM80.2032 38.5115V37.661C79.7994 37.661 79.4513 37.9449 79.37 38.3404L80.2032 38.5115ZM79.6896 41.0117V41.8623C80.0933 41.8623 80.4415 41.5784 80.5227 41.1829L79.6896 41.0117ZM74.1756 41.0117H73.325C73.325 41.4815 73.7058 41.8623 74.1756 41.8623V41.0117ZM74.1756 36.1276L74.0062 35.2941C73.6098 35.3747 73.325 35.7232 73.325 36.1276H74.1756ZM75.3675 35.8854L75.5369 36.7189C75.8461 36.656 76.0951 36.4272 76.1838 36.1245L75.3675 35.8854ZM78.2263 26.1269V25.2763C77.8486 25.2763 77.5162 25.5253 77.41 25.8877L78.2263 26.1269ZM86.2308 26.1269L87.0468 25.887C86.9404 25.525 86.6081 25.2763 86.2308 25.2763V26.1269ZM89.0992 35.8854L88.2831 36.1252C88.372 36.4276 88.6209 36.6561 88.9298 36.7189L89.0992 35.8854ZM90.2911 36.1276H91.1417C91.1417 35.7232 90.8569 35.3747 90.4606 35.2941L90.2911 36.1276ZM90.2911 41.0117V41.8623C90.7609 41.8623 91.1417 41.4815 91.1417 41.0117H90.2911ZM81.0366 35.1876L80.2046 35.0109C80.1512 35.2619 80.2141 35.5235 80.3756 35.7229C80.5371 35.9224 80.78 36.0382 81.0366 36.0382V35.1876ZM83.4205 35.1876V36.0382C83.6771 36.0382 83.9199 35.9224 84.0814 35.7229C84.2429 35.5235 84.3058 35.2619 84.2525 35.0109L83.4205 35.1876ZM82.2285 29.5767L83.0605 29.4C82.977 29.0071 82.6302 28.7262 82.2285 28.7262C81.8269 28.7262 81.48 29.0071 81.3965 29.4L82.2285 29.5767ZM85.6097 40.8375L85.0864 38.3373L83.4213 38.6858L83.9446 41.186L85.6097 40.8375ZM84.2539 37.661H80.2032V39.3621H84.2539V37.661ZM79.37 38.3404L78.8564 40.8406L80.5227 41.1829L81.0363 38.6827L79.37 38.3404ZM79.6896 40.1612H74.1756V41.8623H79.6896V40.1612ZM75.0261 41.0117V36.1276H73.325V41.0117H75.0261ZM74.345 36.9611L75.5369 36.7189L75.1981 35.0518L74.0062 35.2941L74.345 36.9611ZM76.1838 36.1245L79.0425 26.366L77.41 25.8877L74.5513 35.6462L76.1838 36.1245ZM78.2263 26.9774H86.2308V25.2763H78.2263V26.9774ZM85.4147 26.3667L88.2831 36.1252L89.9152 35.6455L87.0468 25.887L85.4147 26.3667ZM88.9298 36.7189L90.1217 36.9611L90.4606 35.2941L89.2686 35.0518L88.9298 36.7189ZM89.4406 36.1276V41.0117H91.1417V36.1276H89.4406ZM90.2911 40.1612H84.7772V41.8623H90.2911V40.1612ZM81.0366 36.0382H83.4205V34.3371H81.0366V36.0382ZM84.2525 35.0109L83.0605 29.4L81.3965 29.7535L82.5885 35.3644L84.2525 35.0109ZM81.3965 29.4L80.2046 35.0109L81.8686 35.3644L83.0605 29.7535L81.3965 29.4ZM91.4544 29.9741L90.6712 29.6423L90.6693 29.6469L91.4544 29.9741ZM93.1309 27.6871L93.6708 28.3443L93.6712 28.344L93.1309 27.6871ZM102.715 26.2916L102.524 27.1204L102.526 27.1209L102.715 26.2916ZM104.072 26.6889L103.772 27.4848L103.776 27.4864L104.072 26.6889ZM105.186 27.1541H106.037C106.037 26.8249 105.847 26.5252 105.549 26.3848L105.186 27.1541ZM105.186 31.5827V32.4333C105.656 32.4333 106.037 32.0525 106.037 31.5827H105.186ZM102.269 31.5827L101.575 32.0744C101.735 32.2995 101.993 32.4333 102.269 32.4333V31.5827ZM101.164 30.5555L100.755 31.3013L100.76 31.304L101.164 30.5555ZM98.8678 30.4392L98.5417 29.6536L98.5363 29.6559L98.8678 30.4392ZM97.3269 32.0576L98.1121 32.3847L98.114 32.3801L97.3269 32.0576ZM97.8405 35.8466L97.2315 36.4404L97.2353 36.4442L97.8405 35.8466ZM100.709 36.5831L100.618 35.7375L100.615 35.7377L100.709 36.5831ZM101.426 36.4668L101.606 37.2982C101.997 37.2135 102.277 36.8673 102.277 36.4668H101.426ZM101.426 35.2942H102.277C102.277 34.8245 101.896 34.4437 101.426 34.4437V35.2942ZM99.5655 35.2942H98.7149C98.7149 35.764 99.0957 36.1448 99.5655 36.1448V35.2942ZM99.5655 32.639V31.7884C99.0957 31.7884 98.7149 32.1692 98.7149 32.639H99.5655ZM105.593 32.639H106.444C106.444 32.1692 106.063 31.7884 105.593 31.7884V32.639ZM105.593 39.7132L105.921 40.498C106.237 40.3658 106.444 40.0563 106.444 39.7132H105.593ZM103.965 40.3237L104.231 41.1315L104.237 41.1297L103.965 40.3237ZM102.25 40.8179L102.447 41.6453L102.454 41.6436L102.25 40.8179ZM100.573 41.0989L100.494 40.2521L100.484 40.2531L100.573 41.0989ZM94.9043 40.4303L94.5405 41.1991L94.5437 41.2006L94.9043 40.4303ZM93.2569 39.3643L92.6985 40.006L92.7033 40.0101L93.2569 39.3643ZM91.9777 37.8429L91.2462 38.277L91.2519 38.2864L91.9777 37.8429ZM91.1637 35.8563L90.3407 36.071L90.3411 36.0728L91.1637 35.8563ZM91.7235 33.3949C91.7235 32.1209 91.9071 31.0991 92.2395 30.3012L90.6693 29.6469C90.2265 30.7096 90.0224 31.9683 90.0224 33.3949H91.7235ZM92.2376 30.3058C92.5824 29.4918 93.0617 28.8446 93.6708 28.3443L92.591 27.0298C91.753 27.7182 91.1146 28.5957 90.6712 29.6423L92.2376 30.3058ZM93.6712 28.344C94.2746 27.8477 94.9913 27.4564 95.8322 27.1761L95.2943 25.5622C94.2746 25.9021 93.3697 26.3894 92.5906 27.0301L93.6712 28.344ZM95.8322 27.1761C96.6584 26.9007 97.6338 26.7545 98.7708 26.7545V25.0534C97.4917 25.0534 96.3287 25.2174 95.2943 25.5622L95.8322 27.1761ZM98.7708 26.7545C99.5814 26.7545 100.289 26.7892 100.897 26.856L101.083 25.1651C100.399 25.0899 99.6271 25.0534 98.7708 25.0534V26.7545ZM100.897 26.856C101.518 26.9244 102.059 27.0132 102.524 27.1204L102.906 25.4628C102.363 25.3375 101.754 25.2389 101.083 25.1651L100.897 26.856ZM102.526 27.1209C103.007 27.2306 103.421 27.3527 103.772 27.4848L104.372 25.8931C103.934 25.728 103.443 25.5852 102.904 25.4623L102.526 27.1209ZM103.776 27.4864C104.156 27.6276 104.505 27.7734 104.823 27.9234L105.549 26.3848C105.182 26.2117 104.788 26.0474 104.367 25.8915L103.776 27.4864ZM104.336 27.1541V31.5827H106.037V27.1541H104.336ZM105.186 30.7321H102.269V32.4333H105.186V30.7321ZM102.963 31.0911C102.575 30.5435 102.114 30.1016 101.568 29.807L100.76 31.304C101.029 31.4487 101.304 31.6917 101.575 32.0744L102.963 31.0911ZM101.573 29.8097C101.057 29.5264 100.504 29.3755 99.924 29.3755V31.0766C100.197 31.0766 100.471 31.1453 100.755 31.3013L101.573 29.8097ZM99.924 29.3755C99.4475 29.3755 98.9848 29.4697 98.5417 29.6536L99.1938 31.2248C99.4355 31.1245 99.677 31.0766 99.924 31.0766V29.3755ZM98.5363 29.6559C98.0922 29.8438 97.6985 30.1163 97.3579 30.4653L98.5752 31.6536C98.7643 31.4598 98.9714 31.3189 99.1992 31.2226L98.5363 29.6559ZM97.3579 30.4653C97.0078 30.8239 96.7378 31.2522 96.5399 31.735L98.114 32.3801C98.2391 32.0748 98.3955 31.8376 98.5752 31.6536L97.3579 30.4653ZM96.5418 31.7304C96.3294 32.2402 96.2341 32.8006 96.2341 33.3949H97.9352C97.9352 32.9813 98.0015 32.6501 98.1121 32.3847L96.5418 31.7304ZM96.2341 33.3949C96.2341 34.6161 96.5062 35.6965 97.2315 36.4404L98.4495 35.2528C98.167 34.9631 97.9352 34.4089 97.9352 33.3949H96.2341ZM97.2353 36.4442C97.9482 37.1662 98.916 37.4724 100.011 37.4724V35.7713C99.2329 35.7713 98.7536 35.5607 98.4458 35.249L97.2353 36.4442ZM100.011 37.4724C100.275 37.4724 100.539 37.4577 100.803 37.4284L100.615 35.7377C100.413 35.7601 100.212 35.7713 100.011 35.7713V37.4724ZM100.8 37.4287C101.07 37.3996 101.338 37.356 101.606 37.2982L101.246 35.6354C101.036 35.6809 100.826 35.7149 100.618 35.7375L100.8 37.4287ZM102.277 36.4668V35.2942H100.576V36.4668H102.277ZM101.426 34.4437H99.5655V36.1448H101.426V34.4437ZM100.416 35.2942V32.639H98.7149V35.2942H100.416ZM99.5655 33.4896H105.593V31.7884H99.5655V33.4896ZM104.743 32.639V39.7132H106.444V32.639H104.743ZM105.265 38.9283C104.775 39.1331 104.251 39.3297 103.693 39.5177L104.237 41.1297C104.829 40.9301 105.39 40.7196 105.921 40.498L105.265 38.9283ZM103.699 39.5159C103.151 39.6965 102.6 39.8553 102.046 39.9922L102.454 41.6436C103.05 41.4963 103.642 41.3255 104.231 41.1315L103.699 39.5159ZM102.052 39.9906C101.52 40.1175 101.001 40.2044 100.494 40.2521L100.653 41.9458C101.244 41.8901 101.842 41.7896 102.447 41.6452L102.052 39.9906ZM100.484 40.2531C99.959 40.3087 99.4822 40.3356 99.0519 40.3356V42.0367C99.5519 42.0367 100.089 42.0055 100.663 41.9448L100.484 40.2531ZM99.0519 40.3356C98.3304 40.3356 97.6447 40.2836 96.994 40.1812L96.7295 41.8616C97.4743 41.9789 98.2487 42.0367 99.0519 42.0367V40.3356ZM96.994 40.1812C96.3711 40.0831 95.7959 39.9085 95.2649 39.6599L94.5437 41.2006C95.2272 41.5206 95.957 41.74 96.7295 41.8616L96.994 40.1812ZM95.268 39.6614C94.7347 39.4091 94.2495 39.0949 93.8104 38.7185L92.7033 40.0101C93.2591 40.4865 93.8722 40.883 94.5405 41.1991L95.268 39.6614ZM93.8152 38.7226C93.3855 38.3488 93.015 37.9091 92.7035 37.3993L91.2519 38.2864C91.6511 38.9396 92.1333 39.5141 92.6985 40.006L93.8152 38.7226ZM92.7092 37.4088C92.4049 36.8961 92.1622 36.3085 91.9862 35.6398L90.3411 36.0728C90.5528 36.8771 90.8527 37.6138 91.2462 38.2769L92.7092 37.4088ZM91.9867 35.6416C91.814 34.9794 91.7235 34.2323 91.7235 33.3949H90.0224C90.0224 34.3534 90.1258 35.2473 90.3407 36.071L91.9867 35.6416ZM114.17 37.2905H113.319C113.319 37.7603 113.7 38.1411 114.17 38.1411V37.2905ZM115.41 37.1839L115.563 38.0206L115.577 38.018L115.41 37.1839ZM116.476 36.8932L116.193 36.0911L116.188 36.0929L116.476 36.8932ZM118.065 36.0501V35.1995C117.883 35.1995 117.705 35.2583 117.559 35.367L118.065 36.0501ZM119.684 36.0501H120.534C120.534 35.5804 120.153 35.1995 119.684 35.1995V36.0501ZM119.684 41.0117V41.8623C120.153 41.8623 120.534 41.4815 120.534 41.0117H119.684ZM106.727 41.0117H105.877C105.877 41.4815 106.258 41.8623 106.727 41.8623V41.0117ZM106.727 36.806L106.564 35.9712C106.165 36.0492 105.877 36.3991 105.877 36.806H106.727ZM107.968 36.5637L108.131 37.3985C108.53 37.3205 108.818 36.9706 108.818 36.5637H107.968ZM107.968 30.5943H108.818C108.818 30.1874 108.53 29.8375 108.131 29.7595L107.968 30.5943ZM106.727 30.352H105.877C105.877 30.7589 106.165 31.1088 106.564 31.1868L106.727 30.352ZM106.727 26.1269V25.2763C106.258 25.2763 105.877 25.6571 105.877 26.1269H106.727ZM119.684 26.1269H120.534C120.534 25.6571 120.153 25.2763 119.684 25.2763V26.1269ZM119.684 31.0885V31.9391C120.153 31.9391 120.534 31.5582 120.534 31.0885H119.684ZM118.123 31.0885L117.642 31.7894C117.783 31.8869 117.951 31.9391 118.123 31.9391V31.0885ZM116.495 30.2551L116.199 31.0521C116.205 31.0545 116.211 31.0567 116.217 31.0589L116.495 30.2551ZM115.42 29.9644L115.253 30.7985L115.266 30.801L115.42 29.9644ZM114.17 29.8481V28.9975C113.7 28.9975 113.319 29.3783 113.319 29.8481H114.17ZM114.17 32.4936H113.319C113.319 32.7508 113.436 32.9942 113.636 33.1557C113.836 33.3172 114.098 33.3794 114.35 33.3249L114.17 32.4936ZM117.077 31.8637H117.927C117.927 31.6065 117.811 31.3631 117.611 31.2017C117.411 31.0402 117.148 30.978 116.897 31.0325L117.077 31.8637ZM117.077 35.2942L116.897 36.1255C117.148 36.18 117.411 36.1178 117.611 35.9563C117.811 35.7948 117.927 35.5514 117.927 35.2942H117.077ZM114.17 34.6643L114.35 33.8331C114.098 33.7786 113.836 33.8408 113.636 34.0023C113.436 34.1637 113.319 34.4071 113.319 34.6643H114.17ZM114.17 38.1411C114.655 38.1411 115.12 38.1019 115.563 38.0205L115.257 36.3473C114.925 36.4081 114.563 36.4399 114.17 36.4399V38.1411ZM115.577 38.018C116 37.9334 116.396 37.8259 116.764 37.6935L116.188 36.0929C115.91 36.193 115.596 36.2794 115.243 36.3499L115.577 38.018ZM116.759 37.6953C117.128 37.5651 117.471 37.4134 117.784 37.2377L116.951 35.7541C116.735 35.8755 116.483 35.9887 116.193 36.0911L116.759 37.6953ZM117.784 37.2377C118.074 37.0751 118.337 36.9073 118.572 36.7332L117.559 35.367C117.393 35.4901 117.191 35.6195 116.951 35.7541L117.784 37.2377ZM118.065 36.9007H119.684V35.1995H118.065V36.9007ZM118.833 36.0501V41.0117H120.534V36.0501H118.833ZM119.684 40.1612H106.727V41.8623H119.684V40.1612ZM107.578 41.0117V36.806H105.877V41.0117H107.578ZM106.89 37.6408L108.131 37.3985L107.805 35.7289L106.564 35.9712L106.89 37.6408ZM108.818 36.5637V30.5943H107.117V36.5637H108.818ZM108.131 29.7595L106.89 29.5172L106.564 31.1868L107.805 31.4291L108.131 29.7595ZM107.578 30.352V26.1269H105.877V30.352H107.578ZM106.727 26.9774H119.684V25.2763H106.727V26.9774ZM118.833 26.1269V31.0885H120.534V26.1269H118.833ZM119.684 30.2379H118.123V31.9391H119.684V30.2379ZM118.605 30.3876C118.37 30.226 118.106 30.0657 117.815 29.9064L116.998 31.3984C117.25 31.5363 117.463 31.6668 117.642 31.7894L118.605 30.3876ZM117.815 29.9064C117.496 29.7319 117.148 29.5809 116.774 29.4513L116.217 31.0589C116.515 31.1618 116.774 31.2758 116.998 31.3984L117.815 29.9064ZM116.792 29.458C116.411 29.316 116.004 29.2067 115.573 29.1278L115.266 30.801C115.611 30.8641 115.921 30.9487 116.199 31.0521L116.792 29.458ZM115.587 29.1303C115.138 29.0405 114.664 28.9975 114.17 28.9975V30.6986C114.566 30.6986 114.927 30.7332 115.253 30.7984L115.587 29.1303ZM113.319 29.8481V32.4936H115.02V29.8481H113.319ZM114.35 33.3249L117.257 32.695L116.897 31.0325L113.99 31.6624L114.35 33.3249ZM116.226 31.8637V35.2942H117.927V31.8637H116.226ZM117.257 34.463L114.35 33.8331L113.99 35.4956L116.897 36.1255L117.257 34.463ZM113.319 34.6643V37.2905H115.02V34.6643H113.319Z" fill="black"/>
</svg>
